<svg width="176" height="149" viewBox="0 0 176 149" fill="none" xmlns="http://www.w3.org/2000/svg">
<path d="M48.5956 49.3633C45.1073 53.1843 44.1384 68.4071 46.7241 76.8808C49.3103 85.3545 64.728 83.0963 73.4212 81.1537C82.1144 79.2111 78.3265 59.4399 77.2054 54.1639C75.4551 45.9252 53.7648 43.7012 48.5956 49.3633Z" fill="white"/>
<g opacity="0.25">
<path opacity="0.25" d="M73.4221 81.1534C64.7289 83.096 49.3117 85.3532 46.724 76.88C46.3864 75.7701 46.1081 74.5459 45.8902 73.2454C48.6665 74.6853 51.711 72.3561 51.6757 69.9568C51.4578 55.1464 55.7505 48.6308 57.9751 46.2577C66.0535 45.8657 76.042 48.6826 77.2053 54.1647C78.328 59.4396 82.1159 79.2109 73.4221 81.1534Z" fill="#371A45"/>
</g>
<path d="M59.4089 83.8369C63.952 83.8369 69.0096 83.0304 73.6115 82.0022C82.2497 80.0719 80.1042 63.6191 78.0564 53.9832C77.3535 50.6754 73.8897 48.0182 68.3029 46.5008C61.2612 44.5882 51.4794 44.9145 47.9538 48.7767C44.2764 52.805 43.159 68.1767 45.8932 77.1343C47.4325 82.1779 52.8916 83.8369 59.4089 83.8369ZM59.4874 47.0766C62.1932 47.0766 65.0988 47.4328 67.8473 48.179C72.7019 49.4977 75.8035 51.7453 76.3557 54.3448C77.558 60.0027 80.8866 78.5951 73.2323 80.3054C64.648 82.2239 49.8969 84.2962 47.5564 76.6274C45.061 68.4518 46.0042 53.4924 49.2383 49.9496C50.9368 48.0887 54.9271 47.0766 59.4874 47.0766Z" fill="#371A45"/>
<path d="M52.2132 63.7174L48.0375 62.9077C47.0937 62.7245 46.2007 63.4087 46.1371 64.3685C45.9192 67.6693 45.9021 74.428 49.3215 75.1613C53.4652 76.0501 53.9838 71.3664 53.5031 65.1584C53.4475 64.4427 52.9172 63.8536 52.2132 63.7174Z" fill="white"/>
<g opacity="0.25">
<path opacity="0.25" d="M53.493 65.1502C53.9887 71.3565 53.4802 76.0428 49.335 75.1621C47.6327 74.8026 46.7776 72.9455 46.3765 70.7653C46.815 71.3277 47.7823 72.5578 48.49 72.577C49.7639 72.6122 50.8833 71.5648 51.1429 67.9457C52.9146 73.4465 53.4418 64.4814 53.493 65.1502Z" fill="#371A45"/>
</g>
<path d="M50.281 76.0917C51.1991 76.0917 51.9821 75.8107 52.6193 75.2515C54.2607 73.8099 54.7681 70.7692 54.3146 65.0847C54.2286 64.0052 53.4232 63.109 52.356 62.9044L48.1782 62.1038C47.495 61.9729 46.7874 62.1423 46.2378 62.5679C45.6892 62.9926 45.3495 63.633 45.3057 64.3246C45.0515 68.3134 45.2149 75.1297 49.1647 75.9672C49.5562 76.05 49.9285 76.0917 50.281 76.0917ZM52.0468 64.5201C52.3891 64.5858 52.6471 64.8716 52.6743 65.215C52.818 67.0176 53.2555 72.5019 51.5335 74.0145C51.057 74.4333 50.3942 74.5449 49.5065 74.3574C47.5351 73.9392 46.5785 70.2277 46.9481 64.4288C46.9625 64.2055 47.0683 64.0063 47.2456 63.8685C47.4245 63.7296 47.6457 63.6768 47.8689 63.7195L52.0468 64.5201Z" fill="#371A45"/>
<path d="M51.1361 67.1377C51.0816 67.9143 50.994 68.6866 50.8786 69.4509C50.7622 70.2142 50.618 70.9721 50.4193 71.7017C50.2233 72.4233 49.9653 73.1502 49.601 73.6731C49.4232 73.9332 49.201 74.0854 49.0894 74.0812C49.0627 74.0961 49.0322 74.0683 49.0103 74.0753C48.982 74.0667 48.9516 74.0507 48.9211 74.0454C48.88 74.0187 48.8447 74.0075 48.8004 73.9829C48.7523 73.9487 48.7048 73.9172 48.6562 73.8894L48.5958 73.8542C48.1787 73.6106 47.6441 73.7516 47.4005 74.1682C47.157 74.5848 47.298 75.12 47.7146 75.3636C47.7519 75.3855 47.7952 75.4058 47.8342 75.4218C47.9629 75.4725 48.0922 75.5206 48.2214 75.5649C48.3592 75.605 48.5163 75.6301 48.6615 75.6547C48.8223 75.6632 48.9884 75.6664 49.1513 75.645C49.3174 75.6077 49.4889 75.5826 49.6347 75.5019C49.71 75.4667 49.7837 75.4293 49.8553 75.3903C49.9194 75.3459 49.9803 75.2989 50.0406 75.2514C50.1699 75.1585 50.2537 75.0517 50.3477 74.9475C50.5213 74.7365 50.641 74.5197 50.7403 74.3076C50.9321 73.8825 51.0357 73.4685 51.1174 73.0599C51.1986 72.6519 51.2429 72.2492 51.2755 71.8491C51.339 71.0495 51.3391 70.2607 51.3118 69.476C51.284 68.6914 51.2264 67.9116 51.1361 67.1377Z" fill="#371A45"/>
<path d="M54.3346 65.5266L54.5413 71.4745C55.2532 77.6393 57.4575 82.2588 59.9759 84.7146C63.5977 88.243 69.9654 88.6404 72.1291 90.8489C74.0273 92.7878 74.0353 95.7158 74.4573 98.7089C74.8183 101.268 75.8828 104.502 78.5619 106.974C82.6137 110.712 88.827 110.002 91.6215 106.605C94.8112 102.724 88.592 95.673 87.7219 94.8211C87.7219 94.8211 88.5151 93.355 89.2591 92.0288C89.9407 90.8164 90.1858 89.1168 90.0234 87.3019C94.6408 87.9102 97.6158 96.0175 101.22 97.7091C103.367 98.7191 108.372 98.6096 112.683 91.1448C115.666 85.9821 115.541 80.8108 111.87 78.9879C107.961 77.0453 104.507 80.7745 104.507 80.7745C104.507 80.7745 106.37 63.7181 90.541 69.5277C90.541 69.5277 88.5151 56.6892 88.5295 43.8443L63.2825 38.665C57.1312 48.6871 54.6491 57.9038 54.3346 65.5266Z" fill="white"/>
<path d="M88.5295 43.8438C88.5151 56.6881 90.541 69.5276 90.541 69.5276C106.37 63.7176 104.506 80.7744 104.506 80.7744C104.506 80.7744 107.959 77.0442 111.869 78.9868C115.54 80.8113 115.666 85.9826 112.684 91.1448C108.37 98.6101 103.367 98.7201 101.218 97.7101C96.0461 95.2788 92.1685 79.6421 82.8802 91.9144" fill="white"/>
<path d="M88.5295 43.8438C88.5151 56.6881 90.541 69.5276 90.541 69.5276C106.37 63.7176 104.506 80.7744 104.506 80.7744C104.506 80.7744 107.959 77.0442 111.869 78.9868C115.54 80.8113 115.666 85.9826 112.684 91.1448C108.37 98.6101 103.367 98.7201 101.218 97.7101C96.0461 95.2788 92.1685 79.6421 82.8802 91.9144" fill="white"/>
<path d="M88.5295 43.8438C88.5151 56.6881 90.541 69.5276 90.541 69.5276C106.37 63.7176 104.506 80.7744 104.506 80.7744C104.506 80.7744 107.959 77.0442 111.869 78.9868C115.54 80.8113 115.666 85.9826 112.684 91.1448C108.37 98.6101 103.367 98.7201 101.218 97.7101C96.0461 95.2788 92.1685 79.6421 82.8802 91.9144" fill="white"/>
<path d="M93.521 89.8823C93.5915 89.8823 93.6636 89.8706 93.7341 89.8465C94.0744 89.729 94.2549 89.3573 94.1374 89.017C91.7387 82.0778 93.8581 76.4584 96.6408 73.5139C98.3387 71.7171 100.34 70.8695 101.862 71.3011C102.208 71.3993 102.569 71.198 102.668 70.8513C102.766 70.5047 102.565 70.1447 102.218 70.0459C100.196 69.4717 97.7566 70.4337 95.6927 72.6171C92.6472 75.8399 90.3153 81.9523 92.9047 89.4422C92.9981 89.713 93.2508 89.8823 93.521 89.8823Z" fill="#371A45"/>
<path d="M103.356 83.297L105.144 81.3651C105.267 81.2342 108.214 78.1412 111.483 79.766C111.898 79.9721 112.268 80.236 112.582 80.55C112.922 80.8892 113.473 80.8892 113.812 80.5495C114.151 80.2098 114.151 79.6591 113.811 79.32C113.364 78.8729 112.841 78.4996 112.257 78.209C109.495 76.8364 106.986 77.8677 105.445 78.8857C105.41 76.2419 104.856 71.6197 101.66 69.1195C99.1862 67.1839 95.6803 66.9334 91.2301 68.3712C90.9267 66.4463 90.2917 61.9223 90.0385 56.3692C90.0166 55.8895 89.6144 55.5156 89.1305 55.5402C88.6509 55.5621 88.2797 55.9686 88.3016 56.4482C88.6439 63.9573 89.6764 69.6296 89.6865 69.6862L89.8735 70.7005L90.8413 70.3453C95.1606 68.7595 98.4401 68.8081 100.588 70.4895C104.383 73.4586 103.649 80.6093 103.641 80.6814L103.356 83.297Z" fill="#371A45"/>
<path d="M103.415 99.0298C103.762 99.0298 104.116 99.0047 104.472 98.9534C104.947 98.885 105.277 98.4444 105.208 97.969C105.14 97.4937 104.7 97.1614 104.224 97.2325C103.262 97.3703 102.301 97.2581 101.587 96.9232C100.241 96.2903 98.8864 94.4877 97.4529 92.5787C95.2785 89.6844 92.8141 86.4033 89.4834 86.3975C89.4802 86.3975 89.4775 86.3975 89.4743 86.3975C87.1135 86.3975 84.7292 88.0308 82.1869 91.3903C81.8968 91.7733 81.9727 92.3186 82.3556 92.6081C82.7386 92.8976 83.2839 92.8223 83.5734 92.4394C85.7344 89.584 87.7197 88.136 89.4748 88.136C89.477 88.136 89.4786 88.136 89.4802 88.136C91.944 88.1403 94.0378 90.9273 96.062 93.6229C97.6297 95.7097 99.1102 97.6801 100.848 98.4967C101.597 98.8482 102.483 99.0298 103.415 99.0298Z" fill="#371A45"/>
<path d="M103.457 97.8263C103.917 98.0624 104.452 98.0955 104.955 97.9796C107.273 97.4455 110.102 95.613 112.684 91.1446C114.899 87.3134 115.398 83.4747 114.008 81.006C113.585 80.2556 112.746 79.8171 111.888 79.8945C110.153 80.0516 108.262 81.0504 106.969 83.3796C104.718 87.4362 100.098 96.099 103.457 97.8263Z" fill="#D5D4D6"/>
<g opacity="0.7">
<path opacity="0.7" d="M103.305 90.9396C104.25 88.8143 105.372 86.7484 106.185 85.2828C107.479 82.9524 109.369 81.9542 111.104 81.7977C111.961 81.7192 112.8 82.1588 113.223 82.907C114.235 84.7017 114.247 87.2243 113.324 89.9386C114.982 86.5235 115.252 83.2168 114.009 81.0067C113.586 80.2562 112.747 79.8167 111.888 79.8946C110.153 80.0511 108.263 81.0494 106.969 83.3797C105.913 85.2828 104.335 88.2006 103.305 90.9396Z" fill="white"/>
</g>
<g opacity="0.25">
<path opacity="0.25" d="M103.458 97.8262C103.917 98.0633 104.453 98.0964 104.956 97.9805C107.255 97.4486 110.059 95.6411 112.627 91.2411C110.998 92.609 109.406 93.3471 107.976 93.6772C107.371 93.8177 106.724 93.7781 106.171 93.4929C104.016 92.3857 104.583 88.9113 105.996 85.165C103.654 89.5661 100.533 96.3226 103.458 97.8262Z" fill="#371A45"/>
</g>
<path d="M104.4 98.914C104.648 98.914 104.899 98.8857 105.15 98.8275C107.307 98.3303 110.496 96.6697 113.437 91.5801C115.824 87.4514 116.32 83.3393 114.765 80.5801C114.173 79.529 113.014 78.9185 111.81 79.0296C110.465 79.1513 107.95 79.8238 106.209 82.9585C103.556 87.7404 100.633 93.6338 101.591 96.7909C101.839 97.6081 102.347 98.2341 103.06 98.6005C103.464 98.8078 103.924 98.914 104.4 98.914ZM103.458 97.8271H103.455H103.458ZM112.082 80.7558C112.557 80.7558 113.017 81.0181 113.251 81.4336C114.482 83.6187 113.977 87.1732 111.931 90.7101C109.303 95.2586 106.581 96.7135 104.76 97.1328C104.426 97.2097 104.104 97.1819 103.855 97.0537C103.559 96.9015 103.368 96.6574 103.255 96.2857C102.68 94.3896 104.185 90.1899 107.729 83.8024C109.081 81.3674 110.964 80.8519 111.966 80.7612C112.005 80.7574 112.044 80.7558 112.082 80.7558Z" fill="#371A45"/>
<path d="M113.967 89.2743C114.29 89.2743 114.602 89.0965 114.752 88.7883C114.961 88.3599 114.792 87.8456 114.366 87.6325C113.799 87.3488 107.394 85.1066 106.116 84.6601C105.663 84.502 105.167 84.7408 105.009 85.1942C104.85 85.6477 105.09 86.1434 105.543 86.3015C108.425 87.3083 113.158 88.9827 113.591 89.1889C113.712 89.2465 113.841 89.2743 113.967 89.2743Z" fill="#371A45"/>
<path d="M112.334 92.5834C112.656 92.5834 112.967 92.4056 113.118 92.099C113.328 91.6706 113.158 91.1547 112.731 90.941C112.167 90.6585 105.791 88.372 104.518 87.9164C104.067 87.7545 103.569 87.9895 103.407 88.4419C103.245 88.8938 103.48 89.3916 103.932 89.5534C106.809 90.5832 111.531 92.2934 111.955 92.4975C112.077 92.5557 112.206 92.5834 112.334 92.5834Z" fill="#371A45"/>
<path d="M109.871 95.8329C110.192 95.8329 110.5 95.6561 110.652 95.3506C110.865 94.9217 110.693 94.402 110.265 94.1878C109.704 93.9074 104.23 91.8858 103.138 91.4836C102.688 91.3175 102.188 91.5482 102.022 91.9985C101.857 92.4487 102.087 92.9487 102.537 93.1148C105.016 94.0286 109.096 95.5503 109.487 95.7426C109.611 95.804 109.742 95.8329 109.871 95.8329Z" fill="#371A45"/>
<path d="M103.785 80.2907C103.471 80.843 103.23 81.3531 102.99 81.8947C102.754 82.4304 102.538 82.9725 102.347 83.5226C102.154 84.0717 101.98 84.6272 101.834 85.1896C101.68 85.7494 101.565 86.3198 101.46 86.8892C101.416 87.1258 101.573 87.3522 101.809 87.396C102.026 87.4361 102.236 87.3068 102.302 87.1017L102.307 87.0889C102.476 86.5628 102.653 86.0415 102.865 85.5325C103.071 85.0219 103.301 84.522 103.548 84.0317C103.794 83.5403 104.06 83.0606 104.342 82.5927C104.62 82.1313 104.931 81.6548 105.23 81.2585L105.238 81.2468C105.528 80.8628 105.453 80.3158 105.068 80.0258C104.684 79.7358 104.137 79.8116 103.847 80.1957C103.825 80.225 103.802 80.2597 103.785 80.2907Z" fill="#371A45"/>
<path d="M31.9786 106.119C31.9786 106.119 19.6919 96.6213 1.3601 121.734C0.498573 122.914 0.932804 124.585 2.26328 125.188C9.40971 128.425 29.8422 136.266 36.5352 123.593L31.9786 106.119Z" fill="#E81818"/>
<path d="M32.6884 108.631C32.6884 108.631 23.969 101.891 10.9687 119.77C10.3993 120.553 10.6883 121.662 11.569 122.064C16.5187 124.32 31.1432 130.012 35.9102 120.986L32.6884 108.631Z" fill="#E7A900"/>
<path d="M33.8701 110.476C33.8701 110.476 27.9869 105.929 19.2146 117.992C18.8306 118.52 19.0255 119.269 19.6194 119.54C22.9592 121.062 32.8275 124.903 36.0439 118.812L33.8701 110.476Z" fill="#FFFD01"/>
<path d="M23.1406 131.485C29.9538 131.485 34.7223 128.983 37.3432 124.02C37.4501 123.818 37.4768 123.584 37.4196 123.363L32.8631 105.889C32.8124 105.693 32.6975 105.52 32.5378 105.396C32.4 105.29 29.0997 102.797 23.4237 103.604C16.0503 104.651 8.37883 110.57 0.62191 121.196C0.0472069 121.984 -0.140808 122.975 0.107021 123.917C0.353779 124.854 1.0022 125.621 1.88615 126.022C5.45456 127.638 12.483 130.469 19.4654 131.266C20.75 131.411 21.9752 131.485 23.1406 131.485ZM35.5593 123.473C32.823 128.33 27.4808 130.339 19.6732 129.448C12.9391 128.68 6.11153 125.927 2.64086 124.355C2.26057 124.183 1.98176 123.853 1.87547 123.45C1.76865 123.043 1.84983 122.614 2.09873 122.273C11.348 109.602 18.8993 106.117 23.6053 105.424C27.7623 104.812 30.396 106.188 31.1806 106.681L35.5593 123.473Z" fill="#371A45"/>
<path d="M71.8086 105.203L39.6822 84.5078L27.6845 87.532L44.9673 111.968L71.8086 105.203Z" fill="#E81818"/>
<path d="M71.8086 105.203L53.3283 138.652L41.3305 141.676L44.9673 111.968L71.8086 105.203Z" fill="#E81818"/>
<g opacity="0.3">
<path opacity="0.3" d="M71.8091 105.203L44.9678 111.968L41.3294 141.676L45.606 140.598L46.6267 132.252C46.8682 130.29 48.2013 128.634 50.068 127.982C53.1028 126.922 56.0111 125.558 58.7554 123.917C60.2541 123.018 61.7026 122.036 63.094 120.977L71.8091 105.203Z" fill="#371A45"/>
</g>
<g opacity="0.3">
<path opacity="0.3" d="M71.8091 105.202L44.9678 111.968L27.6839 87.5329L31.9605 86.4551L36.8151 93.3206C37.9575 94.9336 39.9161 95.7593 41.8688 95.4495C45.0436 94.9443 48.251 94.7675 51.4455 94.9117C53.191 94.9923 54.9322 95.1707 56.6595 95.4442L71.8091 105.202Z" fill="#371A45"/>
</g>
<g opacity="0.6">
<path opacity="0.6" d="M39.6822 84.5078L37.3465 85.0969L68.6845 105.991L71.8091 105.204L39.6822 84.5078Z" fill="white"/>
</g>
<g opacity="0.6">
<path opacity="0.6" d="M71.8091 105.203L68.6845 105.99L50.9926 139.241L53.3288 138.651L71.8091 105.203Z" fill="white"/>
</g>
<path d="M44.6014 112.957L73.9626 105.557L39.8355 83.5732L26.2423 86.999L44.6014 112.957ZM69.654 104.85L45.3326 110.98L29.126 88.0657L39.5284 85.4442L69.654 104.85Z" fill="#371A45"/>
<path d="M50.7128 79.2158C51.2378 81.2988 43.5872 84.2263 40.4658 84.9378L22.7466 88.9767C21.6549 89.2256 20.5648 88.5569 20.2908 87.4716L20.012 86.3649C19.7385 85.279 20.3816 84.174 21.461 83.8754L38.9783 79.0337C42.0634 78.1807 50.1878 77.1328 50.7128 79.2158Z" fill="#22A7F0"/>
<g opacity="0.6">
<path opacity="0.6" d="M38.9778 79.032L37.109 79.549C40.7799 78.8477 46.6146 78.3809 47.0568 80.1371C47.4991 81.8911 42.1387 84.246 38.5735 85.3682L40.4664 84.9372C43.5872 84.2257 51.2373 81.2982 50.7128 79.2157C50.1873 77.1316 42.0634 78.1796 38.9778 79.032Z" fill="white"/>
</g>
<path d="M40.3136 142.83L53.9068 139.404L73.5381 103.871L44.1768 111.271L40.3136 142.83ZM52.7499 137.902L42.3475 140.524L45.7578 112.666L70.0792 106.536L52.7499 137.902Z" fill="#371A45"/>
<path d="M65.55 138.086C65.0249 136.003 56.9005 137.051 53.815 137.904L36.2977 142.746C35.2188 143.044 34.5752 144.149 34.8486 145.235L35.1274 146.342C35.4009 147.428 36.4916 148.096 37.5833 147.847L55.3025 143.808C58.4244 143.096 66.075 140.168 65.55 138.086Z" fill="#22A7F0"/>
<g opacity="0.3">
<path opacity="0.3" d="M47.7212 139.587L36.2982 142.746C35.2187 143.043 34.5751 144.149 34.8486 145.234L35.1274 146.341C35.4009 147.427 36.4915 148.095 37.5838 147.847L49.1489 145.21C45.5373 145.767 40.8739 145.966 40.4803 144.404C40.0866 142.843 44.2794 140.809 47.7212 139.587Z" fill="#371A45"/>
</g>
<g opacity="0.6">
<path opacity="0.6" d="M53.815 137.903L51.9462 138.42C55.6171 137.718 61.4518 137.251 61.894 139.008C62.3363 140.762 56.9759 143.117 53.4107 144.239L55.3036 143.808C58.4244 143.096 66.0745 140.169 65.55 138.086C65.0244 136.002 56.9006 137.05 53.815 137.903Z" fill="white"/>
</g>
<path d="M37.1349 148.766C37.3469 148.766 37.5621 148.743 37.7763 148.694L55.496 144.655C58.0219 144.079 64.6646 141.745 66.111 139.384C66.4993 138.751 66.4785 138.213 66.3925 137.872C66.3065 137.532 66.0699 137.048 65.4279 136.674C63.0351 135.282 56.0798 136.375 53.5829 137.065L36.0656 141.906C34.5433 142.327 33.6193 143.915 34.0055 145.446L34.2843 146.553C34.6165 147.871 35.8231 148.766 37.1349 148.766ZM64.7052 138.298C64.6924 138.367 64.4563 139.239 61.2271 140.768C58.9956 141.824 56.4916 142.645 55.1099 142.959L37.3902 146.998C36.7658 147.141 36.1275 146.75 35.971 146.128L35.6922 145.021C35.5352 144.399 35.9112 143.753 36.5297 143.583L54.047 138.741C55.4133 138.363 58.0069 137.898 60.4724 137.771C64.0403 137.587 64.6609 138.243 64.7052 138.298Z" fill="#371A45"/>
<g opacity="0.3">
<path opacity="0.3" d="M32.8841 80.7168L21.461 83.8761C20.3816 84.173 19.738 85.2787 20.0114 86.364L20.2902 87.4712C20.5637 88.5565 21.6544 89.2247 22.7466 88.9768L34.3118 86.3399C30.7001 86.8965 26.0368 87.0957 25.6431 85.534C25.2495 83.9722 29.4423 81.9394 32.8841 80.7168Z" fill="#371A45"/>
</g>
<path d="M22.2979 89.8962C22.51 89.8962 22.7252 89.8727 22.9394 89.8241L40.6591 85.7851C43.1849 85.2093 49.8277 82.8753 51.2741 80.5145C51.6624 79.8816 51.6416 79.3427 51.5556 79.0024C51.4701 78.6622 51.233 78.1783 50.591 77.8044C48.1987 76.412 41.2435 77.5048 38.7459 78.1948L21.2292 83.0366C19.707 83.4569 18.7829 85.0448 19.1686 86.5761L19.4474 87.6828C19.7796 89.0016 20.9862 89.8962 22.2979 89.8962ZM49.8683 79.4281C49.8555 79.4975 49.6194 80.3687 46.3902 81.8978C44.1586 82.9543 41.6547 83.7747 40.273 84.0893L22.5532 88.1283C21.9283 88.2709 21.2906 87.8805 21.1341 87.2582L20.8553 86.1515C20.6983 85.5293 21.0743 84.8835 21.6928 84.7126L39.2096 79.8709C40.5758 79.4933 43.1695 79.0286 45.6355 78.9015C49.2028 78.7167 49.824 79.3731 49.8683 79.4281Z" fill="#371A45"/>
<path d="M97.886 71.5204C72.724 77.8619 53.5701 90.311 46.1508 95.6527C44.1104 97.1215 43.1725 99.6836 43.7873 102.121L48.5954 121.198C49.2096 123.636 51.2499 125.447 53.7426 125.773C62.8076 126.96 85.5736 128.844 110.736 122.503C156.075 111.075 176.172 85.2519 174.667 79.2794C173.161 73.307 143.226 60.0936 97.886 71.5204Z" fill="white"/>
<path d="M73.3064 127.847C83.8546 127.847 97.0531 126.847 110.947 123.345C135.832 117.074 151.803 106.925 160.82 99.5167C171.612 90.6483 176.379 82.5165 175.509 79.0666C174.64 75.6168 166.589 70.7152 152.882 68.0217C141.432 65.771 122.559 64.4052 97.6737 70.6773C72.2323 77.0893 52.8114 89.7857 45.6426 94.9469C43.2978 96.6352 42.2381 99.5344 42.9442 102.334L47.7523 121.411C48.4579 124.209 50.7647 126.26 53.6297 126.636C57.604 127.155 64.5406 127.847 73.3064 127.847ZM132.453 67.8732C140.616 67.8732 147.356 68.708 152.547 69.7282C166.051 72.3822 173.227 77.1235 173.824 79.4918C174.421 81.8606 170.35 89.4359 159.716 98.1734C150.838 105.469 135.096 115.466 110.523 121.659C85.3715 127.998 62.5147 126.045 53.8551 124.911C51.7021 124.629 49.9678 123.088 49.438 120.985L44.6299 101.909C44.1001 99.8052 44.8959 97.627 46.6584 96.358C53.7467 91.2551 72.9475 78.7024 98.0983 72.3635C111.36 69.021 122.883 67.8732 132.453 67.8732Z" fill="#371A45"/>
<path d="M43.5473 101.172L40.9504 101.826C38.9432 102.332 37.726 104.37 38.2318 106.377L41.6865 120.084C42.1928 122.093 44.2304 123.308 46.2376 122.802L48.8345 122.148L43.5473 101.172Z" fill="#FFDA00"/>
<g opacity="0.3">
<path opacity="0.3" d="M41.4119 114.873C41.9182 116.882 43.9559 118.097 45.9631 117.591L47.5831 117.183L48.8345 122.148L46.2376 122.802C44.2304 123.308 42.1928 122.092 41.6865 120.083L38.2318 106.377C37.9909 105.42 38.1447 104.459 38.5854 103.657L41.4119 114.873Z" fill="#371A45"/>
</g>
<g opacity="0.7">
<path opacity="0.7" d="M43.5476 101.172L40.9503 101.827C38.9425 102.333 37.7269 104.371 38.2322 106.376L38.8036 108.644C38.2984 106.638 39.514 104.6 41.5218 104.094L44.1191 103.439L43.5476 101.172Z" fill="white"/>
</g>
<path d="M34.013 105.378C32.9945 105.635 32.3776 106.668 32.6345 107.686L36.1366 121.582C36.3935 122.601 37.426 123.218 38.4445 122.961C38.7805 122.876 39.0849 122.703 39.3296 122.456L41.6855 120.083L38.2309 106.376L35.031 105.403C34.6993 105.302 34.349 105.294 34.013 105.378Z" fill="#371A45"/>
<g opacity="0.7">
<path opacity="0.7" d="M34.0141 105.379C32.9956 105.636 32.3771 106.668 32.634 107.686L33.1334 109.668C32.8765 108.65 33.495 107.618 34.5135 107.361C34.85 107.276 35.1988 107.285 35.5315 107.385L38.7319 108.358L38.2325 106.376L35.0327 105.405C34.6994 105.303 34.3501 105.295 34.0141 105.379Z" fill="white"/>
</g>
<g opacity="0.7">
<path opacity="0.7" d="M38.5026 123.191C37.484 123.448 36.4505 122.832 36.1936 121.813L35.6942 119.831C35.9511 120.85 36.9846 121.466 38.0032 121.209C38.3397 121.124 38.643 120.951 38.8887 120.706L41.2452 118.332L41.7446 120.314L39.3876 122.686C39.1424 122.933 38.8391 123.106 38.5026 123.191Z" fill="white"/>
</g>
<path d="M132.739 67.0166C133.402 73.803 134.656 81.0595 136.533 88.5082C138.477 96.2203 140.912 103.435 143.659 109.894C165.843 97.8702 175.74 83.5351 174.668 79.2798C173.593 75.0165 158.04 67.0663 132.739 67.0166Z" fill="#E81818"/>
<g opacity="0.3">
<path opacity="0.3" d="M118.226 118.222C118.254 118.215 118.281 118.208 118.309 118.201C117.999 118.296 117.684 118.388 117.371 118.481C117.168 118.541 116.966 118.603 116.762 118.663C116.323 118.792 115.878 118.919 115.433 119.046C115.214 119.108 114.996 119.172 114.774 119.234C114.289 119.369 113.799 119.502 113.307 119.635C113.13 119.683 112.955 119.732 112.777 119.78C112.101 119.959 111.42 120.136 110.733 120.309C85.5707 126.651 62.8052 124.768 53.7413 123.581C52.9183 123.473 52.1459 123.2 51.4564 122.799C50.0575 121.986 49.0048 120.637 48.593 119.005L43.7849 99.9276C43.7518 99.7962 43.7251 99.6638 43.7016 99.5319C43.6861 99.6194 43.6696 99.707 43.6573 99.7952C43.676 99.66 43.6973 99.5249 43.7251 99.3914C43.7251 99.3898 43.7256 99.3887 43.7262 99.3871C43.7534 99.2563 43.786 99.1265 43.8212 98.9983C43.8325 98.9587 43.8442 98.9192 43.856 98.8797C43.8843 98.7857 43.9142 98.6922 43.9468 98.5998C43.9606 98.5603 43.974 98.5208 43.989 98.4812C44.0354 98.3568 44.0851 98.2334 44.1396 98.1122C44.1433 98.1036 44.1481 98.0951 44.1519 98.0865C44.2042 97.9717 44.2608 97.859 44.3201 97.7474C44.3404 97.7094 44.3618 97.6721 44.3826 97.6347C44.4301 97.5498 44.4798 97.4659 44.5316 97.3831C44.554 97.3473 44.5759 97.311 44.5994 97.2758C44.6731 97.1636 44.749 97.0525 44.8302 96.9446C45.196 96.4586 45.6383 96.0222 46.1494 95.6542C53.5677 90.3131 72.721 77.8629 97.8831 71.5214C100.491 70.8644 103.05 70.2881 105.552 69.7871C83.7958 75.0727 51.4783 89.9819 56.3376 109.262C56.3456 109.294 56.3542 109.327 56.3622 109.359C57.5709 114.039 61.7658 117.325 66.5953 117.524C71.4781 117.725 77.2081 117.738 83.5048 117.346C79.7905 114.634 76.9624 110.666 75.7532 105.869C73.003 94.9556 79.6436 83.8391 90.5572 81.0889C101.472 78.3383 112.587 84.9794 115.338 95.8929C116.87 101.971 115.486 108.109 112.077 112.833C146.539 103.833 166.11 86.5315 172.445 76.4742C173.571 77.3843 174.288 78.2501 174.577 79.0134C172.706 86.8152 154.689 107.102 118.226 118.222Z" fill="#371A45"/>
</g>
<g opacity="0.6">
<path opacity="0.6" d="M145.559 67.4867C152.627 68.3189 158.557 69.7706 163.186 71.437C170.125 73.9351 174.14 76.9144 174.667 79.006C175.039 80.4817 174.091 83.1699 171.77 86.553C173.083 84.2039 173.584 82.3399 173.296 81.1996C172.758 79.0647 168.586 76.0053 161.379 73.4763C159.524 74.3795 156.491 74.5295 153.273 73.7092C150.288 72.948 147.844 71.53 146.55 69.9875C142.435 69.4026 137.899 69.0271 132.977 68.9513C132.892 68.2105 132.81 67.4723 132.739 66.7422C137.346 66.7518 141.627 67.0237 145.559 67.4867Z" fill="white"/>
</g>
<path d="M45.3123 123.788C45.691 123.788 46.0723 123.741 46.4494 123.645L49.8896 122.779L44.1778 100.116L40.7376 100.984C38.2684 101.606 36.766 104.121 37.3882 106.59L40.8429 120.297C41.1446 121.494 41.894 122.501 42.9531 123.133C43.6779 123.566 44.4892 123.788 45.3123 123.788ZM47.7783 121.518L46.0243 121.96C45.2787 122.148 44.5047 122.034 43.844 121.64C43.1839 121.246 42.7165 120.618 42.5285 119.871L39.0739 106.165C38.6861 104.626 39.6229 103.058 41.1623 102.669L42.9163 102.227L47.7783 121.518Z" fill="#371A45"/>
<path d="M37.9805 123.89C38.2038 123.89 38.4307 123.862 38.6572 123.805C39.147 123.682 39.5935 123.427 39.9476 123.069L42.6492 120.348L38.9547 105.689L35.2854 104.573C34.8047 104.425 34.2914 104.413 33.8016 104.537C32.3205 104.91 31.4189 106.419 31.7923 107.9L35.2944 121.796C35.6101 123.051 36.7414 123.89 37.9805 123.89ZM40.7226 119.82L38.7122 121.844C38.5798 121.978 38.4142 122.073 38.2321 122.118C37.6803 122.257 37.1184 121.922 36.9796 121.37L33.4774 107.474C33.3385 106.922 33.6739 106.361 34.2257 106.222C34.4078 106.176 34.5985 106.181 34.7774 106.235L37.5083 107.066L40.7226 119.82Z" fill="#371A45"/>
<path d="M93.5027 79.6925C89.5898 80.6785 86.2521 82.7775 83.7418 85.5651C79.5202 90.2562 77.6385 96.8947 79.2964 103.473C80.7369 109.188 84.551 113.676 89.4237 116.152C93.4926 118.22 98.3017 118.883 103.077 117.679C113.568 115.035 119.93 104.389 117.286 93.8983C114.642 83.4073 103.994 77.0486 93.5027 79.6925Z" fill="#E81818"/>
<g opacity="0.6">
<path opacity="0.6" d="M78.7133 97.6456C79.3286 93.9303 81.0057 90.4799 83.499 87.7095C86.0088 84.9219 89.347 82.8229 93.2604 81.8374C103.751 79.192 114.399 85.5522 117.043 96.0421C117.512 97.9083 117.698 99.7777 117.625 101.608C118.049 99.0358 117.963 96.338 117.284 93.6482C114.64 83.1577 103.994 76.7997 93.5018 79.4435C89.59 80.429 86.2523 82.528 83.7425 85.3156C80.721 88.673 78.8981 93.0287 78.7133 97.6456Z" fill="white"/>
</g>
<g opacity="0.25">
<path opacity="0.25" d="M79.296 103.473C80.7365 109.189 84.5506 113.677 89.4233 116.151C93.4927 118.22 98.3014 118.883 103.078 117.68C112.293 115.358 118.321 106.862 117.859 97.7181C116.126 104.431 110.872 110.013 103.672 111.827C98.8969 113.032 94.0883 112.369 90.0189 110.301C85.1462 107.825 81.3326 103.336 79.8921 97.6209C79.5716 96.3455 79.3815 95.0689 79.3195 93.8047C78.5248 96.8758 78.4676 100.181 79.296 103.473Z" fill="#371A45"/>
</g>
<path d="M98.2915 119.099C99.9382 119.099 101.61 118.898 103.278 118.478C108.565 117.145 113.016 113.834 115.812 109.154C118.608 104.474 119.414 98.9845 118.082 93.6978C115.331 82.7843 104.215 76.1431 93.3018 78.8938C82.3883 81.6445 75.7477 92.761 78.4978 103.674C80.8276 112.919 89.163 119.099 98.2915 119.099ZM98.323 79.9129C101.67 79.9129 104.966 80.815 107.914 82.5765C112.217 85.1472 115.262 89.2396 116.487 94.1C119.016 104.133 112.91 114.354 102.876 116.883C92.8425 119.411 82.6222 113.306 80.0938 103.272C77.5647 93.239 83.6707 83.0188 93.704 80.4897C95.2343 80.1036 96.7842 79.9129 98.323 79.9129Z" fill="#371A45"/>
<path d="M84.4103 102.184C85.6131 106.962 89.0891 110.566 93.3941 112.138C94.9996 112.724 96.7227 113.027 98.4842 113.002C99.5764 112.986 100.684 112.845 101.788 112.567C102.721 112.332 103.608 112.009 104.445 111.611C106.805 110.492 108.758 108.769 110.161 106.683C112.352 103.429 113.203 99.2923 112.169 95.1888C111.001 90.5548 107.695 87.0238 103.569 85.383C101.25 84.4579 98.6743 84.1326 96.0705 84.5455C95.6454 84.6117 95.2181 84.6977 94.7902 84.8061C93.9672 85.0134 93.1783 85.2884 92.4289 85.6249C90.0676 86.6809 88.0957 88.334 86.6509 90.3524C84.2874 93.6543 83.3389 97.9378 84.4103 102.184Z" fill="#22A7F0"/>
<path d="M83.9905 99.3973C84.0375 100.321 84.1758 101.253 84.4103 102.185C85.6131 106.963 89.0891 110.567 93.3941 112.139C94.9996 112.724 96.7227 113.028 98.4842 113.003C99.5764 112.987 100.684 112.846 101.788 112.567C102.721 112.333 103.608 112.01 104.445 111.612C106.805 110.493 108.758 108.769 110.161 106.684C112.352 103.429 113.203 99.2931 112.169 95.1895C112.151 95.1153 112.13 95.041 112.11 94.9668C112.269 98.1149 111.376 101.159 109.682 103.676C108.279 105.761 106.326 107.485 103.966 108.604C103.129 109.002 102.242 109.325 101.309 109.559C100.205 109.838 99.0979 109.979 98.0051 109.995C96.243 110.02 94.52 109.716 92.915 109.131C88.6763 107.582 85.2414 104.065 83.9905 99.3973Z" fill="#22A7F0"/>
<mask id="mask0_347_130" style="mask-type:alpha" maskUnits="userSpaceOnUse" x="96" y="84" width="15" height="28">
<path d="M96.0714 84.5455L104.445 111.611C106.805 110.492 108.759 108.769 110.162 106.683L103.57 85.383C101.251 84.4579 98.6747 84.1326 96.0714 84.5455Z" fill="url(#paint0_linear_347_130)"/>
</mask>
<g mask="url(#mask0_347_130)">
<path opacity="0.7" d="M96.0714 84.5455L104.445 111.611C106.805 110.492 108.759 108.769 110.162 106.683L103.57 85.383C101.251 84.4579 98.6747 84.1326 96.0714 84.5455Z" fill="url(#paint1_linear_347_130)"/>
</g>
<mask id="mask1_347_130" style="mask-type:alpha" maskUnits="userSpaceOnUse" x="86" y="85" width="15" height="29">
<path d="M86.6519 90.3524L93.3945 112.138C95.0001 112.724 96.7231 113.027 98.4846 113.003L100.689 112.319L92.4294 85.625C90.0686 86.6809 88.0967 88.334 86.6519 90.3524Z" fill="url(#paint2_linear_347_130)"/>
</mask>
<g mask="url(#mask1_347_130)">
<path opacity="0.7" d="M86.6519 90.3524L93.3945 112.138C95.0001 112.724 96.7231 113.027 98.4846 113.003L100.689 112.319L92.4294 85.625C90.0686 86.6809 88.0967 88.334 86.6519 90.3524Z" fill="url(#paint3_linear_347_130)"/>
<path d="M98.2909 113.825C99.5124 113.825 100.752 113.676 101.989 113.365C110.082 111.325 115.007 103.081 112.967 94.9873C110.927 86.8939 102.684 81.9688 94.59 84.0086C86.4966 86.0484 81.5716 94.2924 83.6113 102.386C85.3397 109.242 91.5215 113.825 98.2909 113.825ZM98.2882 85.1938C104.323 85.1938 109.831 89.2781 111.372 95.3895C113.19 102.603 108.8 109.95 101.587 111.769C94.3726 113.587 87.0259 109.197 85.2078 101.984C83.3897 94.7699 87.7796 87.4221 94.9927 85.604C96.0946 85.3268 97.2002 85.1938 98.2882 85.1938Z" fill="#371A45"/>
</g>
<path d="M86.6502 44.417C86.6502 44.417 96.7732 56.896 101.121 45.4911L110.054 50.9241C110.054 50.9241 107.866 63.7529 97.1947 64.051C90.7778 64.2299 88.4277 58.5357 88.4277 58.5357L86.6502 44.417Z" fill="white"/>
<g opacity="0.35">
<path opacity="0.35" d="M97.1947 64.0512C90.7789 64.2312 88.4283 58.5354 88.4283 58.5354C88.3391 57.7332 89.3213 57.2701 89.8763 57.856C91.2554 59.3115 93.4912 60.8038 96.824 60.7103C104.362 60.5004 109.348 53.5415 102.331 49.0068L110.053 50.9238C110.054 50.9238 107.866 63.7537 97.1947 64.0512Z" fill="#371A45"/>
</g>
<path d="M86.4253 44.599C87.0336 46.1933 88.1793 47.371 89.4259 48.4313C90.0599 48.9526 90.7446 49.4226 91.4774 49.829C92.2102 50.2355 92.9858 50.5923 93.8227 50.8476C94.6559 51.1029 95.5752 51.2375 96.5083 51.1189C97.4408 51.0078 98.3499 50.612 99.0699 50.0464C99.2643 49.9166 99.4224 49.7569 99.5858 49.601C99.7492 49.445 99.917 49.2912 100.048 49.116L100.466 48.6032L100.82 48.0622L100.995 47.7903L101.143 47.5099L101.438 46.948C101.616 46.5688 101.768 46.1832 101.933 45.8002L100.668 46.2334L109.601 51.6664L109.196 50.7776C109.147 51.0441 109.074 51.3603 109.001 51.653C108.926 51.9511 108.842 52.2491 108.753 52.545C108.574 53.1373 108.37 53.7227 108.142 54.298C107.688 55.449 107.133 56.5557 106.476 57.5876C105.809 58.6099 105.052 59.5723 104.159 60.3735C103.271 61.1773 102.275 61.853 101.184 62.3187C100.094 62.7845 98.923 63.0569 97.7271 63.1439C97.4275 63.1637 97.1268 63.192 96.8351 63.1706L96.394 63.1584C96.2471 63.1541 96.0991 63.1573 95.956 63.1284C95.6681 63.0825 95.377 63.0521 95.0918 62.9976L94.2511 62.7733C93.9824 62.6648 93.7106 62.566 93.4435 62.4555C93.1893 62.3171 92.9249 62.1975 92.676 62.0479C92.1841 61.7398 91.7263 61.375 91.3236 60.9519C90.4776 60.139 89.779 59.238 88.6947 58.4245L88.6637 58.401C88.5243 58.2963 88.3267 58.3246 88.222 58.464C88.1809 58.5185 88.1606 58.5821 88.159 58.6451C88.1392 59.4153 88.3801 60.0845 88.7257 60.6934C89.0803 61.2954 89.5258 61.8498 90.0636 62.307C91.1388 63.2112 92.3561 63.9825 93.7074 64.4242C94.0465 64.5214 94.39 64.6079 94.7313 64.6982C95.0768 64.765 95.4267 64.805 95.7744 64.8574C95.9485 64.8899 96.1232 64.8883 96.2978 64.8942L96.8212 64.9092C97.1732 64.9311 97.514 64.9006 97.8569 64.8777C99.2264 64.7783 100.596 64.4621 101.873 63.9147C103.152 63.3683 104.315 62.5788 105.332 61.6564C106.356 60.7356 107.203 59.6556 107.94 58.5244C108.666 57.3846 109.269 56.1802 109.759 54.9368C110.005 54.315 110.225 53.6848 110.418 53.0449C110.514 52.725 110.605 52.4029 110.686 52.0771C110.769 51.746 110.843 51.4346 110.91 51.0687L111.016 50.4908L110.505 50.1799L101.572 44.747L100.723 44.2305L100.308 45.1801C100.161 45.5166 100.026 45.8622 99.871 46.1928L99.6189 46.6724L99.4934 46.9128L99.3487 47.1344L99.0602 47.5788L98.7339 47.9773C98.6313 48.1188 98.5058 48.2272 98.3857 48.3421C98.2655 48.4569 98.1501 48.5797 98.0134 48.6647C97.5012 49.0653 96.919 49.3163 96.2909 49.3937C95.6633 49.4738 94.9914 49.3895 94.3285 49.1822C92.9906 48.7656 91.7707 47.8779 90.5903 46.9742L89.7026 46.2783C89.4104 46.0384 89.1172 45.7981 88.8154 45.5631C88.2113 45.0947 87.5827 44.6343 86.8745 44.2337L86.859 44.2251C86.7126 44.1423 86.5268 44.1936 86.4434 44.34C86.3986 44.4222 86.3948 44.5178 86.4253 44.599Z" fill="#371A45"/>
<path d="M99.3691 44.8543C99.6992 51.4736 106.198 52.0894 108.037 51.9938C111.872 51.793 113.783 48.5749 113.783 48.5749L111.563 44.1076L110.648 41.7442L109.166 40.975C108.357 38.4925 106.21 35.4448 104.53 36.0596C104.529 36.0601 99.0845 39.1489 99.3691 44.8543Z" fill="white"/>
<g opacity="0.35">
<path opacity="0.35" d="M114.713 46.6334C114.341 48.6059 111.419 49.9075 105.979 48.2091C104.062 47.6108 102.709 45.9353 103.082 43.9629C103.454 41.9904 105.355 40.693 107.328 41.0658C109.3 41.4381 115.086 44.6609 114.713 46.6334Z" fill="#371A45"/>
</g>
<path d="M115.723 40.2125C113.985 41.4025 112.503 42.2416 112.503 42.2416L107.613 45.6616L106.123 38.3848C106.123 38.3848 106.364 37.0185 106.81 35.2341C107.692 31.7004 109.374 26.5296 111.556 27.083C115.48 28.0796 110.878 38.0403 110.878 38.0403C110.878 38.0403 118.812 30.7865 120.898 33.6665C122.118 35.3516 118.576 38.2561 115.723 40.2125Z" fill="white"/>
<g opacity="0.35">
<path opacity="0.35" d="M115.723 40.2128C113.985 41.4028 112.503 42.2419 112.503 42.2419L107.613 45.6619L106.123 38.3851C106.123 38.3851 106.364 37.0188 106.811 35.2344C107.716 36.2764 109.413 38.1784 109.935 39.2189C110.835 41.0119 114.179 39.6007 115.723 40.2128Z" fill="#371A45"/>
</g>
<path d="M107.611 46.5323C107.787 46.5323 107.962 46.4789 108.11 46.3753L112.967 42.9778C113.973 42.4057 121.26 38.1654 121.953 34.9826C122.1 34.3097 121.978 33.6789 121.601 33.1581C121.175 32.5695 120.546 32.2175 119.783 32.1396C117.806 31.9387 114.982 33.6917 112.917 35.2374C113.735 32.8163 114.488 29.6159 113.602 27.7566C113.229 26.9752 112.595 26.4513 111.768 26.2414C111.154 26.0854 110.523 26.2008 109.943 26.5752C107.075 28.4275 105.441 37.235 105.265 38.2327C105.245 38.3406 105.247 38.4512 105.269 38.5585L106.759 45.8369C106.818 46.1237 107.017 46.3619 107.289 46.4703C107.394 46.512 107.503 46.5323 107.611 46.5323ZM119.43 33.8605C119.492 33.8605 119.55 33.8631 119.608 33.869C119.955 33.9043 120.103 34.0528 120.194 34.1777C120.253 34.2595 120.307 34.3754 120.256 34.612C119.85 36.4734 115.023 39.8153 112.075 41.4849C112.051 41.4983 112.028 41.5132 112.005 41.5293L108.198 44.1918L107.007 38.3737C107.646 34.8721 109.23 29.1063 110.888 28.0354C111.109 27.8928 111.247 27.9025 111.341 27.9265C111.669 28.0098 111.882 28.1882 112.033 28.5044C112.88 30.2814 111.289 35.074 110.087 37.6778C109.913 38.0533 110.029 38.4998 110.363 38.7439C110.697 38.9885 111.157 38.9634 111.463 38.684C113.547 36.7799 117.477 33.8605 119.43 33.8605Z" fill="#371A45"/>
<path d="M114.671 47.9857C113.4 49.3829 109.132 49.3418 107.824 47.8639C106.711 46.6056 108.256 45.5624 108.69 45.3045C108.757 45.2633 108.798 45.243 108.798 45.243C108.798 45.243 107.304 44.4574 107.278 43.0687C107.277 42.9789 107.281 42.8865 107.294 42.7899C107.488 41.2302 111.856 40.6764 113.668 41.3301C115.023 41.8188 115.448 42.4886 115.465 43.1221C115.483 43.7967 115.037 44.4307 114.756 44.7618C114.627 44.913 114.534 44.9995 114.534 44.9995C114.534 44.9995 115.69 46.8667 114.671 47.9857Z" fill="white"/>
<g opacity="0.35">
<path opacity="0.35" d="M114.755 44.762C113.544 45.1188 111.15 45.6625 108.689 45.3042C108.756 45.263 108.797 45.2427 108.797 45.2427C108.797 45.2427 107.303 44.4571 107.277 43.0684C108.681 43.6655 112.61 45.0398 115.464 43.1223C115.482 43.7969 115.036 44.4309 114.755 44.762Z" fill="#371A45"/>
</g>
<g opacity="0.35">
<path opacity="0.35" d="M114.671 47.9851C113.4 49.3824 109.132 49.3412 107.824 47.8633C107.276 47.2454 107.372 46.6797 107.662 46.2327C107.717 46.3235 107.786 46.4164 107.869 46.5104C109.175 47.9878 113.443 48.0294 114.714 46.6338C114.846 46.4891 114.942 46.332 115.007 46.167C115.147 46.7545 115.153 47.4531 114.671 47.9851Z" fill="#371A45"/>
</g>
<path d="M111.382 49.8259C113.091 49.8259 114.544 49.3473 115.279 48.5398C116.213 47.5153 115.952 46.0908 115.524 45.122C115.932 44.5948 116.446 43.6986 116.242 42.7067C116.047 41.7576 115.275 41.0339 113.947 40.5553C112.417 40.003 109.238 40.1542 107.584 41.1701C106.762 41.6753 106.529 42.2751 106.477 42.6896C106.337 43.8241 106.886 44.676 107.436 45.2272C107.081 45.5717 106.743 46.0321 106.639 46.5929C106.556 47.0346 106.588 47.7087 107.208 48.4089C107.982 49.2832 109.518 49.8125 111.317 49.8254C111.339 49.8259 111.36 49.8259 111.382 49.8259ZM113.389 42.1037C114.118 42.3665 114.558 42.6982 114.63 43.0368C114.727 43.4988 114.226 44.1558 113.968 44.402C113.686 44.6706 113.628 45.1027 113.833 45.4339C113.839 45.4451 114.629 46.8092 114.062 47.4325C113.647 47.8887 112.561 48.1953 111.328 48.1808C110.048 48.1718 108.888 47.8256 108.44 47.3193C108.223 47.0747 108.247 46.946 108.255 46.8974C108.316 46.5667 108.841 46.1501 109.178 45.9728C109.448 45.8302 109.618 45.5493 109.618 45.2437C109.618 44.9382 109.45 44.6573 109.18 44.5152C109.172 44.5109 107.99 43.8609 108.11 42.8926C108.114 42.8584 108.183 42.7345 108.445 42.5732C109.613 41.8553 112.263 41.6978 113.389 42.1037Z" fill="#371A45"/>
<path d="M111.158 46.0727C113.147 46.0727 114.634 45.5476 114.719 45.5167C115.004 45.4136 115.152 45.0995 115.049 44.8143C114.946 44.5296 114.632 44.3822 114.347 44.4847C114.3 44.5013 111.703 45.4045 108.931 44.7112C108.636 44.638 108.339 44.8164 108.265 45.1102C108.192 45.404 108.371 45.702 108.664 45.7752C109.536 45.9931 110.385 46.0727 111.158 46.0727Z" fill="#371A45"/>
<path d="M104.53 36.0607C106.76 35.2441 109.81 40.8758 109.469 43.0801C109.209 44.7631 106.965 45.7843 105.001 43.2034C103.011 40.5884 101.028 37.3432 104.53 36.0607Z" fill="white"/>
<path d="M113.783 48.5755C113.783 48.5755 111.872 51.7925 108.037 51.9933C106.198 52.0895 99.6992 51.4736 99.3686 44.8538C99.0839 39.149 104.529 36.0607 104.529 36.0607C106.759 35.2441 109.809 40.8758 109.469 43.0801C109.209 44.7631 106.544 45.2416 105.018 41.9061C105.018 41.9061 105.61 44.786 102.924 46.1678L107.841 50.3878L112.168 50.3611L113.783 48.5755Z" fill="white"/>
<path d="M104.257 45.0924L104.159 45.0086C104.255 44.9594 104.342 44.9108 104.427 44.8574C104.374 44.9354 104.319 45.0144 104.257 45.0924Z" fill="white"/>
<g opacity="0.35">
<path opacity="0.35" d="M105.199 41.4266C105.109 40.2905 107.693 43.6271 109.441 43.2255C109.108 44.5688 107.17 45.0196 105.693 43.0567C105.751 42.1669 105.199 41.4266 105.199 41.4266Z" fill="#371A45"/>
</g>
<g opacity="0.35">
<path opacity="0.35" d="M111.439 50.3644L112.169 50.3607C111.216 51.1394 109.838 51.8995 108.038 51.994C106.198 52.0901 99.6993 51.4732 99.3697 44.8534C99.1758 40.9715 101.637 38.2993 103.229 36.9902C101.853 38.4761 100.456 40.7338 100.603 43.695C100.933 50.3142 107.431 50.9316 109.271 50.8355C110.079 50.7922 110.802 50.6171 111.439 50.3644Z" fill="#371A45"/>
</g>
<path d="M113.781 48.5781C113.762 48.6102 113.611 48.8559 113.328 49.203L113.216 49.2041L113.781 48.5781Z" fill="white"/>
<path d="M113.402 49.2021C113.332 49.2598 113.259 49.3186 113.183 49.3752C113.233 49.3159 113.282 49.2577 113.327 49.2027L113.402 49.2021Z" fill="white"/>
<path d="M101.365 49.4731C100.7 48.3141 100.353 47.1428 100.251 45.9346C100.223 45.6334 100.208 45.3311 100.207 45.0266C100.197 44.7206 100.239 44.4263 100.248 44.1288C100.286 43.5365 100.405 42.9543 100.58 42.3918C100.6 42.3213 100.614 42.2487 100.639 42.1793L100.721 41.9731L100.882 41.5602C100.994 41.2868 101.149 41.0299 101.271 40.7596C101.429 40.5054 101.574 40.2436 101.746 39.9969C101.928 39.756 102.085 39.4991 102.288 39.271C102.662 38.7935 103.097 38.3582 103.546 37.9406C103.774 37.7339 104.01 37.5378 104.252 37.3488C104.374 37.2596 104.496 37.1629 104.619 37.0785C104.738 36.9941 104.877 36.9017 104.973 36.8424L104.839 36.9044C104.933 36.8697 105.039 36.8611 105.216 36.9129C105.387 36.9647 105.599 37.0796 105.802 37.2361C106.211 37.5533 106.606 37.9993 106.946 38.4837C107.626 39.4564 108.159 40.6068 108.431 41.7279C108.495 42.0057 108.54 42.2818 108.553 42.5296C108.559 42.6525 108.56 42.7705 108.548 42.8635L108.54 42.9334L108.523 42.9831C108.509 43.0136 108.514 43.0541 108.495 43.0787C108.451 43.1994 108.368 43.2774 108.266 43.3426C108.16 43.3997 108.027 43.4553 107.856 43.4424C107.817 43.451 107.772 43.4382 107.728 43.4307C107.683 43.4195 107.638 43.427 107.592 43.4067C107.499 43.3709 107.403 43.3538 107.306 43.2961L107.158 43.2267L107.012 43.1273C106.911 43.0707 106.82 42.981 106.726 42.8977C106.352 42.5531 106.02 42.089 105.73 41.5816L105.634 41.416C105.425 41.0491 104.957 40.9225 104.59 41.1324C104.26 41.3215 104.125 41.7189 104.254 42.0639C104.268 42.1018 104.29 42.2054 104.304 42.285C104.319 42.371 104.331 42.4586 104.339 42.5483C104.36 42.7267 104.364 42.9073 104.363 43.0889C104.357 43.4515 104.299 43.8115 104.191 44.1603C104.087 44.5117 103.919 44.8493 103.69 45.1612C103.583 45.3252 103.445 45.4646 103.311 45.6174C103.173 45.7658 103.011 45.8908 102.859 46.0398L102.844 46.0543C102.787 46.1109 102.786 46.2033 102.842 46.261C102.882 46.3021 102.94 46.3144 102.991 46.2978C103.411 46.1616 103.845 45.9832 104.213 45.6889C104.409 45.5549 104.577 45.3856 104.745 45.2114C104.895 45.0261 105.056 44.8381 105.176 44.6255C105.432 44.2084 105.609 43.7416 105.71 43.2625C105.756 43.0221 105.793 42.7791 105.806 42.5329C105.813 42.41 105.816 42.2856 105.813 42.16C105.81 42.0281 105.807 41.9208 105.784 41.7498L104.308 42.2321C104.581 42.8987 104.932 43.5669 105.481 44.1485C105.62 44.2922 105.756 44.438 105.928 44.5625L106.176 44.7542C106.266 44.8119 106.362 44.8653 106.456 44.9198C106.83 45.1377 107.284 45.2782 107.767 45.3118C108.248 45.3572 108.777 45.2355 109.23 44.9679C109.681 44.7014 110.071 44.2741 110.249 43.7757C110.305 43.6556 110.324 43.5284 110.358 43.4035C110.373 43.341 110.388 43.2769 110.399 43.216L110.417 43.0424C110.438 42.8111 110.432 42.6012 110.415 42.3993C110.38 41.9966 110.302 41.6297 110.207 41.275C109.807 39.874 109.177 38.6429 108.365 37.4785C107.953 36.9012 107.493 36.3404 106.876 35.8511C106.563 35.6108 106.211 35.3784 105.762 35.2267C105.323 35.0729 104.742 35.028 104.22 35.2187L104.218 35.2192C104.173 35.2358 104.126 35.2582 104.086 35.2807C103.896 35.3891 103.757 35.4783 103.603 35.5798C103.45 35.678 103.308 35.7833 103.16 35.8848C102.874 36.0952 102.594 36.3136 102.323 36.5444C101.788 37.0101 101.269 37.501 100.817 38.0607C100.579 38.3278 100.373 38.6269 100.162 38.919C99.9574 39.216 99.7801 39.5354 99.5931 39.8457C99.4355 40.1753 99.2646 40.4984 99.1348 40.8408L98.9506 41.3594L98.8598 41.6185C98.8325 41.706 98.8149 41.7968 98.7919 41.8855C98.4336 43.31 98.3956 44.8215 98.7706 46.2108C98.9575 46.9099 99.2486 47.5888 99.6513 48.1891C100.054 48.7884 100.567 49.3054 101.158 49.6766C101.227 49.7204 101.319 49.6996 101.363 49.6296C101.393 49.5799 101.391 49.5196 101.365 49.4731Z" fill="#371A45"/>
<path d="M113.036 48.1315C112.972 48.1855 112.88 48.2955 112.796 48.382L112.542 48.664C112.457 48.7586 112.366 48.8494 112.285 48.9477C112.197 49.0395 112.106 49.1303 112.023 49.2281C111.666 49.595 111.306 49.9657 110.901 50.2958C110.701 50.4661 110.487 50.6146 110.272 50.7738C110.045 50.902 109.827 51.0745 109.582 51.1867C109.108 51.4665 108.586 51.6524 108.03 51.8687L108.021 51.8725C107.955 51.8981 107.923 51.9723 107.948 52.038C107.965 52.0802 108.002 52.1091 108.043 52.1171C108.637 52.2303 109.27 52.2709 109.892 52.1748C110.207 52.1406 110.513 52.0594 110.823 51.9787C111.12 51.8719 111.434 51.7811 111.718 51.6332C112.299 51.3618 112.86 51.0227 113.333 50.5847C113.57 50.3673 113.795 50.1361 113.993 49.8797C114.095 49.7536 114.188 49.6206 114.277 49.4823C114.368 49.3381 114.44 49.2104 114.53 49.0198C114.731 48.5893 114.546 48.0765 114.115 47.8752C113.802 47.7288 113.445 47.787 113.196 47.9953L113.036 48.1315Z" fill="#371A45"/>
<path d="M99.8817 64.1617C99.9827 64.1617 100.085 64.159 100.189 64.1531C100.491 64.1366 100.723 63.8786 100.707 63.5758C100.69 63.2729 100.429 63.0443 100.13 63.0577C99.0261 63.118 98.2014 62.789 97.6091 62.0552C95.1457 59.0022 97.4627 50.3832 97.4862 50.2967C97.5663 50.0045 97.3938 49.7027 97.1017 49.6231C96.809 49.543 96.5077 49.7155 96.4282 50.0072C96.3251 50.3832 93.9413 59.2548 96.755 62.7431C97.5151 63.6853 98.5657 64.1617 99.8817 64.1617Z" fill="#371A45"/>
<path d="M81.6931 60.0758L81.6723 60.157L81.6862 60.0684C81.6888 60.0705 81.6915 60.0742 81.6931 60.0758Z" fill="#1D1D1D"/>
<path d="M47.6957 51.2747C48.6977 51.3826 49.7098 51.5054 50.7145 51.6384C51.7202 51.772 52.7238 51.9172 53.721 52.0887L53.7226 52.0892C53.9598 52.1298 54.1852 51.9707 54.2258 51.7335C54.2632 51.5172 54.1334 51.3105 53.9304 51.2453C52.9509 50.9291 51.9659 50.6396 50.9778 50.3614C49.9887 50.0842 49.0022 49.8187 48.0012 49.5634C47.5344 49.4443 47.0601 49.7263 46.941 50.1926C46.8219 50.6594 47.1039 51.1337 47.5702 51.2528C47.6092 51.263 47.6482 51.2699 47.6872 51.2742L47.6957 51.2747Z" fill="#371A45"/>
<path d="M104.666 36.8145C104.748 36.9031 104.821 37.0009 104.885 37.1066L104.666 36.8145Z" fill="#D66B09"/>
<path d="M54.336 65.5257L54.5427 71.4741C55.2546 77.6393 57.4589 82.2589 59.9762 84.7137C63.5985 88.2425 69.9657 88.6394 72.1299 90.8474C74.0282 92.7873 74.0356 95.7148 74.4581 98.708C74.8176 101.267 75.8821 104.502 78.5612 106.973C82.614 110.711 88.8263 110.002 91.6218 106.604C94.8105 102.723 88.5913 95.6715 87.7207 94.8212C87.7207 94.8212 88.5138 93.3551 89.2589 92.0278C91.1492 88.6613 89.6889 81.5239 85.4171 78.6413C84.2479 77.8525 82.9174 77.3381 81.5805 77.0086C77.7194 76.061 73.618 76.6443 70.0886 78.4918L69.2617 73.6543L68.3564 68.3634V68.3613L63.2823 38.6641C57.132 48.6856 54.6495 57.9023 54.336 65.5257Z" fill="white"/>
<g opacity="0.25">
<path opacity="0.25" d="M54.3357 65.5264L54.3367 65.5349L54.5424 71.4748C55.2543 77.64 57.4586 82.2617 59.9759 84.7144C63.5982 88.2432 69.9654 88.6401 72.1296 90.8481C74.0279 92.788 74.0353 95.7155 74.4578 98.7087C74.8173 101.268 75.8818 104.503 78.5609 106.974C82.6137 110.711 88.826 110.002 91.6215 106.604C92.6636 105.336 92.7015 103.729 92.2486 102.113C90.4161 108.294 83.2851 107.494 79.6115 104.108C76.9324 101.637 77.1054 95.998 76.7438 93.4386C76.3214 90.4454 76.316 87.5179 74.4156 85.578C72.253 83.37 65.8842 82.9732 62.264 79.4443C60.7546 77.9728 59.3585 75.7236 58.3292 72.8293C60.8401 73.4649 64.4464 73.9579 69.2609 73.6545C69.693 73.6299 70.1347 73.5952 70.5882 73.5562C70.5882 73.5562 73.45 70.3815 69.9809 68.1366C69.9809 68.1366 69.3656 68.2541 68.3561 68.362V68.3641C65.8618 68.6338 60.9581 68.8469 56.9443 67.0897C56.0133 66.6833 55.1288 66.1694 54.3357 65.5264Z" fill="#371A45"/>
</g>
<g opacity="0.25">
<path opacity="0.25" d="M54.5425 71.475L54.3368 65.5352C54.2487 67.6428 54.3278 69.6297 54.5425 71.475Z" fill="#371A45"/>
</g>
<g opacity="0.25">
<path opacity="0.25" d="M54.3358 65.5262C55.1294 66.1693 56.0134 66.6831 56.9449 67.0901C56.0823 61.0151 56.6832 53.3324 59.9685 44.6846C56.2105 52.3779 54.5873 59.4571 54.3358 65.5262Z" fill="#371A45"/>
</g>
<path d="M70.2153 78.7363C72.8827 77.8064 75.5922 77.2873 78.2954 77.4192C79.6419 77.4817 80.9761 77.7279 82.2542 78.1167C82.8898 78.3176 83.5051 78.5654 84.0836 78.8688C84.3741 79.0178 84.6556 79.1812 84.9253 79.3586C85.1764 79.554 85.4402 79.733 85.6843 79.9391C86.6559 80.7814 87.4293 81.8822 88.0082 83.0786C88.5899 84.2772 88.968 85.5858 89.1443 86.9077L89.1806 87.1555L89.1982 87.4039L89.233 87.9012C89.2511 88.2323 89.2324 88.5608 89.2335 88.8898C89.1742 89.5361 89.1058 90.1909 88.8949 90.7736C88.819 91.0829 88.6641 91.3355 88.5466 91.6132L88.0312 92.5511L86.9961 94.4301L86.7023 94.9637L87.1446 95.4102C87.4885 95.7574 87.8614 96.1938 88.201 96.6115C88.5456 97.0361 88.8762 97.473 89.1908 97.9195C89.8167 98.8131 90.3898 99.7435 90.8396 100.71C91.2839 101.673 91.6306 102.682 91.6872 103.656C91.7166 104.14 91.6733 104.61 91.5403 105.038C91.4041 105.471 91.1953 105.843 90.8721 106.201C89.5609 107.708 87.4987 108.546 85.4413 108.644C83.3679 108.756 81.2822 108.084 79.6585 106.815C79.4614 106.647 79.2579 106.491 79.0645 106.316C78.8786 106.13 78.681 105.955 78.5085 105.755C78.1426 105.376 77.8248 104.954 77.5134 104.528C76.9158 103.658 76.4207 102.712 76.0532 101.71C75.6788 100.711 75.4267 99.6613 75.2718 98.5984C75.118 97.505 75.0165 96.3781 74.8365 95.2217C74.6485 94.0707 74.3884 92.8615 73.7773 91.727C73.4691 91.1635 73.0873 90.6358 72.6076 90.1765L72.2215 89.841C72.0911 89.7348 71.9544 89.6568 71.8209 89.5638C71.5528 89.3726 71.2788 89.2439 71.0064 89.0949C69.913 88.5458 68.8213 88.1853 67.7525 87.8077C66.6838 87.4365 65.6337 87.0701 64.6269 86.6412C63.6206 86.2134 62.656 85.7257 61.7881 85.1286C61.5787 84.9715 61.3619 84.8225 61.1578 84.6601L60.5757 84.1463C60.3919 83.961 60.2135 83.7682 60.0319 83.5796L59.5251 82.9686C58.8729 82.1274 58.3174 81.1959 57.8357 80.2249C57.3555 79.2523 56.9384 78.2407 56.6077 77.1959C55.2559 73.0192 54.9103 68.5209 55.2506 64.107C55.5929 59.6824 56.6136 55.3101 58.1278 51.1195C58.5289 50.0796 58.9226 49.0359 59.3926 48.0243C59.8359 47.0009 60.3348 46.0032 60.7925 44.9857C61.7395 42.962 62.7426 40.9735 63.5154 38.8066L63.5165 38.8034C63.5683 38.6581 63.4925 38.4979 63.3472 38.446C63.2387 38.4071 63.1218 38.4402 63.0481 38.5198C62.6555 38.9444 62.288 39.3877 61.9377 39.8428C61.5787 40.2925 61.2551 40.7652 60.9447 41.2459C60.2995 42.1945 59.7606 43.2055 59.2244 44.2177C58.7186 45.2453 58.2261 46.2809 57.8106 47.3502C57.3699 48.4078 56.9715 49.484 56.5805 50.5608C55.0225 54.8716 53.9655 59.3859 53.6098 63.9825C53.2583 68.5695 53.6076 73.2643 55.0439 77.7076C55.3964 78.8186 55.8418 79.9044 56.3626 80.9582C56.8855 82.011 57.4922 83.0316 58.2261 83.9792L58.8024 84.673C59.0118 84.8925 59.218 85.1147 59.4327 85.3294L60.1217 85.9378C60.3599 86.1274 60.6082 86.2999 60.8518 86.4809C61.8479 87.1662 62.9124 87.6993 63.9854 88.1559C65.059 88.6126 66.1465 88.9907 67.2131 89.3614C68.2754 89.7342 69.3356 90.0931 70.2639 90.5626C70.4867 90.6855 70.727 90.7971 70.9182 90.9386C71.016 91.0075 71.1281 91.0684 71.2152 91.1416L71.4689 91.3622C71.8059 91.6837 72.0976 92.0806 72.3304 92.5079C72.7994 93.371 73.0403 94.4056 73.2128 95.4781C73.381 96.5559 73.4836 97.6824 73.6438 98.8286C73.8147 100.002 74.093 101.164 74.5123 102.283C74.9235 103.404 75.4822 104.477 76.1653 105.47C76.52 105.957 76.8853 106.439 77.3041 106.875C77.5028 107.103 77.7276 107.305 77.9418 107.518C78.1667 107.723 78.4108 107.913 78.6452 108.11C80.5814 109.626 83.0698 110.419 85.5209 110.287C86.7451 110.225 87.9623 109.954 89.0968 109.458C90.2285 108.963 91.2829 108.237 92.1161 107.279C92.5514 106.8 92.9194 106.17 93.1144 105.523C93.3168 104.87 93.3707 104.196 93.3312 103.554C93.249 102.262 92.8281 101.097 92.3319 100.014C91.8266 98.9295 91.207 97.9281 90.5367 96.9709C90.2002 96.4934 89.8477 96.0282 89.4802 95.5747C89.1053 95.117 88.7469 94.6892 88.2956 94.2325L88.4441 95.2126L89.4706 93.3486L89.9845 92.4139C90.1559 92.0416 90.3589 91.6709 90.4587 91.2858C90.7269 90.5215 90.8097 89.746 90.8764 88.9769C90.878 88.5944 90.8972 88.2099 90.8764 87.8301L90.8369 87.2613L90.8161 86.9771L90.7755 86.6962C90.5778 85.1948 90.1447 83.7377 89.5043 82.364C88.8585 80.9945 87.9778 79.7079 86.8182 78.6525C85.6416 77.5789 84.2294 76.8968 82.7883 76.4332C82.0662 76.2035 81.3345 76.0252 80.5894 75.9141C80.2187 75.8468 79.8438 75.8168 79.4704 75.7725C79.0955 75.7512 78.7205 75.7212 78.3451 75.725C75.3492 75.6817 72.339 76.5374 69.96 78.2503C69.8356 78.3395 69.8078 78.5125 69.897 78.637C69.9702 78.739 70.1 78.7758 70.2127 78.7368L70.2153 78.7363Z" fill="#371A45"/>
<path d="M73.4548 93.5525C73.5125 93.5525 73.5712 93.5434 73.6284 93.5242C73.9157 93.4285 74.0706 93.1177 73.975 92.8303C71.7718 86.2292 75.1362 82.2987 76.6851 80.9159C79.1591 78.7063 82.5545 77.8453 84.7593 78.8697C85.0338 78.9979 85.3602 78.8782 85.4878 78.6032C85.6155 78.3286 85.4964 78.0023 85.2213 77.8746C82.5962 76.6547 78.7847 77.5691 75.9539 80.0976C74.2432 81.6257 70.5247 85.959 72.934 93.1781C73.011 93.4072 73.2251 93.5525 73.4548 93.5525Z" fill="#371A45"/>
<path d="M87.52 93.4006C87.4623 93.4994 87.3603 93.6388 87.2705 93.7595C87.1744 93.8829 87.0783 94.0079 86.9736 94.1265C86.769 94.3689 86.5473 94.5997 86.3145 94.8181C85.8482 95.2556 85.3301 95.6401 84.7634 95.9478C84.1978 96.2629 83.5718 96.453 82.9191 96.5497L82.4229 96.5988L81.9214 96.5796C81.837 96.5748 81.7516 96.5754 81.6672 96.5663L81.4177 96.5198L80.9114 96.4253L81.3894 96.6245L81.6319 96.7249C81.7147 96.7527 81.7996 96.7703 81.8845 96.7933L82.3989 96.9236L82.9298 96.984C83.6407 97.032 84.3842 96.9695 85.0849 96.7559C85.7884 96.5503 86.4646 96.2431 87.0959 95.8628C87.4121 95.6727 87.7187 95.4655 88.013 95.2385C88.1625 95.1279 88.3051 95.0072 88.4493 94.8865C88.5951 94.7583 88.7255 94.6456 88.8846 94.4795L88.9124 94.4506C89.2478 94.1008 89.2361 93.5453 88.8862 93.2099C88.5364 92.8745 87.9809 92.8862 87.6455 93.2361C87.5964 93.2858 87.5536 93.3434 87.52 93.4006Z" fill="#371A45"/>
<path d="M91.836 70.2372C90.2337 70.2372 88.9347 68.9382 88.9347 67.3359C88.9347 65.7335 90.2337 64.4346 91.836 64.4346C93.4384 64.4346 94.7373 65.7335 94.7373 67.3359C94.7373 68.9382 93.4384 70.2372 91.836 70.2372Z" fill="white"/>
<g opacity="0.35">
<path opacity="0.35" d="M94.7334 67.4747C94.657 69.0754 93.2982 70.3119 91.6975 70.2355C90.0967 70.1591 88.8603 68.7977 88.9367 67.1975C88.958 66.7552 89.0771 66.3386 89.2747 65.9717C89.693 66.9726 90.6602 67.7001 91.8161 67.7551C92.9719 67.8106 94.0043 67.1788 94.5139 66.2222C94.6757 66.6062 94.7548 67.0324 94.7334 67.4747Z" fill="#371A45"/>
</g>
<path d="M91.838 71.0608C93.8105 71.0608 95.4603 69.5054 95.5559 67.5148C95.6035 66.5214 95.2611 65.5685 94.5924 64.8325C93.9237 64.0965 93.0077 63.6644 92.0142 63.6174C89.9638 63.5218 88.2146 65.1081 88.1163 67.1591C88.018 69.2101 89.607 70.9588 91.658 71.057C91.7183 71.0592 91.7782 71.0608 91.838 71.0608ZM91.8348 65.2582C91.8679 65.2582 91.9015 65.2587 91.9352 65.2603C92.4896 65.287 93.0007 65.5279 93.3741 65.9386C93.7474 66.3494 93.9387 66.8813 93.9119 67.4358C93.8569 68.5804 92.8838 69.4649 91.7365 69.4125C90.5919 69.3575 89.7053 68.3817 89.7598 67.2371C89.8132 66.1261 90.734 65.2582 91.8348 65.2582Z" fill="#371A45"/>
<path d="M88.4708 74.3807L73.1338 74.5585C71.3183 74.5799 69.8148 73.1116 69.7929 71.294L69.6989 63.1322C69.6802 61.5411 70.8045 60.1914 72.3043 59.8661C72.5169 59.8186 72.7369 59.7946 72.9634 59.7914L88.2983 59.6135C90.1159 59.5921 91.62 61.0604 91.6392 62.878L91.7156 69.3424L91.7359 71.0398C91.7567 72.8574 90.2863 74.3588 88.4708 74.3807Z" fill="white"/>
<g opacity="0.25">
<path opacity="0.25" d="M88.4708 74.3807L73.1338 74.5586C71.3183 74.58 69.8148 73.1117 69.7929 71.2941L69.6989 63.1323C69.6802 61.5412 70.8045 60.1915 72.3043 59.8662C73.1819 60.4345 73.7395 60.7982 73.7395 60.7982C74.562 67.3411 74.3307 72.201 84.488 71.4095C87.9896 71.1365 90.3253 70.0795 91.7156 69.3424L91.7359 71.0399C91.7567 72.8574 90.2863 74.3588 88.4708 74.3807Z" fill="#371A45"/>
</g>
<path d="M73.0956 75.3827C73.1121 75.3827 73.1282 75.3827 73.1442 75.3827L88.4802 75.2048C89.5783 75.192 90.6086 74.7498 91.3804 73.9598C92.1522 73.1699 92.5704 72.1299 92.5576 71.0318L92.463 62.869C92.4369 60.5942 90.5728 58.7552 88.29 58.7915L72.954 58.9694C70.6792 58.9961 68.8504 60.8676 68.8766 63.1424L68.9711 71.3053C68.984 72.4034 69.4262 73.4332 70.2162 74.2055C70.9944 74.9655 72.0156 75.3827 73.0956 75.3827ZM88.3375 60.4361C89.6921 60.4361 90.8014 61.5299 90.8174 62.8871L90.912 71.05C90.9194 71.7085 90.6679 72.3334 90.2032 72.8088C89.7385 73.2847 89.1195 73.5507 88.4609 73.5582L73.1249 73.736C72.4546 73.7456 71.8415 73.4919 71.3656 73.0272C70.8897 72.5626 70.6237 71.9435 70.6162 71.285L70.5217 63.1221C70.5142 62.4636 70.7658 61.8387 71.2304 61.3628C71.6951 60.8869 72.3136 60.6209 72.9727 60.6134L88.3087 60.4355C88.3183 60.4361 88.3279 60.4361 88.3375 60.4361Z" fill="#371A45"/>
<path d="M89.0862 74.3133C88.888 74.3571 88.6835 74.3795 88.4714 74.3806L73.1344 74.5584C71.8039 74.5734 70.6411 73.7904 70.107 72.6522C69.9121 72.2388 69.8004 71.7789 69.7956 71.2939L69.7524 67.6679L69.7379 66.4714L69.6995 63.1322C69.6781 61.3146 71.1485 59.8132 72.964 59.7913L76.2782 59.7539C74.7538 60.0594 73.6065 61.4193 73.6242 63.027L73.6738 67.4355L73.7182 71.1909C73.7395 73.0063 75.2436 74.4767 77.059 74.4554L89.0862 74.3133Z" fill="white"/>
<g opacity="0.25">
<path opacity="0.25" d="M89.0862 74.3126C88.888 74.3563 88.6835 74.3788 88.4714 74.3798L73.1344 74.5577C71.3189 74.5791 69.8154 73.1108 69.7962 71.2932L69.7385 66.4707C70.1343 67.3183 70.8393 68.3561 71.9497 68.4533C72.5586 68.5078 73.1525 68.0629 73.6744 67.4348L73.7187 71.1901C73.7401 73.0056 75.2441 74.476 77.0596 74.4546L89.0862 74.3126Z" fill="#371A45"/>
</g>
<path d="M73.0929 75.3825C73.11 75.3825 73.1265 75.3825 73.1436 75.3825L88.4807 75.2041C88.7387 75.2025 89.0014 75.1742 89.2578 75.1197C89.6718 75.0316 89.9511 74.6444 89.9046 74.224C89.8582 73.8069 89.5056 73.4917 89.0869 73.4917C89.0837 73.4917 89.0805 73.4917 89.0773 73.4917L77.048 73.6322C76.3969 73.6392 75.7656 73.3887 75.2902 72.924C74.8143 72.4593 74.5483 71.8403 74.5409 71.1817L74.4463 63.0183C74.4324 61.8288 75.2705 60.7948 76.4386 60.5593C76.8546 60.4754 77.1388 60.0887 77.0945 59.6662C77.0501 59.2469 76.6965 58.9297 76.2762 58.9297C76.273 58.9297 76.2698 58.9297 76.2666 58.9297L72.954 58.9676C70.6776 58.9954 68.8488 60.868 68.8766 63.1417L68.9711 71.3035C68.9834 72.4016 69.4251 73.4319 70.2156 74.2037C70.9944 74.9654 72.014 75.3825 73.0929 75.3825ZM73.8017 73.7289L73.1244 73.7369C73.1143 73.7369 73.1041 73.7369 73.094 73.7369C72.4466 73.7369 71.8345 73.4859 71.3661 73.0281C70.8902 72.5634 70.6242 71.9444 70.6173 71.2859V71.2853L70.5227 63.123C70.5062 61.7557 71.6059 60.6303 72.9743 60.6137L73.5608 60.6073C73.071 61.2979 72.7906 62.1418 72.8013 63.0381L72.8958 71.2004C72.9059 72.1303 73.2243 73.0116 73.8017 73.7289Z" fill="#371A45"/>
<path d="M79.7187 67.1054C79.7203 67.4072 79.3107 69.8465 79.3107 69.8465C79.3107 69.8465 78.5389 69.8507 77.5908 69.8566C76.4067 69.8636 75.4394 68.6431 75.4309 67.1305C75.4218 65.6179 76.3747 64.3862 77.5588 64.3793C78.3578 64.3745 79.2786 64.3691 79.2786 64.3691C79.2786 64.3691 79.7161 66.614 79.7187 67.1054Z" fill="#22A7F0"/>
<g opacity="0.35">
<path opacity="0.35" d="M79.7187 67.1054C79.7203 67.4072 79.3107 69.8465 79.3107 69.8465C79.3107 69.8465 78.5389 69.8507 77.5908 69.8566C76.4067 69.8636 75.4394 68.6431 75.4309 67.1305C75.4218 65.6179 76.3747 64.3862 77.5588 64.3793C78.3578 64.3745 79.2786 64.3691 79.2786 64.3691C79.2786 64.3691 79.7161 66.614 79.7187 67.1054Z" fill="#371A45"/>
</g>
<path d="M77.5807 70.4053C77.585 70.4053 77.5892 70.4053 77.594 70.4053L79.3139 70.3952C79.5804 70.3936 79.8074 70.2007 79.8517 69.9374C79.9773 69.1902 80.2694 67.4175 80.2678 67.1023C80.2646 66.5853 79.8918 64.6481 79.817 64.2646C79.7668 64.0061 79.5377 63.8277 79.2754 63.8213L77.5556 63.8314C76.0708 63.84 74.8717 65.3221 74.8824 67.1344C74.893 68.9413 76.1023 70.4053 77.5807 70.4053ZM78.8455 69.3007L77.5876 69.3082C77.5855 69.3082 77.5828 69.3082 77.5807 69.3082C76.7042 69.3082 75.9864 68.3319 75.9794 67.1274C75.9725 65.9198 76.6823 64.9333 77.562 64.928L78.8252 64.9205C78.9822 65.7585 79.1675 66.8326 79.1702 67.1061C79.1654 67.2813 79.0116 68.2881 78.8455 69.3007Z" fill="#371A45"/>
<path d="M77.1487 67.1188C77.1398 65.6064 78.0925 64.3748 79.2766 64.3678C80.4606 64.3609 81.4277 65.5813 81.4366 67.0936C81.4454 68.606 80.4928 69.8377 79.3087 69.8446C78.1246 69.8515 77.1576 68.6312 77.1487 67.1188Z" fill="#22A7F0"/>
<g opacity="0.35">
<path opacity="0.35" d="M77.1506 67.121C77.1591 68.6326 78.1264 69.8535 79.31 69.8471C80.4957 69.8402 81.448 68.608 81.4384 67.0949C81.4379 66.8908 81.4181 66.6911 81.3829 66.4988C81.0843 67.5392 80.3045 68.2843 79.3847 68.2881C78.3619 68.2939 77.4999 67.3849 77.2809 66.1602C77.1938 66.4598 77.1495 66.7835 77.1506 67.121Z" fill="#371A45"/>
</g>
<path d="M77.1504 67.121C77.1504 67.2241 77.1562 67.3256 77.1669 67.4255C77.395 66.2392 78.2314 65.3579 79.2318 65.3526C80.3348 65.3472 81.2518 66.4064 81.3747 67.7758C81.4179 67.5568 81.4388 67.3293 81.4382 67.0943C81.4297 65.5828 80.4629 64.3618 79.2788 64.3682C78.0947 64.3773 77.1418 65.6079 77.1504 67.121Z" fill="white"/>
<path d="M79.2999 70.3947C79.3047 70.3947 79.3089 70.3947 79.3138 70.3947C80.0588 70.3904 80.7484 70.0267 81.2558 69.3708C81.7322 68.7544 81.9923 67.9453 81.987 67.0918C81.9763 65.2848 80.7671 63.8203 79.2881 63.8203C79.2838 63.8203 79.2796 63.8203 79.2748 63.8203C78.5297 63.8246 77.8401 64.1883 77.3327 64.8442C76.8563 65.46 76.5967 66.2698 76.6015 67.1233C76.6063 67.9768 76.8755 68.7828 77.3594 69.3933C77.8716 70.0395 78.5601 70.3947 79.2999 70.3947ZM81.4384 67.095L80.8899 67.0982C80.8937 67.7076 80.7153 68.2764 80.3878 68.6994C80.0914 69.0829 79.7074 69.295 79.3068 69.2976C78.91 69.2928 78.5201 69.092 78.2194 68.7123C77.8871 68.293 77.7023 67.7268 77.6986 67.1169C77.6949 66.5074 77.8732 65.9386 78.2007 65.5156C78.4971 65.1321 78.8811 64.9201 79.2812 64.9174C79.2833 64.9174 79.286 64.9174 79.2881 64.9174C80.1651 64.9174 80.883 65.8937 80.8899 67.0982L81.4384 67.095Z" fill="#371A45"/>
<path d="M83.9771 74.9259C84.2773 74.9259 84.5219 74.6845 84.5256 74.3843L84.5871 69.2665C84.5892 69.11 84.6688 68.9663 84.8002 68.8814L86.4816 67.7971C86.9339 67.505 87.201 67.0098 87.1967 66.472L87.1412 59.638C87.1385 59.3368 86.8939 59.0938 86.5926 59.0938C86.591 59.0938 86.5894 59.0938 86.5878 59.0938C86.285 59.0964 86.0414 59.3437 86.0436 59.6466L86.0991 66.48C86.1002 66.6402 86.0206 66.7876 85.886 66.8747L84.2052 67.959C83.764 68.2436 83.4964 68.727 83.49 69.2526L83.4286 74.3704C83.4248 74.6733 83.6673 74.9216 83.9702 74.9254C83.9728 74.9259 83.975 74.9259 83.9771 74.9259Z" fill="#371A45"/>
<path d="M54.0657 61.5674C54.0657 61.5674 52.4725 62.602 52.489 64.419C52.5083 66.5197 54.0161 67.5056 54.0161 67.5056C54.0161 67.5056 59.1403 71.0244 70.7744 69.9882C70.7744 69.9882 73.6356 66.8134 70.166 64.5675C70.166 64.568 59.5639 66.6062 54.0657 61.5674Z" fill="white"/>
<g opacity="0.25">
<path opacity="0.25" d="M52.4894 64.3779C52.4888 64.3785 52.4894 64.3779 52.4894 64.3779C52.4888 66.5064 54.017 67.5057 54.017 67.5057C54.017 67.5057 59.1402 71.0234 70.7742 69.9888C70.7742 69.9888 72.9609 67.5618 71.1935 65.4515C71.1919 65.4643 71.1903 65.4771 71.1881 65.4899C71.0044 66.806 69.8897 67.8016 68.5624 67.8785C58.0185 68.4874 53.3488 65.2816 53.3488 65.2816C53.3488 65.2816 52.899 64.9879 52.4894 64.3779Z" fill="#371A45"/>
</g>
<path d="M66.5924 70.8659C67.7316 70.8659 68.9499 70.821 70.2521 70.7201C70.8557 70.6731 71.4111 70.3435 71.7375 69.8388C73.0348 67.8311 72.795 65.7972 71.0965 64.3983C70.6682 64.0458 70.1084 63.8909 69.5594 63.9732C67.3893 64.3006 59.9496 65.1034 55.3114 61.7021C54.8761 61.3827 54.3446 61.2561 53.8153 61.3432C53.2924 61.4297 52.8368 61.7165 52.5335 62.1513C52.0421 62.8542 51.7964 63.6191 51.8039 64.425C51.8263 66.8649 53.5675 68.0308 53.6417 68.0794C53.8164 68.2001 57.8137 70.8659 66.5924 70.8659ZM69.8505 65.3229C69.9861 65.3229 70.1186 65.3699 70.2249 65.4569C71.6878 66.6614 71.2285 68.0997 70.5859 69.0942C70.4903 69.2417 70.3258 69.3383 70.1464 69.3522C59.3466 70.1902 54.4515 66.9711 54.4034 66.9386C54.3478 66.9006 53.1909 66.0984 53.1755 64.4122C53.1706 63.8979 53.333 63.4011 53.6578 62.937C53.7486 62.8072 53.8842 62.7217 54.0396 62.6961C54.202 62.6694 54.3655 62.7089 54.5006 62.8077C59.5618 66.5193 67.4624 65.6759 69.7634 65.3287C69.7922 65.3255 69.8216 65.3229 69.8505 65.3229Z" fill="#371A45"/>
<path d="M44.8042 8.28362C44.8005 8.2767 44.7973 8.26766 44.7941 8.26074C44.801 8.2767 44.8042 8.28362 44.8042 8.28362Z" fill="#921FE5"/>
<path d="M62.4124 41.8737C62.4124 41.8737 50.1497 52.2574 47.9934 40.2441L38.2074 43.9252C38.2074 43.9252 37.9772 56.9373 48.4079 59.2099C54.68 60.5767 58.046 55.4172 58.046 55.4172L62.4124 41.8737Z" fill="white"/>
<g opacity="0.35">
<path opacity="0.35" d="M48.4077 59.2097C54.6787 60.577 58.0452 55.4164 58.0452 55.4164C58.2813 54.6446 57.4027 54.0074 56.7484 54.4801C55.1231 55.6546 52.6491 56.7057 49.3915 55.9954C42.0229 54.3898 38.415 46.6276 46.1516 43.4736L38.2077 43.9244C38.2077 43.9239 37.977 56.937 48.4077 59.2097Z" fill="#371A45"/>
</g>
<path d="M62.2248 41.6523C61.4551 41.9145 60.7512 42.2505 60.0707 42.5982C59.7305 42.7728 59.3977 42.955 59.066 43.136L58.0646 43.6557C56.7373 44.325 55.3737 44.9707 53.9818 45.132C53.2923 45.2127 52.6161 45.171 52.0147 44.9761C51.4117 44.7832 50.8861 44.4286 50.4572 43.9399C50.3392 43.8315 50.2478 43.6894 50.1512 43.5537C50.0545 43.4186 49.9514 43.2888 49.8766 43.1307L49.6299 42.6788L49.429 42.1891L49.3275 41.9444L49.249 41.6849L49.0904 41.1668C48.9996 40.8137 48.9312 40.4489 48.849 40.0911L48.6172 39.0811L47.6873 39.4309L37.9013 43.112L37.341 43.323L37.3383 43.9105C37.3367 44.2828 37.3511 44.6022 37.3709 44.9429C37.3907 45.2784 37.42 45.6111 37.4553 45.9439C37.5263 46.6083 37.6257 47.269 37.7517 47.9249C38.0028 49.2372 38.3718 50.533 38.8734 51.7876C39.3872 53.0358 40.0201 54.2541 40.8549 55.3491C41.6828 56.444 42.6795 57.4353 43.8342 58.2098C44.9874 58.9848 46.2751 59.5493 47.6024 59.9013C47.9346 59.9873 48.2641 60.0802 48.614 60.124L49.1315 60.2068C49.304 60.2335 49.4755 60.2672 49.6523 60.2677C50.0037 60.2811 50.3552 60.3067 50.7072 60.3051C51.0597 60.28 51.4127 60.2586 51.7642 60.226C53.1742 60.0434 54.5127 59.5109 55.7374 58.8219C56.3506 58.4726 56.8917 58.01 57.3515 57.4844C57.8039 56.9498 58.1644 56.3372 58.2884 55.5766C58.3161 55.4046 58.1997 55.2422 58.0277 55.2145C57.9604 55.2032 57.8947 55.2145 57.8381 55.2428L57.8034 55.2599C56.5872 55.8581 55.7332 56.6138 54.7509 57.2558C54.2766 57.5966 53.7591 57.8701 53.2186 58.0816C52.9467 58.1825 52.6647 58.2509 52.3891 58.3401C52.106 58.3994 51.8203 58.4464 51.5366 58.5025L50.6692 58.5671C50.3787 58.5676 50.0865 58.5436 49.7954 58.535C49.6496 58.5372 49.5043 58.5062 49.3591 58.4832L48.9232 58.4133C48.6327 58.3802 48.3421 58.2968 48.0516 58.2215C46.8925 57.9144 45.7928 57.4294 44.8079 56.7693C43.8225 56.1091 42.9689 55.2604 42.2458 54.3054C41.5167 53.352 40.9511 52.2662 40.4858 51.1376C40.0318 50.0021 39.6911 48.8115 39.4587 47.5964C39.3423 46.9891 39.2494 46.3754 39.1842 45.7607C39.1516 45.453 39.1244 45.1448 39.1062 44.8383C39.0881 44.5365 39.0753 44.2128 39.0763 43.942L38.5134 44.7405L48.2994 41.0594L47.1377 40.3992C47.2285 40.8057 47.3065 41.2132 47.4112 41.6192L47.596 42.2259L47.6894 42.5293L47.8112 42.8289L48.059 43.4266L48.3742 44.0082C48.4708 44.2048 48.607 44.3869 48.739 44.5707C48.8703 44.7544 48.9959 44.9408 49.163 45.1042C49.7655 45.7938 50.5854 46.3514 51.4811 46.6334C52.3763 46.9229 53.304 46.9614 54.1698 46.8647C55.0399 46.7685 55.8678 46.5624 56.6636 46.2985C57.4594 46.0352 58.2195 45.7003 58.9389 45.3056C60.3607 44.4954 61.7051 43.5505 62.5986 42.0967C62.6868 41.9535 62.6419 41.7655 62.4988 41.6774C62.4187 41.6282 62.3246 41.6202 62.2424 41.648L62.2248 41.6523Z" fill="#371A45"/>
<path d="M49.8332 39.9421C48.2806 46.3851 41.7809 45.7847 39.9917 45.3494C36.2598 44.4404 34.9796 40.9238 34.9796 40.9238L37.9893 36.9457L39.3278 34.7932L40.9264 34.3125C42.1826 32.0233 44.858 29.427 46.3946 30.343C46.3946 30.3425 51.1717 34.3884 49.8332 39.9421Z" fill="white"/>
<g opacity="0.35">
<path opacity="0.35" d="M34.4257 38.8435C34.4257 40.8507 37.0551 42.6721 42.7162 42.0124C44.71 41.7801 46.3508 40.385 46.3508 38.3778C46.3508 36.3706 44.7234 34.7432 42.7162 34.7432C40.7085 34.7432 34.4257 36.8364 34.4257 38.8435Z" fill="#371A45"/>
</g>
<path d="M34.6248 32.347C36.1113 33.8388 37.4124 34.9385 37.4124 34.9385L41.5832 39.2066L44.398 32.3326C44.398 32.3326 44.4146 30.9455 44.3062 29.1092C44.0952 25.4735 43.403 20.08 41.156 20.2194C37.1154 20.4705 39.7886 31.1121 39.7886 31.1121C39.7886 31.1121 33.3381 22.5119 30.7541 24.9549C29.2431 26.3842 32.1839 29.8949 34.6248 32.347Z" fill="white"/>
<g opacity="0.35">
<path opacity="0.35" d="M34.6248 32.3472C36.1113 33.8389 37.4124 34.9387 37.4124 34.9387L41.5832 39.2068L44.398 32.3327C44.398 32.3327 44.4146 30.9457 44.3062 29.1094C43.223 29.965 41.203 31.5193 40.4963 32.4449C39.2796 34.0392 36.256 32.032 34.6248 32.3472Z" fill="#371A45"/>
</g>
<path d="M41.584 40.0771C41.6395 40.0771 41.6951 40.0717 41.7506 40.0611C42.038 40.005 42.2778 39.8079 42.3889 39.5371L45.2036 32.6615C45.2453 32.56 45.2672 32.4515 45.2683 32.3421C45.2795 31.3283 45.3083 22.3707 42.8338 20.0185C42.3333 19.5431 41.7346 19.3129 41.1033 19.3519C40.2513 19.4048 39.5308 19.8022 39.0202 20.5008C37.8046 22.1635 37.9515 25.4477 38.3056 27.9784C36.5628 26.0758 34.1117 23.8288 32.1334 23.6606C31.369 23.5949 30.6859 23.8251 30.1582 24.324C29.6914 24.7657 29.4548 25.3628 29.474 26.0513C29.5648 29.3078 35.9384 34.8262 36.8207 35.575L40.9633 39.8154C41.1273 39.9841 41.3521 40.0771 41.584 40.0771ZM43.5303 32.1573L41.2806 37.6533L38.0342 34.3306C38.015 34.3108 37.9947 34.2921 37.9734 34.2739C35.3866 32.0868 31.2633 27.9068 31.2104 26.0027C31.204 25.7607 31.2777 25.6571 31.3514 25.5871C31.4631 25.4814 31.635 25.3628 31.9843 25.3927C33.8703 25.5529 37.3463 29.3067 39.0945 31.6349C39.3434 31.966 39.7904 32.0755 40.1638 31.8977C40.5371 31.7193 40.7336 31.3027 40.6327 30.9016C39.9351 28.1199 39.2611 23.1153 40.4228 21.5268C40.6295 21.2437 40.8725 21.1086 41.2095 21.0878C41.3083 21.0808 41.444 21.0979 41.6347 21.279C43.0661 22.6383 43.5532 28.5985 43.5303 32.1573Z" fill="#371A45"/>
<path d="M34.2163 40.18C35.206 41.7887 39.4079 42.5402 40.9675 41.331C42.2942 40.3012 40.9691 38.9889 40.592 38.6556C40.5332 38.6022 40.4969 38.575 40.4969 38.575C40.4969 38.575 42.1115 38.0804 42.3936 36.7205C42.4117 36.6324 42.4245 36.5411 42.4304 36.4439C42.5292 34.8752 38.3402 33.5207 36.4377 33.8267C35.0159 34.0558 34.4732 34.6348 34.3391 35.2544C34.196 35.914 34.517 36.6196 34.7312 36.9972C34.83 37.1697 34.9053 37.2723 34.9053 37.2723C34.9053 37.2723 33.4231 38.8917 34.2163 40.18Z" fill="white"/>
<g opacity="0.35">
<path opacity="0.35" d="M34.7317 36.9967C35.8549 37.572 38.1073 38.551 40.592 38.6551C40.5332 38.6017 40.4969 38.5745 40.4969 38.5745C40.4969 38.5745 42.1115 38.0799 42.3936 36.72C40.9034 37.0464 36.7875 37.6676 34.3397 35.2539C34.1965 35.9135 34.517 36.6191 34.7317 36.9967Z" fill="#371A45"/>
</g>
<g opacity="0.35">
<path opacity="0.35" d="M34.2163 40.1802C35.206 41.7889 39.4079 42.5404 40.9675 41.3312C41.6196 40.8254 41.6309 40.2517 41.4295 39.7587C41.3579 39.8378 41.2735 39.9163 41.1747 39.9932C39.6172 41.2024 35.4148 40.4515 34.4251 38.8443C34.3226 38.6777 34.2564 38.5052 34.2238 38.3311C33.9765 38.8823 33.8408 39.5681 34.2163 40.1802Z" fill="#371A45"/>
</g>
<path d="M38.6781 42.7981C39.8382 42.7981 40.8407 42.5289 41.4993 42.0183C42.2535 41.4335 42.4126 40.7626 42.4137 40.3028C42.4148 39.7414 42.1808 39.2335 41.9047 38.8291C42.5905 38.3426 43.2277 37.5782 43.2966 36.4999C43.3238 36.0731 43.2036 35.4252 42.4751 34.7635C41.0298 33.4506 37.9133 32.7082 36.2986 32.9672C34.888 33.1942 33.9827 33.7716 33.6083 34.6839C33.2221 35.6234 33.5517 36.6003 33.8556 37.2044C33.2537 38.0883 32.743 39.446 33.4753 40.636C34.0618 41.5884 35.4398 42.3436 37.1612 42.6561C37.6857 42.7517 38.1958 42.7981 38.6781 42.7981ZM37.033 34.6518C38.2962 34.6518 40.375 35.2346 41.2782 36.025C41.5137 36.2312 41.5623 36.3663 41.5618 36.3888C41.502 37.3299 40.25 37.7406 40.2377 37.7444C39.9311 37.8426 39.7009 38.1027 39.6438 38.42C39.5872 38.7373 39.7073 39.0604 39.961 39.2591C40.2601 39.4973 40.6773 39.9935 40.6751 40.3001C40.6751 40.3391 40.6741 40.4576 40.4337 40.6441C39.9092 41.051 38.7192 41.1723 37.4721 40.9458C36.0999 40.6964 35.2197 40.1532 34.9559 39.7248C34.5323 39.0364 35.5386 37.8688 35.5487 37.857C35.8249 37.551 35.8505 37.0911 35.607 36.7584C35.4067 36.479 35.0435 35.7596 35.2176 35.3424C35.3442 35.0385 35.8259 34.8046 36.5748 34.6844C36.7099 34.6625 36.8643 34.6518 37.033 34.6518Z" fill="#371A45"/>
<path d="M39.969 39.1387C40.1533 39.1387 40.3402 39.1333 40.5293 39.1221C40.8316 39.1045 41.0623 38.8449 41.0447 38.5426C41.0271 38.2403 40.767 38.0074 40.4652 38.0272C37.5901 38.1944 35.2095 36.8142 35.1855 36.7998C34.9248 36.646 34.5884 36.7325 34.4345 36.9937C34.2807 37.2548 34.3672 37.5908 34.6284 37.7446C34.7299 37.805 37.0255 39.1387 39.969 39.1387Z" fill="#371A45"/>
<path d="M46.3941 30.3432C44.3544 29.127 40.3122 34.0948 40.2379 36.3242C40.1813 38.0259 42.1971 39.4461 44.6059 37.2744C47.0463 35.0744 49.5972 32.2532 46.3941 30.3432Z" fill="white"/>
<path d="M34.9793 40.9245C34.9793 40.9245 36.2606 44.4401 39.9909 45.3486C41.7807 45.7844 48.2808 46.3853 49.8335 39.9412C51.172 34.3881 46.3943 30.3432 46.3943 30.3432C44.3546 29.127 40.3124 34.0948 40.2382 36.3242C40.1815 38.0259 42.7106 38.991 44.8294 35.9963C44.8294 35.9963 43.7131 38.7165 46.0963 40.5726L40.4812 43.8066L36.235 42.9777L34.9793 40.9245Z" fill="white"/>
<path d="M44.9868 39.2681L45.0984 39.204C45.014 39.1378 44.9371 39.0737 44.8639 39.0059C44.9002 39.0924 44.9408 39.1805 44.9868 39.2681Z" fill="white"/>
<g opacity="0.35">
<path opacity="0.35" d="M44.7412 35.4917C45.0398 34.392 41.8816 37.1913 40.2387 36.4724C40.3177 37.8541 42.1374 38.6569 43.9534 37.0022C44.0613 36.1166 44.7412 35.4917 44.7412 35.4917Z" fill="#371A45"/>
</g>
<g opacity="0.35">
<path opacity="0.35" d="M36.9508 43.1166L36.2341 42.9772C37.0256 43.9194 38.2391 44.9214 39.991 45.3487C41.7814 45.785 48.2815 46.3843 49.8336 39.9408C50.7443 36.1619 48.822 33.0796 47.5006 31.498C48.5763 33.2131 49.5313 35.6908 48.8365 38.5734C47.2843 45.017 40.7842 44.4177 38.9938 43.9813C38.2076 43.7896 37.5298 43.4835 36.9508 43.1166Z" fill="#371A45"/>
</g>
<path d="M34.9808 40.9268C34.9936 40.9615 35.0962 41.2312 35.3109 41.6248L35.4209 41.6467L34.9808 40.9268Z" fill="white"/>
<path d="M35.2372 41.6104C35.296 41.6798 35.3563 41.7514 35.4204 41.8213C35.382 41.7535 35.3451 41.6878 35.3104 41.6253L35.2372 41.6104Z" fill="white"/>
<path d="M47.1824 44.3473C47.8313 44.0926 48.4322 43.6797 48.9386 43.1654C49.4454 42.6505 49.8572 42.0373 50.1708 41.3852C50.7973 40.0894 51.0398 38.5971 50.9522 37.131C50.9463 37.0391 50.9458 36.9467 50.9351 36.8559L50.8934 36.584L50.8085 36.0403C50.7444 35.6798 50.6365 35.3305 50.5425 34.9774C50.4159 34.6377 50.3011 34.2911 50.1547 33.961C50.002 33.6347 49.8556 33.303 49.6703 32.9964C49.3301 32.3629 48.9113 31.7839 48.4712 31.2269C48.249 30.9502 48.0145 30.6831 47.7715 30.423C47.6449 30.2954 47.5253 30.1661 47.3934 30.0411C47.2598 29.9124 47.1402 29.7992 46.9741 29.6576C46.9378 29.6267 46.8993 29.5989 46.8593 29.5749L46.8534 29.5717C46.3754 29.2875 45.7969 29.2239 45.337 29.2934C44.8676 29.3596 44.4782 29.522 44.1262 29.7004C43.4287 30.0668 42.8726 30.5325 42.3604 31.0234C41.3472 32.0168 40.499 33.1096 39.8464 34.4123C39.6877 34.7435 39.543 35.089 39.4335 35.4784C39.3795 35.6739 39.3347 35.879 39.3128 36.1103L39.2978 36.2838C39.2973 36.3458 39.3005 36.412 39.3032 36.4761C39.3138 36.6054 39.3085 36.7336 39.3422 36.8623C39.4239 37.3847 39.7283 37.8771 40.122 38.2227C40.5172 38.5693 41.015 38.7872 41.4962 38.8321C41.9764 38.8887 42.4486 38.8353 42.8566 38.69C42.9592 38.6542 43.0628 38.619 43.1627 38.5795L43.442 38.4369C43.6338 38.3466 43.7951 38.2286 43.959 38.1132C44.6058 37.6432 45.0748 37.0519 45.4668 36.4478L44.1064 35.7001C44.052 35.8635 44.0295 35.9687 44.0012 36.0974C43.975 36.2203 43.9548 36.3426 43.9387 36.4649C43.9067 36.7095 43.8976 36.9552 43.8981 37.1999C43.9094 37.6896 43.9964 38.181 44.1705 38.6382C44.2485 38.869 44.3719 39.0837 44.4851 39.2936C44.6181 39.496 44.7517 39.6931 44.9188 39.8613C45.226 40.2192 45.6191 40.4745 46.0068 40.6865C46.0779 40.7255 46.1665 40.6994 46.205 40.6283C46.2327 40.5781 46.2274 40.5188 46.1964 40.4745L46.1847 40.4574C46.0624 40.2822 45.9262 40.1295 45.8183 39.958C45.7152 39.7828 45.6052 39.6205 45.5309 39.4399C45.3637 39.0911 45.2612 38.7279 45.2243 38.3637C45.1827 38.001 45.1923 37.6368 45.2542 37.2794C45.2863 37.101 45.3242 36.9242 45.3782 36.7528C45.4027 36.6663 45.4305 36.5824 45.4615 36.5007C45.4893 36.4254 45.5304 36.3276 45.5512 36.2924C45.7697 35.9308 45.6538 35.4602 45.2922 35.2418C44.9669 35.0452 44.5535 35.1189 44.3148 35.3994L44.1908 35.5446C43.8111 35.989 43.3993 36.3837 42.9677 36.6529C42.8593 36.717 42.7535 36.7886 42.6435 36.8249L42.4822 36.8959L42.323 36.9371C42.2168 36.9755 42.1195 36.975 42.0218 36.9926C41.9721 37.0038 41.9299 36.9883 41.884 36.991C41.8391 36.9899 41.7927 36.9942 41.7553 36.9787C41.5854 36.9595 41.4658 36.8805 41.3718 36.8046C41.2831 36.7213 41.2158 36.6294 41.1955 36.5028C41.18 36.4751 41.1934 36.4361 41.1848 36.4035L41.1774 36.3511L41.1832 36.2812C41.1886 36.1877 41.2105 36.0718 41.2399 35.9522C41.2981 35.7107 41.3942 35.448 41.5085 35.1873C41.9833 34.1362 42.7204 33.1043 43.5697 32.2748C43.9938 31.8614 44.4643 31.4971 44.9258 31.2611C45.1544 31.1451 45.383 31.0714 45.5614 31.0522C45.7446 31.0341 45.8466 31.0624 45.9337 31.1142L45.8135 31.0282C45.8968 31.1046 46.0159 31.221 46.1174 31.3257C46.2231 31.4314 46.3246 31.5489 46.4288 31.6595C46.6307 31.8902 46.8267 32.1268 47.012 32.372C47.3758 32.8655 47.7229 33.3745 48.0017 33.9129C48.1582 34.1746 48.2656 34.4566 48.3996 34.7269C48.523 35.0014 48.616 35.2856 48.7244 35.5644C48.7944 35.8523 48.8996 36.1338 48.9583 36.4233L49.04 36.8586L49.0822 37.0765C49.0935 37.1496 49.0945 37.2234 49.1009 37.2965C49.1682 37.8819 49.1768 38.4753 49.1047 39.065C49.0577 39.3593 49.0448 39.6562 48.9786 39.9553C48.9204 40.2539 48.8499 40.5482 48.7666 40.8393C48.4424 42.0079 47.8842 43.0943 47.0152 44.1097C46.9613 44.1716 46.9677 44.2662 47.0296 44.3201C47.0729 44.3586 47.1327 44.3666 47.1824 44.3473Z" fill="#371A45"/>
<path d="M34.1631 41.2221C34.2154 41.4262 34.263 41.565 34.3255 41.7237C34.3874 41.8759 34.4536 42.0244 34.5305 42.167C34.6774 42.4554 34.8564 42.7246 35.0486 42.982C35.4321 43.4996 35.9203 43.937 36.4405 44.312C36.6916 44.5101 36.9832 44.6575 37.2556 44.8178C37.5456 44.955 37.8308 45.0912 38.1348 45.1836C38.7287 45.3936 39.3579 45.471 39.962 45.4699C40.0325 45.4699 40.0896 45.4122 40.0896 45.3417C40.0896 45.2963 40.0661 45.2568 40.0303 45.2344L40.0207 45.2285C39.5154 44.9128 39.0363 44.633 38.6229 44.2703C38.4029 44.1143 38.2218 43.905 38.0221 43.7367C37.8399 43.5402 37.6578 43.3543 37.4927 43.1503C37.1563 42.7508 36.871 42.3203 36.5885 41.893C36.5244 41.7813 36.4528 41.6756 36.3829 41.5688C36.3214 41.4571 36.2488 41.3514 36.1826 41.2424L35.9855 40.9182C35.9203 40.8178 35.8504 40.6923 35.7969 40.6277L35.6639 40.4648C35.3632 40.0967 34.8206 40.0417 34.4526 40.3424C34.1844 40.5609 34.083 40.9081 34.1631 41.2221Z" fill="#371A45"/>
<path d="M46.6345 58.9068C47.5586 58.9068 48.3784 58.6061 49.0818 58.0068C52.4938 55.1012 51.7973 45.9412 51.7663 45.5524C51.7417 45.2506 51.4768 45.0247 51.1756 45.0498C50.8738 45.0738 50.6484 45.3387 50.673 45.6405C50.6799 45.7302 51.3572 54.6291 48.3704 57.172C47.652 57.7835 46.7814 57.9523 45.7078 57.6895C45.4125 57.6174 45.1166 57.7974 45.0445 58.0917C44.9724 58.386 45.1524 58.683 45.4467 58.7551C45.8595 58.856 46.2559 58.9068 46.6345 58.9068Z" fill="#371A45"/>
<path d="M51.3644 28.5674C51.6422 28.6294 51.9172 28.4547 51.9792 28.1775L55.2202 13.7036C55.2821 13.4258 55.1075 13.1508 54.8303 13.0888C51.9188 12.4367 49.0303 14.2687 48.3782 17.1801L47.2731 22.1158C46.6215 25.0268 48.453 27.9158 51.3644 28.5674Z" fill="white"/>
<path d="M51.4768 28.7412C51.7866 28.7412 52.0665 28.5271 52.137 28.2125L55.378 13.7391C55.4592 13.3748 55.2295 13.0127 54.8658 12.931C51.8715 12.2607 48.8912 14.1509 48.2209 17.1441L47.1158 22.0798C46.4455 25.0735 48.3352 28.0544 51.3289 28.7247C51.3785 28.7359 51.4282 28.7412 51.4768 28.7412ZM53.6496 13.119C54.0277 13.119 54.4112 13.1601 54.7953 13.2461C54.9854 13.2888 55.1056 13.4784 55.0628 13.6686L51.8219 28.142C51.7791 28.3321 51.59 28.4518 51.3994 28.4096C48.5792 27.7782 46.799 24.9704 47.4304 22.1503L48.5355 17.2146C49.0813 14.779 51.2509 13.119 53.6496 13.119Z" fill="#371A45"/>
<g opacity="0.35">
<path opacity="0.35" d="M47.7912 19.8008L47.2726 22.1156C46.6215 25.026 48.4524 27.915 51.3644 28.5682C51.6416 28.6307 51.9172 28.4545 51.9797 28.1773L52.8423 24.3301C52.7253 24.4882 52.5223 24.5699 52.3183 24.5255L51.9754 24.4476C49.6745 23.9332 48.0476 22.02 47.7912 19.8008Z" fill="#371A45"/>
</g>
<path d="M51.4766 29.479C52.1234 29.479 52.7088 29.0314 52.8562 28.3744L56.0972 13.9005C56.267 13.1399 55.7869 12.3826 55.0268 12.2122C51.6357 11.4543 48.2607 13.5934 47.5012 16.9839L46.3961 21.9197C45.6371 25.3097 47.7773 28.6858 51.1679 29.4448C51.2715 29.4683 51.3751 29.479 51.4766 29.479ZM51.5594 27.6908H51.5599C51.5604 27.6908 51.5599 27.6908 51.5594 27.6908ZM54.2561 13.8978L51.1898 27.5909C48.9839 26.8965 47.6358 24.6089 48.1501 22.3117L49.2552 17.376C49.7696 15.0798 51.9637 13.5854 54.2561 13.8978Z" fill="#371A45"/>
<path d="M102.604 23.7869C102.326 23.7249 102.051 23.8996 101.989 24.1768L98.7485 38.6507C98.6865 38.9285 98.8612 39.2035 99.1384 39.2655C102.05 39.9176 104.938 38.0856 105.59 35.1742L106.696 30.2384C107.347 27.3275 105.516 24.4385 102.604 23.7869Z" fill="white"/>
<path d="M100.32 39.5586C102.866 39.5586 105.169 37.796 105.748 35.2104L106.853 30.2747C107.524 27.281 105.634 24.3001 102.64 23.6298C102.277 23.548 101.914 23.7782 101.833 24.142L98.5918 38.6154C98.5106 38.9791 98.7403 39.3418 99.104 39.4235C99.5104 39.5148 99.9185 39.5586 100.32 39.5586ZM102.569 23.9449C105.389 24.5762 107.17 27.384 106.538 30.2042L105.433 35.1399C104.802 37.9595 101.994 39.7402 99.174 39.1089C98.9838 39.0662 98.8636 38.8765 98.9064 38.6864L102.147 24.213C102.19 24.0223 102.38 23.9027 102.569 23.9449Z" fill="#371A45"/>
<g opacity="0.35">
<path opacity="0.35" d="M99.6464 34.635L98.7474 38.6505C98.6849 38.9277 98.8612 39.2033 99.1384 39.2658C100.667 39.6071 102.19 39.2658 103.386 38.4416C104.466 37.6971 105.28 36.5578 105.589 35.1755L106.055 33.0957C104.82 34.7354 102.694 35.5943 100.56 35.1163L100.031 34.9977C99.8386 34.9544 99.6987 34.8113 99.6464 34.635Z" fill="#371A45"/>
</g>
<path d="M100.32 40.2951C103.203 40.2951 105.811 38.2991 106.467 35.3706L107.572 30.4348C107.94 28.7924 107.646 27.1051 106.745 25.6839C105.844 24.2626 104.443 23.2772 102.8 22.9092C102.04 22.7393 101.283 23.2195 101.113 23.9795L97.8717 38.4534C97.7013 39.214 98.182 39.9714 98.942 40.1418C99.4035 40.2454 99.865 40.2951 100.32 40.2951ZM102.779 24.7625C103.792 25.0803 104.652 25.7389 105.227 26.6463C105.872 27.6622 106.082 28.8683 105.819 30.0422L104.714 34.978C104.199 37.2747 102.005 38.7702 99.7128 38.4566L102.779 24.7625Z" fill="#371A45"/>
<path d="M76.9813 51.451C63.0221 51.451 51.706 40.1348 51.706 26.1757C51.706 12.2165 63.0221 0.900391 76.9813 0.900391C90.9405 0.900391 102.257 12.2165 102.257 26.1757C102.257 40.1348 90.9405 51.451 76.9813 51.451Z" fill="white"/>
<path d="M77.0356 51.6181C82.4328 51.6181 87.6698 49.9041 92.0922 46.638C97.5578 42.6017 101.124 36.6789 102.135 29.9598C103.145 23.2412 101.479 16.5306 97.443 11.0656C93.4067 5.59998 87.4839 2.03371 80.7647 1.02263C74.0456 0.0120888 67.3355 1.67799 61.8705 5.71428C56.4049 9.75057 52.8387 15.6733 51.8281 22.3925C50.8176 29.1111 52.4835 35.8217 56.5198 41.2867C60.5561 46.7518 66.4788 50.3191 73.198 51.3296C74.4804 51.5225 75.7622 51.6181 77.0356 51.6181ZM76.9282 1.05681C78.185 1.05681 79.4508 1.15082 80.7172 1.3415C87.3509 2.33922 93.1984 5.86063 97.1834 11.2568C101.168 16.6529 102.813 23.278 101.816 29.9117C100.818 36.5454 97.2966 42.3929 91.9005 46.3779C86.5038 50.3629 79.8781 52.008 73.2455 51.0102C66.6118 50.0125 60.7644 46.4911 56.7793 41.095C52.7943 35.6988 51.1493 29.0737 52.147 22.44C53.1447 15.8069 56.6661 9.95887 62.0623 5.97386C66.4286 2.74942 71.5994 1.05681 76.9282 1.05681Z" fill="#371A45"/>
<g opacity="0.35">
<path opacity="0.35" d="M52.747 18.9932C52.418 20.0993 52.1638 21.2423 51.9864 22.4174C49.9119 36.221 59.4181 49.0942 73.2212 51.1719C87.0248 53.2464 99.898 43.7402 101.976 29.9371C102.035 29.5403 102.086 29.1413 102.126 28.7477C98.6107 40.6611 86.762 48.458 74.1318 46.5587C60.7261 44.5403 51.3754 32.3406 52.747 18.9932Z" fill="#371A45"/>
</g>
<path d="M77.0372 52.3555C82.5909 52.3555 87.9801 50.5919 92.5303 47.2312C98.1545 43.078 101.824 36.9832 102.864 30.0697C103.904 23.1561 102.19 16.2516 98.0364 10.6274C93.8832 5.00321 87.7884 1.33333 80.8748 0.293408C66.6018 -1.85319 53.2457 8.01081 51.0991 22.2828C50.0592 29.1964 51.7737 36.1009 55.927 41.7251C60.0802 47.3493 66.175 51.0192 73.0886 52.0591C74.4078 52.2572 75.7271 52.3555 77.0372 52.3555ZM76.9662 1.79747C78.1685 1.79747 79.3831 1.88667 80.6073 2.07093C87.046 3.03928 92.7225 6.4576 96.5906 11.6951C100.459 16.9326 102.055 23.3633 101.087 29.8021C100.118 36.2408 96.7006 41.9174 91.4626 45.7854C86.2251 49.6534 79.7938 51.2499 73.3556 50.2816C66.9169 49.3132 61.2403 45.8949 57.3723 40.6574C53.5042 35.4199 51.9078 28.9892 52.8761 22.5504C54.6916 10.4827 65.1148 1.79747 76.9662 1.79747Z" fill="#371A45"/>
<path d="M51.9707 23.0713C51.161 27.9504 51.9936 32.743 54.0804 36.9406C55.6448 40.0876 63.1774 46.3901 73.4703 48.1933C83.0144 49.8651 92.5563 46.2118 95.0533 43.7388C98.384 40.4401 100.719 36.1731 101.529 31.294C103.671 18.3818 93.4659 11.1889 79.7798 8.91839C66.0948 6.64681 54.113 10.1591 51.9707 23.0713Z" fill="#371A45"/>
<g opacity="0.5">
<path opacity="0.5" d="M57.5459 23.8318C57.5113 21.4887 58.8594 19.5689 60.5572 19.5438C62.2549 19.5186 63.6594 21.3977 63.694 23.7408C63.7287 26.0839 62.3805 28.0038 60.6828 28.0289C58.985 28.054 57.5806 26.1749 57.5459 23.8318Z" fill="white"/>
</g>
<g opacity="0.5">
<path opacity="0.5" d="M61.2996 32.9617C61.1352 31.8989 61.7413 30.9229 62.6534 30.7817C63.5655 30.6406 64.4382 31.3878 64.6026 32.4506C64.7671 33.5134 64.161 34.4894 63.2489 34.6305C62.3368 34.7717 61.464 34.0245 61.2996 32.9617Z" fill="white"/>
</g>
<g opacity="0.35">
<path opacity="0.35" d="M58.7885 11.8242C55.2799 14.2122 52.832 17.8837 51.9711 23.0694C51.1613 27.9496 51.9946 32.7422 54.0797 36.9393C55.6452 40.0863 63.1783 46.3888 73.4707 48.1925C77.1048 48.8302 80.7378 48.694 83.9836 48.1439C71.3786 45.6565 62.2105 37.9338 60.2706 34.031C57.6214 28.7038 56.5655 22.6202 57.5937 16.4288C57.8671 14.7747 58.2715 13.2418 58.7885 11.8242Z" fill="#111A28"/>
</g>
<path d="M101.49 20.7935C101.634 20.7935 101.779 20.7555 101.911 20.6765C102.284 20.4532 102.417 19.9827 102.223 19.6013C98.8873 12.4004 90.9654 7.27293 80.4845 5.53386C70.0682 3.806 60.9327 5.98197 55.4148 11.5047C55.1424 11.7648 55.0751 12.1873 55.2765 12.5233C55.5099 12.9126 56.0135 13.0408 56.4035 12.8069L56.4911 12.7545L56.5669 12.6803C61.7029 7.5293 70.3224 5.51623 80.2153 7.15756C90.1621 8.80797 97.6428 13.6038 100.74 20.3144L100.781 20.3929C100.936 20.6503 101.21 20.7935 101.49 20.7935Z" fill="#371A45"/>
<g opacity="0.5">
<path opacity="0.5" d="M94.144 37.2595C94.144 37.2595 99.8633 25.962 94.2279 20.1471C88.5924 14.3322 79.3485 12.818 79.4661 13.4466C79.4661 13.4466 89.2857 17.6207 91.9467 26.3727C93.9993 33.1212 94.144 37.2595 94.144 37.2595Z" fill="white"/>
</g>
<defs>
<linearGradient id="paint0_linear_347_130" x1="103.975" y1="87.5119" x2="101.737" y2="108.643" gradientUnits="userSpaceOnUse">
<stop stop-color="white"/>
<stop offset="1"/>
</linearGradient>
<linearGradient id="paint1_linear_347_130" x1="103.975" y1="87.5119" x2="101.737" y2="108.643" gradientUnits="userSpaceOnUse">
<stop stop-color="white"/>
<stop offset="1" stop-color="white"/>
</linearGradient>
<linearGradient id="paint2_linear_347_130" x1="95.0267" y1="88.5379" x2="92.7742" y2="109.802" gradientUnits="userSpaceOnUse">
<stop stop-color="white"/>
<stop offset="1"/>
</linearGradient>
<linearGradient id="paint3_linear_347_130" x1="95.0267" y1="88.5379" x2="92.7742" y2="109.802" gradientUnits="userSpaceOnUse">
<stop stop-color="white"/>
<stop offset="1" stop-color="white"/>
</linearGradient>
</defs>
</svg>
