<svg width="100" height="194" viewBox="0 0 100 194" fill="none" xmlns="http://www.w3.org/2000/svg">
<path d="M49.0075 134.177L42.9298 141.415L40.485 144.328C31.4624 138.507 28.2546 131.321 28.4468 124.956C28.5381 121.874 29.4244 118.983 30.8343 116.532C35.406 108.572 43.7841 104.672 47.3528 111.206C51.1979 118.25 46.1165 121.639 44.6547 123.821C42.5985 126.887 43.5991 132.432 49.0075 134.177Z" fill="white"/>
<g opacity="0.35">
<path opacity="0.35" d="M42.9298 141.415L40.485 144.328C31.4624 138.507 28.2546 131.321 28.4468 124.956C29.8905 129.565 33.7815 138.395 42.9298 141.415Z" fill="#371A45"/>
</g>
<path d="M40.4842 145.242C40.3143 145.242 40.1426 145.195 39.9897 145.096C33.7034 141.04 29.6038 135.903 28.1341 130.239C26.8845 125.422 27.5616 120.392 30.0415 116.076C33.1702 110.632 38.0454 106.992 42.1976 106.992C42.2236 106.992 42.2483 106.992 42.2743 106.993C44.7875 107.02 46.8213 108.326 48.155 110.768C51.6361 117.143 48.3412 120.908 46.3721 123.157C45.9773 123.608 45.6363 123.997 45.4139 124.329C44.5167 125.667 44.3262 127.555 44.9169 129.257C45.5819 131.173 47.1339 132.611 49.2873 133.306C49.768 133.461 50.0315 133.976 49.8768 134.456C49.722 134.936 49.2069 135.201 48.7263 135.045C46.0142 134.17 44.0481 132.327 43.1903 129.856C42.4158 127.624 42.6861 125.116 43.8958 123.311C44.1836 122.882 44.579 122.43 44.9967 121.953C46.8636 119.82 49.4203 116.899 46.5511 111.644C45.5384 109.79 44.0935 108.84 42.255 108.82C38.7739 108.78 34.4113 112.14 31.6267 116.986C27.6553 123.899 27.7218 135.005 40.9812 143.559C41.405 143.833 41.5271 144.399 41.2538 144.822C41.0785 145.094 40.7841 145.242 40.4842 145.242Z" fill="#371A45"/>
<path d="M35.6007 132.961C32.6964 132.961 29.8555 132.126 28.5781 130.875C28.28 130.583 28.2752 130.104 28.5672 129.806C28.8592 129.508 29.338 129.503 29.6361 129.795C30.5193 130.66 33.0525 131.528 36.007 131.443C37.7578 131.391 41.0346 130.927 43.3071 128.415C43.587 128.105 44.0647 128.081 44.3748 128.362C44.6843 128.642 44.7085 129.119 44.428 129.429C42.465 131.598 39.4905 132.851 36.0523 132.955C35.9018 132.958 35.7507 132.961 35.6007 132.961Z" fill="#371A45"/>
<path d="M84.9097 140.674C87.9568 145.068 86.8534 160.794 83.038 169.118C79.2226 177.441 63.7414 173.006 55.1046 169.819C46.4678 166.633 53.069 146.903 54.9444 141.653C57.8711 133.455 80.3948 134.163 84.9097 140.674Z" fill="white"/>
<g opacity="0.35">
<path opacity="0.35" d="M55.1038 169.818C63.7407 173.005 79.2218 177.439 83.0385 169.116C83.5372 168.026 83.9906 166.81 84.3927 165.508C81.3505 166.601 78.5532 163.795 78.9195 161.343C81.1818 146.203 77.6814 138.939 75.7298 136.201C67.5095 134.687 56.8903 136.198 54.9442 141.652C53.0683 146.902 46.467 166.632 55.1038 169.818Z" fill="#371A45"/>
</g>
<path d="M73.2647 174.812C67.6193 174.812 60.7774 172.885 54.7879 170.676C46.1928 167.505 50.6569 150.938 54.083 141.345C55.2607 138.049 59.1783 135.8 65.1163 135.014C72.5966 134.024 82.578 135.706 85.6607 140.153C88.8752 144.789 87.9043 160.696 83.8688 169.498C82.0853 173.388 78.117 174.812 73.2647 174.812ZM69.6034 136.551C68.1894 136.551 66.7608 136.639 65.3564 136.825C60.2079 137.507 56.7268 139.379 55.8048 141.959C53.7958 147.586 47.8293 166.16 55.4209 168.961C63.9447 172.106 78.7596 176.258 82.2074 168.736C85.8874 160.709 86.9811 145.265 84.159 141.194C82.2214 138.4 76.0741 136.551 69.6034 136.551Z" fill="#371A45"/>
<path d="M79.228 154.878L83.6165 154.624C84.6086 154.566 85.429 155.39 85.3619 156.381C85.1304 159.792 84.2175 166.718 80.6149 166.998C76.2481 167.338 76.3617 162.469 77.7087 156.177C77.8641 155.452 78.488 154.921 79.228 154.878Z" fill="white"/>
<g opacity="0.35">
<path opacity="0.35" d="M77.7202 156.17C76.3581 162.459 76.2335 167.329 80.6009 166.998C82.3941 166.864 83.5252 165.08 84.2368 162.901C83.7102 163.417 83.0923 163.746 82.362 163.801C78.4523 164.096 78.1409 160.223 79.101 154.893C78.4221 154.983 77.8647 155.492 77.7202 156.17Z" fill="#371A45"/>
</g>
<path d="M80.1947 167.77C78.9608 167.77 77.9875 167.369 77.2964 166.575C75.8352 164.897 75.7409 161.738 76.9809 156.01C77.2088 154.958 78.1211 154.181 79.2002 154.121L83.5894 153.876C84.2798 153.836 84.9551 154.098 85.4406 154.59C85.9248 155.081 86.1751 155.758 86.1268 156.445C85.8402 160.535 84.7489 167.442 80.6584 167.752C80.4994 167.764 80.3453 167.77 80.1947 167.77ZM83.7254 155.384C83.7079 155.384 83.6903 155.385 83.6728 155.385L79.283 155.63C78.8816 155.652 78.5419 155.94 78.4578 156.33C78.06 158.168 76.8497 163.76 78.436 165.582C78.8877 166.101 79.5781 166.318 80.5442 166.245C82.6723 166.084 84.1952 162.381 84.6184 156.34C84.6365 156.081 84.5458 155.837 84.3638 155.652C84.1921 155.478 83.9666 155.384 83.7254 155.384ZM79.2413 154.876H79.2444H79.2413Z" fill="#371A45"/>
<path d="M85.4581 143.057C84.9587 142.964 84.4375 142.879 83.9237 142.8C83.408 142.721 82.8905 142.649 82.3711 142.583C81.3325 142.454 80.2902 142.352 79.2358 142.312C80.2582 142.051 81.3035 141.849 82.353 141.676C82.8778 141.591 83.4043 141.511 83.9327 141.439C84.4629 141.368 84.9859 141.301 85.5306 141.244H85.5324C86.036 141.192 86.4864 141.558 86.5384 142.062C86.5904 142.565 86.2246 143.016 85.721 143.068C85.6328 143.077 85.5415 143.072 85.4581 143.057Z" fill="#371A45"/>
<path d="M46.0076 136.23L48.1326 129.893C47.5571 132.128 46.8286 134.247 46.0076 136.23Z" fill="white"/>
<path d="M22.4349 177.235C22.4349 177.235 26.7079 174.26 31.3824 172.29C34.4476 170.996 37.6845 170.137 40.003 170.829C40.003 170.829 58.3105 182.747 68.8735 159.634C72.224 152.303 73.1683 146.737 72.5535 142.516C72.467 141.923 72.3497 141.359 72.204 140.817C72.0517 140.245 71.8655 139.703 71.6508 139.188C71.062 137.768 70.2543 136.554 69.2864 135.516C68.5512 134.73 67.7242 134.045 66.8318 133.449C58.5559 127.929 44.4973 130.026 44.4973 130.026C44.3474 131.074 44.1757 132.09 43.9822 133.07C43.6183 134.932 43.186 136.669 42.7054 138.286C42.5663 138.752 42.4249 139.206 42.278 139.651C40.561 144.897 38.3688 148.766 36.5587 151.366C34.612 154.163 33.1061 155.496 33.1061 155.496C20.4041 152.873 17.6618 163.532 17.6618 163.532C17.6618 163.532 8.65859 157.416 8.5407 165.882C8.45183 172.145 17.3644 180.384 22.4349 177.235Z" fill="white"/>
<g opacity="0.35">
<path opacity="0.35" d="M22.435 177.235C22.435 177.235 34.1478 169.079 40.0031 170.829C40.0031 170.829 58.3106 182.747 68.8736 159.634C72.2241 152.303 73.1684 146.737 72.5536 142.516C72.3764 141.297 72.0693 140.191 71.6503 139.188C71.4853 138.791 71.3045 138.411 71.108 138.047C71.1824 138.385 71.2459 138.732 71.2973 139.089C71.9127 143.309 70.9678 148.875 67.6173 156.206C57.0549 179.319 39.3719 165.15 39.3719 165.15C29.4111 161.915 25.9064 172.498 21.7796 174.391C17.6522 176.285 11.3242 172.066 8.64722 167.207C9.66773 173.231 17.7157 180.165 22.435 177.235Z" fill="#371A45"/>
</g>
<path d="M42.1543 141.178C41.9578 141.865 41.7516 142.552 41.5261 143.233L41.1549 144.243C41.0346 144.582 40.9058 144.917 40.765 145.247C40.4899 145.911 40.2063 146.572 39.8847 147.217C39.5812 147.87 39.2336 148.502 38.8914 149.137C38.1786 150.391 37.4102 151.619 36.5372 152.777C36.319 153.067 36.1025 153.358 35.8716 153.638C35.6455 153.922 35.417 154.205 35.1721 154.476C34.9333 154.751 34.6806 155.016 34.4267 155.281C34.1667 155.55 33.9164 155.795 33.6063 156.062L33.3161 156.313L32.9528 156.236C31.4298 155.921 29.8803 155.776 28.358 155.874C26.8363 155.963 25.3455 156.327 24.0021 156.991C22.6515 157.643 21.4726 158.62 20.5174 159.786C20.0392 160.369 19.6172 161.002 19.2587 161.67C19.0761 162.002 18.9141 162.346 18.766 162.693C18.6916 162.866 18.6227 163.041 18.5592 163.216C18.4964 163.385 18.4335 163.58 18.3942 163.72L18.1137 164.728L17.2376 164.157C16.3955 163.609 15.4409 163.106 14.4935 162.733C13.5456 162.361 12.542 162.103 11.6478 162.166C11.2041 162.199 10.8057 162.32 10.487 162.54C10.1666 162.758 9.91695 163.086 9.73618 163.49C9.5536 163.891 9.43208 164.355 9.37464 164.845L9.3287 165.212L9.31056 165.59C9.2894 165.845 9.30089 166.087 9.30875 166.328C9.36437 167.301 9.64972 168.282 10.0463 169.22C10.4574 170.155 10.9913 171.048 11.6061 171.883C12.8364 173.552 14.4083 175 16.1784 176.03C17.0684 176.525 18.0139 176.925 18.9727 177.084C19.4516 177.179 19.9286 177.179 20.3911 177.142C20.8536 177.101 21.2937 176.958 21.6981 176.773L21.9847 176.62C22.0131 176.606 22.0264 176.598 22.0506 176.581L22.1377 176.521L22.3106 176.404L23.0034 175.948C23.4671 175.649 23.9338 175.357 24.4042 175.07C25.3461 174.499 26.3013 173.95 27.2735 173.428C29.2196 172.389 31.2285 171.444 33.3572 170.735C34.4219 170.385 35.5191 170.094 36.6618 169.935C37.7996 169.775 39.0111 169.77 40.2178 170.104C40.6199 170.215 40.8557 170.632 40.7444 171.034C40.6332 171.436 40.2166 171.672 39.8146 171.56L39.7856 171.552C38.889 171.306 37.877 171.286 36.8649 171.433C35.8511 171.574 34.8336 171.84 33.8324 172.17C31.8277 172.837 29.8803 173.749 27.9881 174.76C27.0425 175.268 26.1097 175.803 25.1901 176.361C24.7313 176.641 24.2754 176.926 23.8244 177.217L23.1533 177.658L22.9883 177.769L22.9073 177.825C22.8764 177.847 22.8323 177.876 22.7997 177.892L22.368 178.127C21.7882 178.399 21.1752 178.585 20.5513 178.644C19.9322 178.698 19.3095 178.686 18.7182 178.573C17.526 178.371 16.4378 177.902 15.4306 177.342C14.4294 176.767 13.5135 176.076 12.6713 175.31C11.8292 174.544 11.065 173.698 10.3903 172.78C9.71562 171.863 9.12436 170.877 8.65944 169.819C8.20965 168.756 7.87049 167.617 7.79975 166.413C7.78826 166.11 7.77799 165.807 7.80036 165.52L7.82212 165.082L7.87653 164.639C7.94848 164.05 8.09538 163.445 8.3626 162.856C8.62377 162.271 9.04455 161.69 9.62857 161.294C10.2083 160.892 10.8933 160.704 11.5311 160.658C12.1744 160.61 12.7874 160.684 13.3696 160.808C13.953 160.934 14.508 161.114 15.0437 161.324C16.1204 161.753 17.1034 162.268 18.0852 162.905L16.9287 163.343C16.997 163.096 17.0611 162.908 17.1367 162.7C17.2104 162.497 17.2884 162.298 17.3731 162.101C17.5411 161.709 17.7231 161.324 17.9275 160.951C18.3301 160.201 18.8041 159.49 19.3452 158.829C20.4249 157.508 21.7816 156.384 23.3317 155.634C24.8739 154.871 26.5722 154.463 28.2589 154.364C29.9487 154.256 31.6312 154.419 33.2569 154.755L32.6033 154.929C32.8149 154.718 33.0586 154.455 33.2841 154.208C33.5108 153.953 33.7381 153.697 33.9545 153.429C34.3971 152.905 34.8269 152.363 35.2368 151.807C36.0554 150.693 36.8311 149.542 37.562 148.359C37.9078 147.756 38.2832 147.169 38.6091 146.552C38.7741 146.246 38.9537 145.946 39.1163 145.637L39.6006 144.708C40.2559 143.472 40.8333 142.195 41.4403 140.92L41.4457 140.908C41.5358 140.72 41.7613 140.639 41.9505 140.729C42.1222 140.813 42.2044 141.003 42.1543 141.178Z" fill="#371A45"/>
<path d="M24.7919 187.798C26.3723 191.773 31.9167 194.271 36.7805 192.009C39.995 190.514 41.938 187.832 43.0311 185.568C44.3073 182.921 45.1821 180.211 47.5146 178.977C50.1747 177.572 55.0281 182.408 64.067 177.264C66.8861 175.662 70.1641 172.234 72.6253 167.157C73.4197 165.52 74.1276 163.712 74.7074 161.737C75.9625 157.472 76.6196 152.43 76.2484 146.671C76.0858 144.173 75.7291 141.538 75.1439 138.775C74.873 137.491 74.552 136.181 74.1772 134.843C73.6748 133.046 73.0781 131.198 72.375 129.302L70.0691 133.941L69.285 135.516L68.7204 136.65L65.1921 143.748L59.7988 154.596L53.5028 167.258L53.0663 168.136C52.4049 167.466 51.6885 166.853 50.9292 166.307C48.6149 164.647 45.8943 163.601 43.0396 163.371C42.9785 163.365 42.9199 163.361 42.8594 163.358C41.5233 163.267 40.1395 163.349 38.8227 163.732C35.0677 164.829 32.1308 168.834 31.3811 172.288C31.1689 173.26 31.1302 174.188 31.2958 174.995C31.5939 176.443 31.895 178.038 31.895 178.038C30.8376 178.569 22.9867 183.259 24.7919 187.798Z" fill="white"/>
<g opacity="0.35">
<path opacity="0.35" d="M24.792 187.799C26.3724 191.773 31.9169 194.271 36.7806 192.009C39.9951 190.514 41.9382 187.832 43.0312 185.568C44.3075 182.922 45.1823 180.211 47.5147 178.977C50.1748 177.572 55.0282 182.408 64.0671 177.265C66.8862 175.663 70.1642 172.234 72.6254 167.157C72.736 166.928 72.846 166.696 72.9537 166.459C73.0377 166.274 73.1217 166.087 73.2033 165.896C73.2505 165.789 73.2976 165.681 73.3442 165.572C73.4947 165.216 73.6398 164.852 73.7837 164.481C73.8182 164.389 73.8526 164.297 73.8865 164.204C73.927 164.097 73.9657 163.993 74.0032 163.889C74.0449 163.772 74.0866 163.657 74.1271 163.54C74.2517 163.187 74.372 162.828 74.4856 162.463C74.5624 162.223 74.6356 161.981 74.7081 161.736C77.101 153.604 77.3229 142.656 72.3757 129.301L72.1623 129.729C76.2679 143.726 74.5969 154.77 71.0964 162.327C66.1674 162.398 61.196 159.913 59.7916 159.149L60.3097 157.757C60.7221 156.652 60.4887 155.457 59.7995 154.594C59.5746 154.309 59.2989 154.062 58.9821 153.863C58.8013 153.748 58.6055 153.654 58.3969 153.576L44.2488 148.31C42.5718 147.685 40.6897 148.545 40.0664 150.223L39.5296 151.665C39.4353 151.622 39.3385 151.587 39.2376 151.556C37.728 151.094 36.1313 151.943 35.6712 153.452C35.2124 154.95 36.0473 156.538 37.5393 157.01L37.2624 157.753C36.6391 159.429 37.5019 161.31 39.1771 161.933L43.0403 163.371L50.9299 166.307L53.327 167.2C53.3856 167.222 53.4443 167.242 53.5035 167.258C55.1322 167.763 56.9042 166.905 57.5076 165.287L57.929 164.156C62.2637 166.059 65.769 166.844 68.3396 167.127C66.3808 169.9 64.2255 171.865 62.2861 172.968C53.2472 178.11 48.3937 173.275 45.7354 174.68C43.4012 175.914 42.527 178.625 41.2502 181.272C40.1571 183.535 38.214 186.218 34.9995 187.712C31.1974 189.481 26.9769 188.34 24.5629 185.857C24.4728 186.501 24.5333 187.152 24.792 187.799Z" fill="#371A45"/>
</g>
<path d="M52.8521 168.349C50.64 166.722 48.284 165.469 45.7557 164.806C44.4976 164.469 43.1966 164.313 41.9089 164.299C40.6302 164.294 39.3497 164.488 38.2397 164.967C37.1098 165.452 36.0718 166.223 35.1915 167.154C34.3082 168.083 33.5646 169.167 33.0181 170.331C32.8645 170.616 32.772 170.923 32.6451 171.217C32.5308 171.515 32.4522 171.822 32.3549 172.123C32.2201 172.732 32.0913 173.351 32.1137 173.941C32.0919 174.244 32.1602 174.516 32.185 174.801L32.3845 175.823L32.7865 177.871L32.9165 178.533L32.3011 178.85C32.0883 178.96 31.8313 179.109 31.5937 179.254C31.3513 179.4 31.1113 179.555 30.8731 179.712C30.3973 180.028 29.9318 180.361 29.4814 180.709C28.583 181.407 27.7312 182.165 27.0178 183.002C26.3092 183.834 25.7234 184.762 25.516 185.695C25.412 186.16 25.4066 186.617 25.5106 187.054C25.5632 187.272 25.6351 187.48 25.7573 187.719L25.9193 188.067C25.9821 188.18 26.0559 188.287 26.1224 188.397C27.2227 190.161 29.2045 191.394 31.3023 191.797C32.3543 192.002 33.4431 192.004 34.4902 191.797C34.7568 191.766 35.0083 191.671 35.2665 191.604C35.5277 191.544 35.7737 191.437 36.021 191.337L36.394 191.188L36.761 191.005C37.0088 190.889 37.2392 190.74 37.478 190.607C39.3497 189.465 40.8539 187.741 41.9089 185.77C42.4312 184.792 42.8858 183.683 43.4142 182.591C43.9414 181.498 44.5569 180.355 45.5054 179.376C45.9848 178.889 46.5241 178.47 47.1722 178.139C47.5555 177.941 47.9672 177.86 48.3451 177.823C48.7296 177.784 49.0772 177.812 49.4133 177.844C50.0772 177.922 50.6745 178.058 51.2567 178.184C51.8377 178.312 52.4005 178.436 52.9616 178.533C55.1936 178.945 57.4378 178.865 59.5918 178.217C60.6674 177.905 61.7163 177.474 62.7289 176.955C62.9823 176.826 63.2307 176.685 63.4822 176.551C63.7343 176.415 63.9556 176.264 64.1944 176.123C64.4266 175.974 64.6502 175.805 64.8788 175.647C65.1037 175.482 65.3189 175.3 65.5396 175.128C67.268 173.683 68.7522 171.904 69.9989 169.978C71.2425 168.045 72.2726 165.966 73.0652 163.794C73.8657 161.626 74.4545 159.376 74.8432 157.09C75.625 152.512 75.5923 147.808 74.9865 143.186L74.7121 141.457C74.6165 140.882 74.4859 140.312 74.3693 139.74C74.2586 139.167 74.1141 138.601 73.9769 138.034C73.8348 137.468 73.7248 136.895 73.5724 136.33C73.0441 134.05 72.4038 131.808 72.0925 129.407L72.0919 129.402C72.0701 129.232 72.1892 129.078 72.3585 129.055C72.4812 129.04 72.5973 129.098 72.6596 129.197C72.9848 129.711 73.2762 130.241 73.5483 130.78C73.6897 131.048 73.8161 131.321 73.9455 131.593C74.07 131.868 74.1758 132.148 74.2913 132.426C74.5186 132.984 74.7344 133.546 74.9212 134.117C75.0996 134.692 75.2767 135.267 75.4406 135.846C75.5288 136.134 75.605 136.425 75.6691 136.719L75.8704 137.6C76.004 138.187 76.1292 138.777 76.2235 139.372C76.3208 139.967 76.4381 140.558 76.5294 141.153L76.7851 142.943C77.4114 147.721 77.4483 152.609 76.6322 157.393C76.2259 159.782 75.6086 162.141 74.7665 164.423C73.9322 166.708 72.8458 168.905 71.5218 170.963C70.1923 173.014 68.6096 174.924 66.6955 176.525C66.4494 176.718 66.2106 176.919 65.9573 177.104C65.6986 177.284 65.4477 177.473 65.1804 177.644C64.9102 177.806 64.6388 177.987 64.3679 178.132C64.0965 178.278 63.8286 178.43 63.5536 178.569C62.4551 179.132 61.301 179.608 60.0991 179.957C58.8984 180.309 57.6482 180.531 56.387 180.584C55.1265 180.647 53.8624 180.532 52.6484 180.318C51.4386 180.115 50.2531 179.774 49.2144 179.646C48.6981 179.587 48.2616 179.616 47.9721 179.765C47.564 179.974 47.1492 180.284 46.801 180.644C46.09 181.372 45.5429 182.34 45.0472 183.378C44.5417 184.42 44.0992 185.512 43.5055 186.628C42.3272 188.831 40.6145 190.817 38.4241 192.153C37.342 192.812 36.1171 193.324 34.8366 193.576C33.5574 193.829 32.2303 193.825 30.9553 193.576C29.6797 193.328 28.4518 192.84 27.3557 192.132C26.2615 191.424 25.2917 190.491 24.5832 189.355C24.4961 189.213 24.4042 189.073 24.3226 188.927L24.1068 188.47C23.9605 188.181 23.8299 187.827 23.7453 187.469C23.5729 186.751 23.5893 185.993 23.7453 185.302C24.0663 183.909 24.8238 182.791 25.6388 181.823C26.4658 180.854 27.3999 180.03 28.372 179.273C28.8593 178.896 29.3593 178.539 29.8713 178.199C30.1283 178.029 30.3864 177.863 30.6518 177.702C30.9209 177.54 31.1754 177.388 31.4898 177.226L31.0049 178.205L30.6065 176.175L30.4076 175.157C30.3574 174.754 30.2782 174.342 30.3 173.95C30.2981 172.36 30.7467 170.899 31.3761 169.559C32.0127 168.219 32.8391 166.98 33.8506 165.889C34.8644 164.806 36.0663 163.855 37.4731 163.214C38.9017 162.557 40.4295 162.357 41.9125 162.348C42.6555 162.344 43.39 162.414 44.1186 162.528C44.8477 162.635 45.5653 162.809 46.266 163.028C49.0681 163.891 51.6037 165.607 53.2832 167.922C53.3823 168.059 53.3521 168.25 53.2155 168.349C53.1054 168.429 52.9591 168.425 52.8551 168.348L52.8521 168.349Z" fill="#371A45"/>
<path d="M46.6365 180.319C46.5374 180.319 46.437 180.299 46.3403 180.258C45.9564 180.094 45.778 179.65 45.9419 179.266C47.7314 175.072 45.7309 170.516 43.1149 168.059C40.7504 165.837 38.0154 165.176 35.7984 166.29C35.4248 166.478 34.9714 166.327 34.784 165.954C34.5966 165.581 34.7471 165.127 35.1201 164.939C37.8866 163.549 41.3466 164.322 44.1505 166.957C47.2368 169.857 49.4181 174.97 47.3324 179.859C47.2096 180.146 46.9303 180.319 46.6365 180.319Z" fill="#371A45"/>
<path d="M32.4658 177.658C32.7875 178.223 33.2004 178.81 33.6308 179.345C34.0667 179.883 34.5425 180.393 35.0691 180.843C35.5951 181.294 36.1742 181.689 36.8163 181.96C37.4553 182.236 38.1651 182.369 38.8839 182.302C38.1868 182.482 37.4281 182.469 36.7093 182.286C35.9874 182.109 35.3031 181.788 34.6683 181.4C34.0317 181.011 33.441 180.552 32.8866 180.054C32.3298 179.549 31.8208 179.033 31.325 178.418C31.0862 178.123 31.1328 177.689 31.4284 177.451C31.724 177.212 32.1575 177.258 32.3963 177.554C32.4193 177.582 32.4392 177.611 32.4568 177.642L32.4658 177.658Z" fill="#371A45"/>
<path d="M28.8518 174.216C28.7182 174.216 28.5828 174.18 28.4601 174.106C28.1034 173.889 27.9903 173.424 28.2073 173.068C30.4588 169.366 31.1764 165.933 30.3415 162.863C29.1517 158.49 25.1476 156.296 25.1077 156.274C24.7408 156.077 24.6017 155.619 24.7982 155.252C24.9947 154.884 25.4517 154.744 25.8193 154.941C26.0067 155.041 30.4237 157.443 31.7948 162.447C32.7513 165.937 31.9792 169.775 29.4987 173.853C29.356 174.087 29.1069 174.216 28.8518 174.216Z" fill="#371A45"/>
<path d="M39.66 154.231C41.0527 153.49 41.5817 151.761 40.8415 150.369C40.1012 148.976 38.3721 148.447 36.9793 149.187C35.5866 149.927 35.0576 151.656 35.7978 153.049C36.5381 154.442 38.2672 154.971 39.66 154.231Z" fill="white"/>
<g opacity="0.35">
<path opacity="0.35" d="M35.596 150.876C35.1347 152.384 35.9817 153.982 37.4901 154.444C38.9985 154.905 40.597 154.055 41.0583 152.547C41.1858 152.131 41.2136 151.705 41.1526 151.299C40.4319 152.088 39.2941 152.439 38.2047 152.106C37.1153 151.773 36.3692 150.845 36.2151 149.789C35.9382 150.091 35.7236 150.46 35.596 150.876Z" fill="#371A45"/>
</g>
<path d="M38.3309 155.326C37.976 155.326 37.6193 155.273 37.2699 155.166C36.3473 154.884 35.5898 154.26 35.137 153.408C34.6842 152.556 34.5904 151.579 34.8728 150.656C35.4556 148.752 37.4785 147.676 39.3828 148.259C41.2872 148.842 42.3628 150.866 41.78 152.769C41.4976 153.692 40.8731 154.449 40.0213 154.902C39.4917 155.183 38.9137 155.326 38.3309 155.326ZM38.3237 149.611C37.9845 149.611 37.6484 149.695 37.3406 149.858C36.8455 150.121 36.4821 150.561 36.3177 151.098C36.1539 151.635 36.2083 152.203 36.4713 152.698C36.7348 153.194 37.175 153.556 37.7118 153.721C38.2487 153.885 38.8164 153.83 39.3121 153.567C39.8073 153.304 40.1706 152.864 40.335 152.327C40.6742 151.219 40.0485 150.043 38.9409 149.704C38.7378 149.642 38.5298 149.611 38.3237 149.611ZM35.5952 150.877H35.5983H35.5952Z" fill="#371A45"/>
<path d="M39.1004 159.358L53.2509 164.624C54.9256 165.248 56.8076 164.388 57.4321 162.711L60.2343 155.181C60.7808 153.713 60.1883 152.089 58.9066 151.288C58.7259 151.173 58.5294 151.078 58.3208 151L44.1727 145.734C42.4957 145.109 40.6142 145.97 39.9915 147.647L37.771 153.61L37.1876 155.176C36.563 156.854 37.4258 158.734 39.1004 159.358Z" fill="white"/>
<g opacity="0.35">
<path opacity="0.35" d="M39.1004 159.358L53.2509 164.624C54.9256 165.248 56.8076 164.388 57.4321 162.711L60.2343 155.181C60.7808 153.713 60.1883 152.089 58.9066 151.288C57.9042 151.523 57.267 151.674 57.267 151.674C54.3282 157.463 52.9263 162.042 43.7798 157.93C40.6263 156.512 38.8138 154.756 37.771 153.611L37.1876 155.177C36.563 156.854 37.4258 158.734 39.1004 159.358Z" fill="#371A45"/>
</g>
<path d="M54.3784 165.585C53.9087 165.585 53.4383 165.501 52.9861 165.333L38.8368 160.066C37.8369 159.695 37.0407 158.952 36.5945 157.976C36.1483 157.001 36.1072 155.913 36.4796 154.914L39.2824 147.383C40.0532 145.312 42.3645 144.255 44.4351 145.025L58.5844 150.292C60.655 151.063 61.7124 153.374 60.9416 155.445L58.1382 162.976C57.7664 163.975 57.024 164.772 56.0488 165.218C55.515 165.462 54.9473 165.585 54.3784 165.585ZM43.044 146.285C42.6891 146.285 42.3348 146.362 42.0011 146.515C41.3923 146.793 40.9304 147.289 40.6989 147.91L37.8961 155.442C37.6652 156.063 37.6906 156.74 37.9693 157.348C38.248 157.957 38.7431 158.419 39.3646 158.651L53.5139 163.917C54.1354 164.148 54.8125 164.122 55.4207 163.844C56.0289 163.566 56.4914 163.07 56.7229 162.448L59.5263 154.917C59.7572 154.296 59.7319 153.619 59.4532 153.011C59.1744 152.402 58.6793 151.94 58.0578 151.708L43.9085 146.442C43.628 146.337 43.336 146.285 43.044 146.285Z" fill="#371A45"/>
<path d="M38.5532 159.091C38.7225 159.197 38.9039 159.286 39.1004 159.358L53.2508 164.624C54.4781 165.081 55.816 164.742 56.6896 163.866C57.0076 163.548 57.2646 163.158 57.4296 162.711L58.6762 159.366L59.0873 158.263L60.2342 155.182C60.8587 153.505 59.9954 151.624 58.3214 151L55.2635 149.863C56.5742 150.653 57.1848 152.295 56.6334 153.778L55.1208 157.847L53.8306 161.311C53.2067 162.985 51.3241 163.848 49.6494 163.224L38.5532 159.091Z" fill="white"/>
<g opacity="0.35">
<path opacity="0.35" d="M38.5532 159.091C38.7225 159.198 38.9039 159.286 39.1004 159.358L53.2508 164.625C54.9255 165.249 56.8075 164.388 57.4296 162.711L59.0873 158.262C58.4386 158.916 57.4405 159.643 56.3795 159.363C55.7973 159.211 55.3946 158.601 55.1208 157.846L53.8306 161.31C53.2067 162.985 51.3241 163.847 49.6494 163.223L38.5532 159.091Z" fill="#371A45"/>
</g>
<path d="M54.3786 165.585C53.9088 165.585 53.4391 165.501 52.9869 165.333L38.837 160.066C38.6024 159.98 38.3709 159.868 38.155 159.734L38.8164 158.383L49.9145 162.515C50.5354 162.746 51.2119 162.72 51.8201 162.442C52.4289 162.163 52.8913 161.668 53.1217 161.046L55.9251 153.515C56.3428 152.393 55.9003 151.128 54.8737 150.508L55.5279 149.153L58.5846 150.291C59.5845 150.664 60.3807 151.405 60.8269 152.381C61.2737 153.357 61.3142 154.445 60.9412 155.444L58.1384 162.975C57.7666 163.974 57.0248 164.771 56.049 165.218C55.5152 165.462 54.9469 165.585 54.3786 165.585ZM52.7825 163.644L53.5141 163.917C54.1349 164.148 54.8114 164.122 55.4202 163.844C56.029 163.565 56.4909 163.07 56.7219 162.448V162.448L59.5247 154.917C59.7562 154.295 59.7302 153.618 59.4521 153.01C59.174 152.402 58.6777 151.939 58.0562 151.707L57.4135 151.468C57.6662 152.287 57.6578 153.19 57.3404 154.042L54.5376 161.573C54.2099 162.455 53.5939 163.179 52.7825 163.644Z" fill="#371A45"/>
<path d="M49.6297 155.528C49.5275 155.808 49.0964 158.204 49.0964 158.204C49.0964 158.204 49.8098 158.465 50.6864 158.785C51.7813 159.185 53.083 158.376 53.5944 156.978C54.1059 155.58 53.6325 154.121 52.5382 153.721C51.7995 153.451 50.9482 153.14 50.9482 153.14C50.9482 153.14 49.7959 155.074 49.6297 155.528Z" fill="#22A7F0"/>
<g opacity="0.35">
<path opacity="0.35" d="M49.6297 155.528C49.5275 155.808 49.0964 158.204 49.0964 158.204C49.0964 158.204 49.8098 158.465 50.6864 158.785C51.7813 159.185 53.083 158.376 53.5944 156.978C54.1059 155.58 53.6325 154.121 52.5382 153.721C51.7995 153.451 50.9482 153.14 50.9482 153.14C50.9482 153.14 49.7959 155.074 49.6297 155.528Z" fill="#371A45"/>
</g>
<path d="M51.2717 159.343C51.0196 159.343 50.77 159.299 50.5299 159.211L48.582 158.499L48.6497 158.124C48.7525 157.552 49.0965 155.666 49.2035 155.373C49.3795 154.892 50.4381 153.11 50.5578 152.909L50.75 152.586L52.6931 153.296C53.3563 153.539 53.8557 154.086 54.0993 154.836C54.3303 155.547 54.3018 156.363 54.0195 157.135C53.7378 157.906 53.2324 158.548 52.5976 158.942C52.1701 159.208 51.7167 159.343 51.2717 159.343ZM49.6104 157.91L50.8419 158.36C51.2373 158.505 51.6913 158.438 52.12 158.172C52.5837 157.883 52.9561 157.404 53.1689 156.823C53.3817 156.242 53.4059 155.635 53.2378 155.116C53.0824 154.637 52.7783 154.293 52.3829 154.148L51.1472 153.696C50.7149 154.432 50.1533 155.421 50.0572 155.684C50.0022 155.842 49.799 156.879 49.6104 157.91ZM49.6298 155.529H49.6328H49.6298Z" fill="#371A45"/>
<path d="M52.0037 156.387C52.515 154.989 52.042 153.531 50.9472 153.131C49.8525 152.73 48.5505 153.54 48.0393 154.938C47.528 156.336 48.001 157.794 49.0958 158.194C50.1905 158.595 51.4924 157.786 52.0037 156.387Z" fill="#22A7F0"/>
<g opacity="0.35">
<path opacity="0.35" d="M52.0037 156.398C51.4935 157.796 50.1906 158.605 49.0963 158.205C48.0003 157.804 47.5275 156.346 48.0402 154.947C48.1085 154.758 48.1931 154.579 48.2899 154.413C48.2203 155.477 48.6955 156.426 49.5455 156.736C50.4911 157.082 51.592 156.526 52.2026 155.464C52.1833 155.77 52.1168 156.085 52.0037 156.398Z" fill="#371A45"/>
</g>
<path d="M52.0038 156.397C51.9693 156.493 51.9307 156.585 51.8877 156.674C52.0709 155.498 51.5891 154.404 50.6641 154.067C49.6436 153.695 48.4423 154.372 47.8728 155.599C47.9061 155.381 47.9617 155.164 48.0409 154.946C48.5511 153.549 49.854 152.739 50.9482 153.139C52.0419 153.541 52.5147 154.998 52.0038 156.397Z" fill="white"/>
<path d="M49.6707 158.758C49.424 158.758 49.178 158.717 48.9398 158.63C47.6122 158.144 47.0173 156.422 47.6134 154.791C47.8951 154.021 48.4005 153.378 49.0353 152.984C49.7058 152.567 50.4397 152.472 51.1035 152.715C52.4312 153.2 53.026 154.922 52.4299 156.552C51.9409 157.89 50.7988 158.758 49.6707 158.758ZM50.3641 153.491C50.0854 153.491 49.794 153.58 49.5141 153.754C49.0504 154.042 48.678 154.521 48.4652 155.102C48.0408 156.263 48.3933 157.463 49.2517 157.777C50.1096 158.089 51.1537 157.401 51.5781 156.24C52.0025 155.08 51.6501 153.88 50.7916 153.566C50.6549 153.516 50.5117 153.491 50.3641 153.491ZM48.0396 154.947H48.0426H48.0396Z" fill="#371A45"/>
<path d="M43.5194 161.546C43.4541 161.546 43.387 161.535 43.3217 161.512C43.0061 161.403 42.8386 161.059 42.9481 160.743L44.2757 156.901C44.5181 156.2 44.3936 155.43 43.9426 154.842C43.228 153.908 43.0436 152.691 43.4498 151.588L45.4304 146.21C45.5459 145.896 45.8935 145.737 46.2067 145.852C46.5198 145.967 46.6806 146.315 46.5652 146.628L44.5846 152.006C44.3222 152.718 44.4407 153.504 44.9026 154.106C45.6003 155.018 45.7931 156.21 45.4183 157.296L44.0907 161.138C44.0048 161.388 43.7703 161.546 43.5194 161.546Z" fill="#371A45"/>
<path d="M75.2384 158.931C75.2384 158.931 76.3702 160.419 75.7505 162.098C75.0341 164.038 73.3087 164.449 73.3087 164.449C73.3087 164.449 67.3911 166.005 56.9569 161.175C56.9569 161.175 55.3621 157.282 59.3238 156.355C59.3238 156.355 68.4685 161.771 75.2384 158.931Z" fill="white"/>
<g opacity="0.35">
<path opacity="0.35" d="M75.7639 162.06C75.7645 162.06 75.7639 162.06 75.7639 162.06C75.0559 164.032 73.3081 164.45 73.3081 164.45C73.3081 164.45 67.3912 166.005 56.957 161.176C56.957 161.176 55.7388 158.201 58.0779 156.833C58.0748 156.846 58.0724 156.858 58.07 156.87C57.8022 158.151 58.5041 159.444 59.7078 159.957C69.2738 164.028 74.6666 162.611 74.6666 162.611C74.6666 162.611 75.1811 162.488 75.7639 162.06Z" fill="#371A45"/>
</g>
<path d="M70.6584 165.45C67.9402 165.45 63.3298 164.881 57.1046 162.074C56.5841 161.839 56.1911 161.366 56.0538 160.809C55.459 158.392 56.4099 156.511 58.5979 155.777C59.0803 155.615 59.6202 155.665 60.0785 155.913C61.449 156.656 68.5648 160.271 74.1522 158.524C75.1158 158.223 76.1575 158.769 76.4749 159.74C76.7669 160.634 76.7615 161.541 76.4592 162.36C75.6122 164.653 73.5706 165.165 73.4841 165.185C73.394 165.208 72.4261 165.45 70.6584 165.45ZM59.1777 157.194C59.1432 157.194 59.1099 157.2 59.0785 157.21C57.636 157.694 57.1118 158.783 57.5217 160.447C57.5489 160.558 57.6251 160.651 57.7261 160.697C67.4566 165.083 73.0639 163.732 73.1196 163.719C73.1818 163.702 74.4823 163.351 75.0415 161.837C75.2277 161.333 75.2265 160.785 75.0385 160.209C74.978 160.024 74.7779 159.912 74.6038 159.967C68.5914 161.849 61.4152 158.357 59.359 157.243C59.3004 157.21 59.2381 157.194 59.1777 157.194Z" fill="#371A45"/>
<g opacity="0.35">
<path opacity="0.35" d="M42.2056 162.734C42.2564 162.527 42.5115 161.528 42.9057 159.936C42.5115 161.528 42.2582 162.527 42.2056 162.734Z" fill="#371A45"/>
</g>
<g opacity="0.35">
<path opacity="0.35" d="M42.1959 162.775L42.1941 162.774C42.1941 162.774 42.1982 162.761 42.2042 162.736C42.2 162.762 42.1959 162.775 42.1959 162.775Z" fill="#371A45"/>
</g>
<path d="M18.1245 163.026C18.396 163.357 18.6305 163.676 18.8675 164.01C19.1009 164.343 19.327 164.679 19.5362 165.026C19.9533 165.716 20.3366 166.444 20.5422 167.213C20.1262 166.538 19.5791 165.983 19.0072 165.462C18.7212 165.201 18.4219 164.955 18.1191 164.716C17.818 164.48 17.5012 164.242 17.1989 164.038C16.8809 163.825 16.7969 163.394 17.0103 163.076C17.2237 162.758 17.6542 162.674 17.9722 162.887C18.0284 162.926 18.0779 162.97 18.1191 163.02L18.1245 163.026Z" fill="#371A45"/>
<g opacity="0.35">
<path opacity="0.35" d="M80.787 161.856C80.7815 161.953 80.793 162.036 80.8184 162.113C80.8021 162.031 80.7918 161.945 80.787 161.856Z" fill="#371A45"/>
</g>
<path d="M20.4387 177.901C20.7827 177.496 20.9622 176.879 20.8462 175.959C20.2869 171.516 12.8719 161.497 8.75725 164.006C8.62666 164.532 8.54988 165.153 8.54021 165.882C8.46222 171.384 15.3325 178.411 20.4387 177.901Z" fill="#848484"/>
<g opacity="0.35">
<path opacity="0.35" d="M11.1052 172.483C13.5555 175.721 17.3262 178.212 20.4385 177.901C20.7825 177.496 20.9621 176.879 20.846 175.958C20.5909 173.931 18.909 170.744 16.7622 168.115C17.5239 169.768 18.8394 173.937 17.0542 174.849C15.2689 175.761 12.9044 173.503 11.1052 172.483Z" fill="#371A45"/>
</g>
<g opacity="0.7">
<path opacity="0.7" d="M10.1157 171.007C9.59878 169.801 9.30859 168.576 9.32431 167.42C9.32491 167.385 9.32552 167.352 9.32612 167.318C9.35695 165.923 10.7021 164.919 12.043 165.306C14.8198 166.108 18.0506 169.787 19.9719 173.2C17.7858 168.384 12.1488 161.937 8.75722 164.006C8.62664 164.532 8.54986 165.153 8.54018 165.882C8.51721 167.535 9.12056 169.326 10.1157 171.007Z" fill="white"/>
</g>
<path d="M19.905 178.532C17.6663 178.532 15.0914 177.333 12.7403 175.175C9.73436 172.415 7.89345 168.852 7.93577 165.874C7.94545 165.126 8.02464 164.448 8.17035 163.86L8.2302 163.618L8.4424 163.489C9.5415 162.82 10.9151 162.848 12.4144 163.57C16.4414 165.511 20.9902 172.261 21.446 175.883C21.5748 176.903 21.391 177.714 20.8995 178.292L20.7417 178.479L20.4987 178.503C20.304 178.523 20.1057 178.532 19.905 178.532ZM20.4388 177.901H20.4418H20.4388ZM9.28698 164.407C9.19992 164.846 9.15216 165.343 9.14491 165.89C9.10803 168.495 10.8401 171.789 13.5582 174.284C15.7305 176.278 18.1511 177.398 20.1069 177.319C20.2689 177.011 20.3155 176.58 20.2472 176.034C19.8355 172.763 15.5479 166.422 11.8902 164.66C10.8679 164.167 9.99372 164.083 9.28698 164.407Z" fill="#371A45"/>
<path d="M10.2405 167.044C9.48055 167.044 8.77563 166.95 8.27021 166.696C7.97216 166.545 7.85245 166.182 8.00239 165.884C8.15292 165.586 8.51627 165.466 8.81432 165.616C9.83665 166.132 12.7863 165.637 14.4054 165.205C14.7276 165.119 15.0595 165.311 15.1453 165.633C15.2318 165.956 15.0401 166.287 14.7173 166.373C14.38 166.464 12.1382 167.044 10.2405 167.044Z" fill="#371A45"/>
<path d="M12 170.124C10.9971 170.124 9.93303 169.959 8.88834 169.512C8.58122 169.381 8.43915 169.025 8.57034 168.718C8.70213 168.411 9.05701 168.269 9.36413 168.4C12.731 169.841 16.5591 167.764 16.5972 167.743C16.8898 167.581 17.2574 167.687 17.4188 167.979C17.5808 168.27 17.4756 168.638 17.1842 168.8C17.0548 168.872 14.7605 170.124 12 170.124Z" fill="#371A45"/>
<path d="M13.5129 172.964C12.6895 172.964 11.7639 172.889 10.7289 172.706C10.4 172.648 10.1805 172.334 10.2386 172.006C10.2966 171.677 10.6098 171.458 10.9386 171.515C16.2395 172.45 18.1886 170.379 18.208 170.358C18.4322 170.11 18.8143 170.092 19.0622 170.316C19.3095 170.541 19.3276 170.923 19.1033 171.17C19.0241 171.258 17.4214 172.964 13.5129 172.964Z" fill="#371A45"/>
<path d="M15.6149 176.314C15.1119 176.314 14.5763 176.265 14.0086 176.151C13.6815 176.086 13.4687 175.767 13.534 175.44C13.5993 175.113 13.9161 174.9 14.2456 174.966C17.7128 175.658 19.8046 173.493 19.8251 173.472C20.0548 173.229 20.4369 173.218 20.68 173.447C20.923 173.677 20.9333 174.059 20.7042 174.302C20.6147 174.397 18.7611 176.314 15.6149 176.314Z" fill="#371A45"/>
<path d="M90.748 122.868C90.4396 122.806 90.2401 122.506 90.3024 122.197L93.5586 106.115C93.6209 105.807 93.9213 105.607 94.2297 105.67C97.4647 106.324 99.5559 109.478 98.9012 112.713L97.7906 118.197C97.1364 121.432 93.983 123.524 90.748 122.868Z" fill="white"/>
<path d="M91.9353 123.163C91.532 123.163 91.1233 123.124 90.7128 123.041C90.3102 122.959 90.049 122.565 90.1307 122.162L93.3868 106.08C93.4261 105.885 93.5392 105.717 93.7055 105.607C93.8711 105.497 94.07 105.458 94.2653 105.497C95.8758 105.823 97.2627 106.757 98.1708 108.127C99.0789 109.496 99.3993 111.137 99.0734 112.748L97.9634 118.232C97.3734 121.146 94.8003 123.163 91.9353 123.163ZM90.7824 122.697C93.9171 123.332 96.984 121.297 97.6188 118.162L98.7288 112.678C99.0365 111.16 98.7342 109.613 97.8776 108.321C97.0209 107.03 95.7132 106.15 94.1946 105.842C94.0912 105.821 93.9866 105.842 93.8983 105.9C93.8106 105.958 93.7508 106.047 93.7296 106.15L90.4734 122.232C90.4317 122.445 90.5696 122.654 90.7824 122.697Z" fill="#371A45"/>
<g opacity="0.35">
<path opacity="0.35" d="M98.8774 115.856L98.3575 118.429C97.7021 121.663 94.5493 123.755 91.313 123.101C91.0047 123.039 90.8058 122.736 90.8681 122.429L91.732 118.153C91.7792 118.365 91.9473 118.54 92.1728 118.587L92.5542 118.663C95.1109 119.18 97.6175 117.982 98.8774 115.856Z" fill="#371A45"/>
</g>
<path d="M91.935 123.966C91.4791 123.966 91.0173 123.921 90.5536 123.828H90.553C89.7174 123.658 89.1751 122.84 89.3444 122.004L92.6006 105.922C92.6828 105.517 92.9174 105.168 93.262 104.94C93.6066 104.711 94.0201 104.631 94.4246 104.713C96.2443 105.081 97.8126 106.137 98.8391 107.685C99.8657 109.233 100.228 111.087 99.8597 112.908L98.7497 118.392C98.0816 121.686 95.1736 123.966 91.935 123.966ZM91.3443 121.976C93.9028 122.282 96.3133 120.571 96.8332 118.004L97.9432 112.52C98.208 111.211 97.9474 109.877 97.2098 108.765C96.5472 107.766 95.5715 107.052 94.4318 106.725L91.3443 121.976Z" fill="#371A45"/>
<path d="M41.1459 94.9227C41.4543 94.985 41.6538 95.2854 41.5915 95.5938L38.3353 111.676C38.273 111.984 37.9726 112.184 37.6642 112.121C34.4292 111.467 32.338 108.313 32.9928 105.078L34.1033 99.5942C34.7575 96.3591 37.9109 94.2679 41.1459 94.9227Z" fill="white"/>
<path d="M37.7785 112.309C37.729 112.309 37.6788 112.304 37.6286 112.293C36.018 111.968 34.6312 111.034 33.7231 109.664C32.815 108.295 32.494 106.653 32.8205 105.043L33.9305 99.5588C34.604 96.2343 37.8553 94.0766 41.1804 94.7501C41.3757 94.7894 41.5438 94.9024 41.6538 95.0687C41.7638 95.2343 41.8025 95.4332 41.7632 95.6285L38.507 111.711C38.4677 111.906 38.3547 112.074 38.1884 112.184C38.0651 112.266 37.9236 112.309 37.7785 112.309ZM39.9586 94.9786C37.2568 94.9786 34.8319 96.8806 34.2751 99.6289L33.1651 105.113C32.8574 106.632 33.1596 108.179 34.0163 109.47C34.873 110.761 36.1807 111.642 37.6993 111.949C37.8027 111.971 37.9079 111.95 37.9956 111.891C38.0832 111.833 38.1431 111.744 38.1643 111.641L41.4204 95.559C41.4416 95.4556 41.4211 95.351 41.3624 95.2627C41.3044 95.1751 41.2155 95.1152 41.1121 95.0941C40.7246 95.0161 40.3383 94.9786 39.9586 94.9786Z" fill="#371A45"/>
<g opacity="0.35">
<path opacity="0.35" d="M39.2398 107.216L38.3359 111.677C38.2737 111.986 37.9714 112.184 37.6637 112.122C35.966 111.778 34.5816 110.746 33.7449 109.373C32.9897 108.134 32.682 106.616 32.9928 105.08L33.4607 102.77C33.9685 104.983 35.7284 106.809 38.1001 107.29L38.6872 107.408C38.9012 107.451 39.1074 107.37 39.2398 107.216Z" fill="#371A45"/>
</g>
<path d="M37.7804 113.111C37.677 113.111 37.573 113.1 37.4696 113.079C35.6499 112.711 34.0816 111.656 33.0551 110.108C32.0285 108.56 31.6658 106.705 32.0346 104.884L33.1446 99.4004C33.9057 95.6424 37.5821 93.2042 41.3395 93.9653C41.7445 94.0469 42.0934 94.2821 42.3219 94.6261C42.5504 94.9707 42.6308 95.383 42.5486 95.7881L39.2924 111.87C39.2102 112.275 38.9756 112.624 38.6316 112.853C38.3759 113.022 38.0815 113.111 37.7804 113.111ZM39.9586 95.7808C37.6305 95.7808 35.5405 97.4198 35.0604 99.7885L33.9505 105.273C33.6857 106.581 33.9462 107.915 34.6838 109.028C35.3464 110.026 36.3222 110.74 37.4618 111.067L40.5493 95.8159C40.3516 95.7923 40.1539 95.7808 39.9586 95.7808Z" fill="#371A45"/>
<path d="M65.95 136.858C81.3925 136.858 93.9112 124.339 93.9112 108.897C93.9112 93.4542 81.3925 80.9355 65.95 80.9355C50.5074 80.9355 37.9888 93.4542 37.9888 108.897C37.9888 124.339 50.5074 136.858 65.95 136.858Z" fill="white"/>
<path d="M65.9937 137.046C63.4672 137.046 60.9256 136.702 58.4245 136.008C51.1824 133.998 45.1567 129.289 41.4579 122.746C37.7586 116.204 36.8282 108.613 38.8384 101.371C42.9881 86.4211 58.5273 77.6343 73.4758 81.7841C88.4255 85.9338 97.2117 101.472 93.0626 116.422C91.0524 123.664 86.3428 129.689 79.8002 133.388C75.5168 135.811 70.7837 137.046 65.9937 137.046ZM65.9586 81.1076C53.7863 81.1076 42.5867 89.1779 39.1763 101.465C37.1915 108.617 38.1099 116.113 41.7632 122.574C45.4166 129.034 51.3668 133.685 58.5182 135.67C65.6696 137.656 73.1663 136.737 79.6267 133.083C86.0871 129.43 90.738 123.48 92.7234 116.328C96.8212 101.566 88.1444 86.221 73.3815 82.1233C70.9052 81.4353 68.412 81.1076 65.9586 81.1076Z" fill="#371A45"/>
<g opacity="0.35">
<path opacity="0.35" d="M93.6701 112.574C93.5032 113.84 93.2451 115.109 92.8938 116.376C88.7616 131.255 73.3518 139.969 58.4716 135.84C43.5926 131.708 34.8784 116.298 39.007 101.418C39.1255 100.99 39.2542 100.564 39.3921 100.148C37.5681 113.768 46.0187 126.989 59.6336 130.769C74.0846 134.78 89.0343 126.675 93.6701 112.574Z" fill="#371A45"/>
</g>
<path d="M65.9948 137.848C63.3963 137.848 60.7822 137.495 58.2104 136.781C50.7621 134.714 44.5647 129.87 40.7601 123.141C36.9556 116.413 35.9986 108.606 38.0656 101.157C42.3332 85.7813 58.3137 76.7449 73.6897 81.0125C81.1379 83.0801 87.3354 87.9239 91.1399 94.6527C94.9444 101.382 95.9015 109.189 93.8345 116.637C91.7668 124.085 86.923 130.283 80.1942 134.087C75.7893 136.578 70.9208 137.848 65.9948 137.848ZM65.9585 81.9097C54.1374 81.9097 43.2606 89.7479 39.9488 101.68C38.0208 108.625 38.9132 115.905 42.4614 122.179C46.009 128.453 51.788 132.97 58.7333 134.898C65.678 136.826 72.9588 135.934 79.233 132.386C85.5072 128.839 90.0239 123.06 91.9518 116.114C95.9317 101.777 87.5052 86.8756 73.1679 82.8957C70.7624 82.2283 68.3411 81.9097 65.9585 81.9097Z" fill="#371A45"/>
<path d="M92.6145 117.043C91.2307 122.337 88.2278 126.803 84.2262 130.102C81.2263 132.574 70.774 135.543 59.5635 132.72C49.1686 130.103 41.1786 122.107 39.7718 118.483C37.8958 113.648 37.4617 108.285 38.8456 102.991C42.5068 88.9819 56.0606 86.32 70.9094 90.2013C85.7581 94.0814 96.2764 103.034 92.6145 117.043Z" fill="#371A45"/>
<g opacity="0.5">
<path opacity="0.5" d="M87.6214 114.367C88.7728 111.888 88.2503 109.203 86.4543 108.368C84.6584 107.534 82.2691 108.867 81.1177 111.345C79.9663 113.824 80.4889 116.509 82.2848 117.344C84.0808 118.178 86.47 116.845 87.6214 114.367Z" fill="white"/>
</g>
<g opacity="0.5">
<path opacity="0.5" d="M79.2855 122.289C79.9662 121.236 79.7849 119.908 78.8807 119.324C77.9765 118.74 76.6917 119.12 76.011 120.174C75.3303 121.228 75.5116 122.556 76.4158 123.14C77.3201 123.724 78.6049 123.343 79.2855 122.289Z" fill="white"/>
</g>
<g opacity="0.35">
<path opacity="0.35" d="M90.8015 102.607C93.2681 106.602 94.0843 111.415 92.6146 117.042C91.2307 122.337 88.2266 126.802 84.2268 130.101C81.2257 132.573 70.7734 135.541 59.5623 132.72C55.6036 131.724 51.9955 129.948 48.9648 127.928C62.8197 131.102 75.564 127.438 79.2851 124.371C84.3647 120.185 88.1758 114.516 89.9303 107.798C90.4013 106.003 90.6842 104.272 90.8015 102.607Z" fill="#111A28"/>
</g>
<path d="M93.5134 104.962C93.2613 104.962 93.0128 104.844 92.8556 104.623C92.8478 104.612 92.8375 104.598 92.8308 104.586L92.7855 104.516L92.7553 104.437C89.8793 96.8859 82.0556 90.9406 71.2895 88.127C60.4653 85.2982 50.7107 86.7752 44.529 92.1788L44.4667 92.2278C44.1034 92.4877 43.5967 92.4043 43.3374 92.0416C43.0877 91.6921 43.1542 91.2127 43.4837 90.9461C50.0759 85.1973 60.3583 83.5994 71.6982 86.563C82.9583 89.506 91.1755 95.7959 94.251 103.825C94.4045 104.168 94.3005 104.584 93.9825 104.811C93.8405 104.913 93.676 104.962 93.5134 104.962ZM93.511 104.15H93.514H93.511Z" fill="#371A45"/>
<g opacity="0.5">
<path opacity="0.5" d="M42.7053 112.902C42.7053 112.902 41.9786 97.9476 50.8657 94.3873C59.7528 90.8271 70.4627 93.6498 70.0329 94.2713C70.0329 94.2713 57.4192 94.0427 50.3264 102.208C44.8569 108.504 42.7053 112.902 42.7053 112.902Z" fill="white"/>
</g>
<path d="M32.7085 113.752C32.7085 113.752 36.6575 108.24 43.2594 108.564C47.9291 108.793 50.0577 117.565 45.0072 122.278C42.6325 124.494 40.4917 125.158 39.8593 129.916" fill="white"/>
<path d="M39.8599 130.83C39.82 130.83 39.7789 130.827 39.7384 130.822C39.2378 130.755 38.8865 130.296 38.953 129.795C39.5044 125.648 41.2111 124.254 43.0181 122.779C43.4625 122.416 43.922 122.04 44.3833 121.61C47.1794 119.001 47.446 115.064 46.5113 112.509C45.8409 110.679 44.6088 109.545 43.2146 109.476C37.2058 109.183 33.4871 114.235 33.4503 114.286C33.1546 114.694 32.5839 114.788 32.1752 114.494C31.7659 114.199 31.6716 113.63 31.9654 113.22C32.139 112.979 36.2887 107.302 43.3047 107.651C45.457 107.756 47.2973 109.339 48.2283 111.882C49.4018 115.088 49.0535 119.752 45.6311 122.947C45.1257 123.419 44.6426 123.814 44.1747 124.195C42.4601 125.595 41.2214 126.606 40.7655 130.036C40.7039 130.495 40.3115 130.83 39.8599 130.83Z" fill="#371A45"/>
<g opacity="0.35">
<path opacity="0.35" d="M72.2173 140.18L71.3776 149.179C51.448 163.532 43.6993 143.055 41.6287 139.118C41.2018 138.307 39.8041 135.894 38.9408 135.328C38.0061 134.713 37.0872 132.598 36.9844 131.06C36.9844 131.06 37.5654 125.5 39.4577 123.827C41.3971 122.114 45.8002 122.763 47.9978 124.035C51.0363 125.795 53.1795 129.946 56.8057 133.588C61.2577 138.057 70.8347 136.413 72.2173 140.18Z" fill="#371A45"/>
</g>
<path d="M73.3377 138.294L71.4551 148.743L71.3777 149.179C52.5926 155.818 44.5089 140.063 41.1687 135.766C40.6065 135.041 38.9596 134.091 38.0957 133.524C37.161 132.91 36.6883 131.619 36.5855 130.081C36.5855 130.081 36.5855 130.081 36.5855 130.079C36.3842 127.106 37.5655 123.215 39.4572 121.543C41.3966 119.83 45.7997 120.478 47.9973 121.751C51.0358 123.51 53.179 127.662 56.8052 131.304C61.2579 135.772 71.9551 134.527 73.3377 138.294Z" fill="white"/>
<g opacity="0.35">
<path opacity="0.35" d="M71.455 148.742L71.3777 149.179C52.5926 155.818 44.5089 140.062 41.1687 135.765C40.6064 135.041 38.9596 134.091 38.0957 133.524C37.161 132.909 36.6882 131.618 36.5854 130.081C37.1084 130.805 37.7897 131.431 38.612 131.511C40.6886 131.713 43.5906 131.632 44.4176 132.72C45.2447 133.81 46.7615 139.268 52.1403 143.877C57.5681 148.525 66.8924 150.038 71.455 148.742Z" fill="#371A45"/>
</g>
<path d="M72.9842 138.425C72.6021 137.693 71.8028 137.284 70.9613 136.965C70.104 136.657 69.1802 136.442 68.2425 136.244C66.3654 135.845 64.4277 135.504 62.4961 134.989C61.5306 134.73 60.5645 134.427 59.6178 134.028C58.6722 133.63 57.7448 133.122 56.9057 132.453C56.6905 132.294 56.4994 132.098 56.2981 131.919C56.1095 131.737 55.945 131.559 55.7673 131.379C55.4179 131.02 55.0835 130.649 54.7528 130.276C54.0908 129.53 53.4687 128.76 52.8545 127.994C51.6242 126.469 50.4695 124.901 49.1273 123.648C48.4551 123.024 47.7429 122.496 46.9485 122.165C46.1438 121.809 45.246 121.583 44.3525 121.453C43.4577 121.323 42.5442 121.306 41.7069 121.46C41.2855 121.529 40.8938 121.659 40.5528 121.83L40.3043 121.965C40.2342 122.02 40.1634 122.075 40.0915 122.127C39.9482 122.235 39.7983 122.39 39.6616 122.541C39.1091 123.167 38.6623 123.962 38.3225 124.802C37.9773 125.643 37.7307 126.537 37.5698 127.44C37.4157 128.343 37.3462 129.265 37.4175 130.149C37.484 131.024 37.7016 131.9 38.1399 132.46C38.1932 132.529 38.2476 132.597 38.3098 132.651C38.3661 132.714 38.4313 132.76 38.4942 132.808L38.5408 132.846L38.6139 132.893L38.7627 132.989L39.0674 133.184C39.4797 133.446 39.8998 133.713 40.3194 134.003C40.7402 134.3 41.1561 134.59 41.583 135.024C41.826 135.281 41.9451 135.474 42.1035 135.679L42.5382 136.287C43.6596 137.907 44.7418 139.491 45.9479 140.985C46.5465 141.733 47.1788 142.449 47.8287 143.146C48.4907 143.83 49.1685 144.499 49.8909 145.112C50.2464 145.425 50.623 145.712 50.9918 146.008C51.3769 146.28 51.7463 146.578 52.1472 146.826L52.7372 147.216L53.346 147.574C53.7468 147.823 54.1737 148.021 54.5908 148.239C56.28 149.066 58.0925 149.63 59.9551 149.919C61.8166 150.221 63.7301 150.24 65.6242 150.021C67.5225 149.816 69.4003 149.379 71.2509 148.822L71.2563 148.821C71.4564 148.761 71.6668 148.874 71.7273 149.074C71.7841 149.264 71.6837 149.464 71.5024 149.535C69.6621 150.253 67.7438 150.804 65.7717 151.122C63.7996 151.429 61.7725 151.492 59.7665 151.246C57.7666 150.983 55.786 150.438 53.9584 149.564C52.1296 148.697 50.4217 147.583 48.8988 146.272C48.1286 145.626 47.4104 144.926 46.7109 144.211C46.0247 143.484 45.3603 142.739 44.7346 141.965C43.4771 140.427 42.3453 138.79 41.2347 137.206L40.8152 136.625C40.6749 136.444 40.5231 136.227 40.4258 136.134C40.1689 135.87 39.785 135.589 39.4059 135.329C39.0208 135.066 38.6151 134.812 38.2022 134.552L37.8884 134.355L37.7294 134.252L37.649 134.2L37.5499 134.128C37.4163 134.031 37.2857 133.931 37.1757 133.815C37.0554 133.705 36.9538 133.585 36.8577 133.462C36.4707 132.968 36.2331 132.424 36.0711 131.889C35.9103 131.352 35.8238 130.815 35.7785 130.284C35.6878 129.221 35.7646 128.18 35.9321 127.159C36.1074 126.14 36.377 125.139 36.767 124.17C37.1557 123.203 37.6599 122.259 38.3945 121.413C38.5831 121.202 38.7729 121.002 39.016 120.812L39.3884 120.535L39.782 120.318C40.3128 120.052 40.8629 119.884 41.404 119.794C42.4904 119.601 43.5545 119.634 44.5895 119.784C45.6251 119.939 46.6383 120.194 47.6214 120.629C48.6316 121.058 49.5076 121.72 50.2609 122.424C51.7717 123.85 52.9331 125.454 54.1386 126.974C54.7395 127.736 55.3387 128.491 55.9674 129.211C56.2818 129.571 56.598 129.929 56.9263 130.271C57.0901 130.44 57.2557 130.621 57.4172 130.78C57.5804 130.925 57.7267 131.084 57.9057 131.216C59.2768 132.334 61.0736 132.993 62.8994 133.5C64.7373 134.012 66.6525 134.341 68.5757 134.84C69.5357 135.093 70.5048 135.391 71.4449 135.85C71.9117 136.089 72.3748 136.366 72.7859 136.741C73.197 137.109 73.5482 137.606 73.6927 138.163C73.7453 138.367 73.6232 138.573 73.4207 138.626C73.2459 138.671 73.0688 138.587 72.989 138.434L72.9842 138.425Z" fill="#371A45"/>
<path d="M51.7529 148.233C51.5196 148.233 51.2898 148.126 51.1417 147.923C50.8963 147.585 50.97 147.112 51.3074 146.866C58.1154 141.904 55.8543 131.331 55.8301 131.225C55.7394 130.818 55.9958 130.414 56.4033 130.323C56.8083 130.232 57.214 130.488 57.3053 130.895C57.4111 131.368 59.8124 142.538 52.1979 148.088C52.0631 148.186 51.9071 148.233 51.7529 148.233Z" fill="#371A45"/>
<path d="M39.3419 109.749C38.9247 109.749 38.5862 109.411 38.5862 108.993V52.9041C38.5862 52.487 38.9247 52.1484 39.3419 52.1484C39.759 52.1484 40.0976 52.487 40.0976 52.9041V108.993C40.0976 109.411 39.759 109.749 39.3419 109.749Z" fill="#371A45"/>
<path d="M22.1399 148.233C21.7946 148.233 21.4827 147.995 21.4035 147.644C21.3116 147.237 21.5667 146.832 21.9736 146.74C23.6374 146.363 24.4928 145.23 25.4825 143.917C27.0042 141.9 28.7272 139.618 33.6097 139.733C35.3986 139.773 36.7111 139.326 37.5061 138.391C38.8356 136.828 38.3888 134.347 38.384 134.322C38.3072 133.913 38.5762 133.517 38.9855 133.44C39.3948 133.364 39.7896 133.629 39.8688 134.038C39.8942 134.168 40.4613 137.24 38.6657 139.362C37.5605 140.667 35.8472 141.301 33.5728 141.245C29.4751 141.146 28.1184 142.934 26.6898 144.828C25.6191 146.249 24.5116 147.716 22.3079 148.215C22.2511 148.227 22.1949 148.233 22.1399 148.233Z" fill="#371A45"/>
<path d="M57.2259 70.5866L39.3035 62.0047L22.074 71.9057C18.6177 73.8936 14.3845 71.0521 14.9086 67.1025L17.5325 47.4051L2.79071 34.0744C-0.165622 31.4034 1.22851 26.501 5.14671 25.7797L16.2266 23.7441C16.229 23.7399 16.2326 23.7423 16.2326 23.7423L24.6936 22.1849L32.8135 4.04915C34.438 0.412075 39.5321 0.219824 41.4292 3.72389L50.8858 21.2031L70.6479 23.3215C74.6072 23.7459 76.3641 28.5287 73.6175 31.4149L59.9162 45.8114L63.277 61.7738L64.0116 65.2573C64.8284 69.1574 60.8249 72.3054 57.2259 70.5866Z" fill="#FFDA22"/>
<g opacity="0.35">
<path opacity="0.35" d="M70.6481 23.3213L70.347 23.2881C71.9141 25.6949 72.1801 27.3961 68.086 31.0652C65.0764 33.7622 60.414 37.9585 57.2364 40.8205C55.1464 42.7025 54.2801 45.5912 54.9934 48.3117C56.3821 53.6083 57.4069 62.0027 56.1234 63.4978C54.222 65.7124 38.311 54.459 38.311 54.459C38.311 54.459 22.4 65.7124 20.4993 63.4978C19.246 62.0378 20.1517 53.9977 21.5307 48.689C22.2828 45.7931 21.2429 42.7267 18.8857 40.8828C15.4929 38.2281 10.7107 34.3904 7.84631 31.6674C5.89718 29.8114 5.11729 27.3786 6.07371 25.6078L5.14873 25.7795C1.22872 26.4995 -0.166022 31.4044 2.79273 34.0742L17.5345 47.4061L14.9101 67.1011C14.8937 67.2244 14.8817 67.3471 14.8744 67.468C14.8817 67.3471 14.8937 67.2244 14.9101 67.1011L14.9935 66.4735C15.6954 69.4323 19.159 71.1885 22.0742 69.5151L39.3019 59.6117L57.2255 68.1953C60.1147 69.5731 63.2591 67.8175 63.9683 65.0558L64.0106 65.2571L63.2784 61.7742L59.9158 45.8118L73.6183 31.4165C76.3637 28.5309 74.6074 23.7463 70.6481 23.3213Z" fill="#371A45"/>
</g>
<g opacity="0.5">
<path opacity="0.5" d="M74.7609 28.2596C74.2579 26.4913 72.7695 25.0119 70.6481 24.7828L70.347 24.7495L54.1035 25.0959C49.4786 25.1945 45.2992 22.35 43.6947 18.011L39.6217 6.99461C37.7234 3.48752 35.9459 3.68037 34.319 7.31987L30.9818 18.586C29.6717 23.0084 25.7094 26.1189 21.1026 26.342L6.07367 27.0693L5.14869 27.241C3.18747 27.6025 1.85863 29.0063 1.39191 30.6604C0.647684 28.0964 2.16938 25.1316 5.14869 24.5833L6.07367 24.4116L16.2268 22.5465C16.2298 22.5435 16.2328 22.5465 16.2328 22.5465L24.6931 20.9885L32.8131 2.85393C34.4399 -0.785562 39.5316 -0.978419 41.43 2.52867L50.8872 20.0061L70.3476 22.0913L70.6487 22.1245C73.7967 22.4631 75.5499 25.5572 74.7609 28.2596Z" fill="white"/>
</g>
<path d="M19.6745 73.7569C18.5077 73.7569 17.3451 73.4135 16.3277 72.731C14.413 71.4469 13.4118 69.2293 13.7165 66.9434L16.2551 47.8724L1.98431 34.9697C0.273993 33.4232 -0.397074 31.0848 0.23228 28.8672C0.862238 26.6491 2.66204 25.0125 4.92977 24.5953L23.8521 21.1161L31.7133 3.55642C32.6552 1.45192 34.672 0.0910403 36.976 0.00458721C39.2807 -0.0842841 41.393 1.12364 42.4903 3.15196L51.6465 20.0726L70.7762 22.1227C73.0687 22.3681 74.9864 23.8656 75.7808 26.03C76.5752 28.1943 76.0812 30.5769 74.4918 32.2467L61.2282 46.1832L65.19 65.01C65.6646 67.2663 64.8333 69.5527 63.0202 70.9771C61.2071 72.4015 58.7888 72.6675 56.7091 71.6724L39.3562 63.365L22.675 72.9504C21.7361 73.4891 20.7041 73.7563 19.6745 73.7569ZM37.2118 2.41016C37.1635 2.41016 37.1145 2.41076 37.0655 2.41258C35.6641 2.46518 34.4852 3.26078 33.9121 4.54065L25.7922 22.6789C25.6301 23.041 25.3 23.2998 24.9101 23.3717L5.36505 26.9652C3.98604 27.2192 2.93348 28.1756 2.55079 29.525C2.1675 30.8738 2.56046 32.2407 3.60032 33.1814L18.3415 46.5091C18.6359 46.7751 18.7804 47.1687 18.7278 47.5622L16.1058 67.2614C15.9208 68.652 16.5054 69.9481 17.6704 70.7292C18.8354 71.5103 20.2561 71.5593 21.4725 70.861L38.7033 60.96C39.0473 60.7624 39.4669 60.7466 39.8242 60.9177L57.749 69.4989C59.0137 70.1041 60.4272 69.9487 61.5299 69.0824C62.6327 68.2161 63.1187 66.8794 62.8303 65.507L58.738 46.0599C58.6564 45.6718 58.7707 45.2685 59.0445 44.9807L72.7446 30.5848C73.7113 29.5691 74.0003 28.1762 73.5173 26.8601C73.0342 25.5433 71.9134 24.6685 70.5186 24.5186L50.759 22.4008C50.3648 22.3584 50.0159 22.1251 49.8273 21.7762L40.3695 4.29822C39.7256 3.10843 38.5528 2.41016 37.2118 2.41016Z" fill="#371A45"/>
</svg>
