<svg width="170" height="33" viewBox="0 0 170 33" fill="none" xmlns="http://www.w3.org/2000/svg">
<path d="M35.9938 2.7547C33.2433 1.46781 30.3023 0.532546 27.2276 0C26.85 0.682705 26.4088 1.60096 26.1047 2.33142C22.8362 1.83988 19.5977 1.83988 16.3893 2.33142C16.0852 1.60096 15.6341 0.682705 15.2531 0C12.1751 0.532546 9.2307 1.47124 6.48019 2.76152C0.932395 11.145 -0.571521 19.3202 0.180438 27.3793C3.86003 30.1271 7.426 31.7964 10.9318 32.8887C11.7974 31.6973 12.5694 30.431 13.2344 29.0963C11.9678 28.615 10.7547 28.0211 9.60837 27.3316C9.91247 27.1063 10.2099 26.8707 10.4973 26.6283C17.4889 29.8985 25.0853 29.8985 31.9934 26.6283C32.2841 26.8707 32.5815 27.1063 32.8823 27.3316C31.7326 28.0245 30.5162 28.6184 29.2495 29.0997C29.9146 30.431 30.6833 31.7008 31.5522 32.892C35.0614 31.7997 38.6306 30.1306 42.3102 27.3793C43.1926 18.0367 40.803 9.93659 35.9938 2.7547ZM14.1869 22.423C12.0881 22.423 10.367 20.4637 10.367 18.0777C10.367 15.6917 12.0514 13.7289 14.1869 13.7289C16.3225 13.7289 18.0437 15.6882 18.0069 18.0777C18.0102 20.4637 16.3225 22.423 14.1869 22.423ZM28.3037 22.423C26.205 22.423 24.4838 20.4637 24.4838 18.0777C24.4838 15.6917 26.1681 13.7289 28.3037 13.7289C30.4393 13.7289 32.1605 15.6882 32.1237 18.0777C32.1237 20.4637 30.4393 22.423 28.3037 22.423Z" fill="#5865F2"/>
<path d="M57.0984 8.39087H66.2219C68.4213 8.39087 70.2794 8.74244 71.8037 9.44221C73.3239 10.1419 74.4638 11.1182 75.2192 12.3675C75.9741 13.6168 76.355 15.0471 76.355 16.6582C76.355 18.2352 75.9607 19.6655 75.172 20.9455C74.3834 22.229 73.1835 23.2428 71.5695 23.9903C69.9555 24.7379 67.9565 25.1133 65.5672 25.1133H57.0984V8.39087ZM65.4735 20.8636C66.9541 20.8636 68.094 20.4847 68.889 19.7303C69.6847 18.9725 70.0825 17.9417 70.0825 16.6344C70.0825 15.4225 69.7278 14.4565 69.0195 13.7329C68.3112 13.0092 67.2383 12.644 65.8043 12.644H62.9502V20.8636H65.4735Z" fill="#5865F2"/>
<path d="M90.0143 25.093C88.751 24.7585 87.6111 24.2738 86.5988 23.6355V19.6691C87.3641 20.2732 88.3898 20.7716 89.6765 21.1641C90.9631 21.5533 92.2067 21.7478 93.4095 21.7478C93.971 21.7478 94.3956 21.6727 94.6828 21.5225C94.9705 21.3724 95.1144 21.1914 95.1144 20.9832C95.1144 20.7443 95.0375 20.5463 94.8802 20.3858C94.723 20.2254 94.4189 20.0923 93.9681 19.9796L91.1606 19.3345C89.553 18.9522 88.4131 18.4231 87.7351 17.7438C87.0566 17.068 86.7187 16.1805 86.7187 15.0814C86.7187 14.1563 87.0129 13.3542 87.6082 12.668C88.1994 11.9819 89.0416 11.4528 90.1343 11.0808C91.2276 10.7053 92.5038 10.5176 93.971 10.5176C95.2809 10.5176 96.4808 10.6609 97.5741 10.9477C98.6668 11.2344 99.569 11.5996 100.288 12.0468V15.7982C99.5521 15.351 98.7099 14.9995 97.7477 14.7332C96.7884 14.4703 95.8028 14.3406 94.7864 14.3406C93.3192 14.3406 92.5876 14.5966 92.5876 15.1052C92.5876 15.3442 92.7012 15.5217 92.9284 15.6412C93.1555 15.7606 93.5732 15.8835 94.1783 16.0132L96.5175 16.4433C98.0453 16.713 99.1846 17.1875 99.9331 17.8633C100.682 18.5392 101.056 19.5393 101.056 20.8638C101.056 22.3144 100.438 23.4648 99.198 24.3182C97.9579 25.1715 96.2001 25.5982 93.9209 25.5982C92.5806 25.5948 91.2777 25.4275 90.0143 25.093Z" fill="#5865F2"/>
<path d="M106.578 24.591C105.238 23.9219 104.225 23.014 103.55 21.8671C102.875 20.7201 102.534 19.4299 102.534 17.9962C102.534 16.5626 102.885 15.2791 103.587 14.1493C104.289 13.0194 105.318 12.1319 106.675 11.4868C108.032 10.8416 109.653 10.5208 111.541 10.5208C113.88 10.5208 115.822 11.0225 117.366 12.0261V16.3987C116.822 16.0164 116.186 15.7058 115.461 15.4669C114.736 15.2279 113.961 15.1084 113.132 15.1084C111.681 15.1084 110.549 15.3781 109.73 15.9208C108.911 16.4636 108.5 17.1701 108.5 18.0474C108.5 18.9076 108.897 19.6108 109.693 20.1638C110.489 20.7133 111.641 20.9898 113.155 20.9898C113.934 20.9898 114.703 20.8737 115.461 20.6451C116.216 20.413 116.868 20.1296 117.413 19.7951V24.0243C115.699 25.0757 113.71 25.6014 111.447 25.6014C109.543 25.5945 107.918 25.26 106.578 24.591Z" fill="#5865F2"/>
<path d="M123.201 24.5912C121.851 23.9222 120.822 23.0074 120.113 21.8434C119.405 20.6794 119.047 19.3823 119.047 17.9487C119.047 16.515 119.402 15.235 120.113 14.112C120.825 12.9889 121.848 12.1082 123.192 11.4699C124.531 10.8316 126.132 10.5142 127.987 10.5142C129.842 10.5142 131.443 10.8316 132.783 11.4699C134.123 12.1082 135.146 12.9821 135.848 14.0983C136.55 15.2145 136.9 16.4945 136.9 17.9453C136.9 19.3789 136.55 20.676 135.848 21.84C135.146 23.004 134.12 23.9188 132.77 24.5878C131.419 25.2569 129.825 25.5914 127.984 25.5914C126.142 25.5914 124.548 25.2603 123.201 24.5912ZM130.31 20.3517C130.878 19.7715 131.166 19.0034 131.166 18.0477C131.166 17.0919 130.881 16.3307 130.31 15.7675C129.742 15.2008 128.966 14.9175 127.984 14.9175C126.985 14.9175 126.202 15.2008 125.631 15.7675C125.063 16.3341 124.779 17.0919 124.779 18.0477C124.779 19.0034 125.063 19.7715 125.631 20.3517C126.199 20.932 126.985 21.2256 127.984 21.2256C128.966 21.2222 129.742 20.932 130.31 20.3517Z" fill="#5865F2"/>
<path d="M150.957 11.4016V16.5627C150.362 16.1633 149.593 15.9653 148.641 15.9653C147.394 15.9653 146.432 16.3511 145.763 17.1225C145.091 17.894 144.757 19.0955 144.757 20.7203V25.1168H139.026V11.1388H144.641V15.5831C144.951 13.9582 145.456 12.7602 146.151 11.9852C146.843 11.2138 147.738 10.8281 148.828 10.8281C149.653 10.8281 150.362 11.0193 150.957 11.4016Z" fill="#5865F2"/>
<path d="M170 7.91309V25.1169H164.268V21.9868C163.784 23.1644 163.048 24.0622 162.059 24.6765C161.07 25.2876 159.847 25.5948 158.396 25.5948C157.1 25.5948 155.97 25.2739 155.004 24.6288C154.038 23.9837 153.293 23.0996 152.769 21.9765C152.247 20.8535 151.983 19.5837 151.983 18.1637C151.967 16.6994 152.244 15.3852 152.815 14.2212C153.384 13.0572 154.189 12.1492 155.225 11.4972C156.261 10.8453 157.444 10.5176 158.771 10.5176C161.501 10.5176 163.333 11.7293 164.268 14.1495V7.91309H170ZM163.413 20.2562C163.998 19.6759 164.289 18.9215 164.289 17.9999C164.289 17.109 164.004 16.3819 163.436 15.8255C162.868 15.2691 162.089 14.9892 161.11 14.9892C160.144 14.9892 159.373 15.2725 158.794 15.8391C158.216 16.4058 157.929 17.1397 157.929 18.0477C157.929 18.9557 158.216 19.6964 158.794 20.2698C159.373 20.8432 160.134 21.13 161.087 21.13C162.052 21.1266 162.828 20.8364 163.413 20.2562Z" fill="#5865F2"/>
<path d="M81.1848 12.6268C82.7627 12.6268 84.0424 11.4531 84.0424 10.0053C84.0424 8.55745 82.7627 7.38379 81.1848 7.38379C79.6064 7.38379 78.3273 8.55745 78.3273 10.0053C78.3273 11.4531 79.6064 12.6268 81.1848 12.6268Z" fill="#5865F2"/>
<path d="M78.325 14.4329C80.0758 15.2043 82.2484 15.2384 84.0395 14.4329V25.1921H78.325V14.4329Z" fill="#5865F2"/>
</svg>
