<svg width="200" height="25" viewBox="0 0 200 25" fill="none" xmlns="http://www.w3.org/2000/svg">
<path d="M24.8463 12.3257C24.2217 13.2547 23.5848 14.1275 23.0335 15.0504C22.7463 15.5295 22.536 15.4232 22.184 15.1714C20.9775 14.3108 19.7844 13.4246 18.5315 12.6374C16.3019 11.2377 13.9769 10.0349 11.2889 9.79167C9.31472 9.6132 7.52026 10.0019 6.12064 11.5336C4.07804 13.7705 4.13304 17.9633 6.22821 20.0254C7.15844 20.941 8.3197 21.4031 9.58243 21.452C10.8867 21.5033 12.2338 21.5339 13.4928 21.2588C14.4658 21.0474 15.3667 20.4019 16.2334 19.8458C16.6771 19.5609 16.9681 19.4888 17.3824 19.9656C16.9289 20.4032 16.4926 20.8726 16.0073 21.2833C14.1492 22.8589 12.1091 24.0679 9.63865 24.4065C5.14518 25.0238 1.36313 22.3565 0.300875 18.0171C-0.868945 13.2376 1.49147 9.33694 5.31875 7.30534C8.33804 5.7028 11.5431 5.45587 14.8044 6.34455C18.6207 7.38357 21.8723 9.44451 24.7375 12.1423C24.7791 12.1826 24.7999 12.245 24.8463 12.3257Z" fill="white"/>
<path d="M28.4658 15.3258C28.7983 15.5641 29.0795 15.7548 29.3508 15.9602C31.9362 17.9209 34.6303 19.6921 37.7669 20.6627C39.0822 21.0697 40.4281 21.2604 41.8057 21.0282C44.4338 20.5845 46.2686 18.5639 46.4813 15.9052C46.595 14.4799 46.4862 13.0961 45.743 11.8346C44.7932 10.2211 43.2811 9.55245 41.4928 9.3691C39.0358 9.11606 36.7719 9.58057 34.755 11.0841C34.5521 11.2357 34.1731 11.1513 33.8749 11.177C33.8504 11.0988 33.8247 11.0205 33.8003 10.9423C34.0717 10.6575 34.3308 10.3604 34.6156 10.0891C36.6509 8.14549 38.9893 6.75931 41.8252 6.41826C46.1134 5.90242 49.9125 8.71757 50.8965 12.9336C52.1703 18.3915 48.5887 22.6148 44.7834 24.078C40.8987 25.5718 37.1288 25.1659 33.4263 23.4644C30.9852 22.3422 28.791 20.8473 26.7936 19.0528C26.4428 18.7374 26.3535 18.4881 26.642 18.0749C27.2581 17.1948 27.8326 16.2853 28.4658 15.3258Z" fill="white"/>
<path d="M35.6791 0.583984C31.5951 8.97442 26.3694 16.6131 21.6315 24.6661C21.519 24.3422 21.3919 24.0415 21.3112 23.7298C20.6817 21.3058 19.4055 19.3146 17.3617 17.8477C15.797 16.7243 14.0136 16.3442 12.1152 16.2745C10.3122 16.2085 8.61798 16.6155 6.94453 17.2084C6.7844 17.2646 6.61816 17.3025 6.31256 17.3905C6.4458 17.1143 6.48492 16.9566 6.57904 16.8453C8.09357 15.0729 9.95159 13.9813 12.3255 13.749C15.8496 13.4043 18.7784 14.6756 21.4041 16.8796C21.42 16.893 21.4347 16.9065 21.4505 16.9199C21.6987 17.1375 21.9468 17.3551 22.1962 17.5739C22.4395 17.2854 22.7035 17.0116 22.9235 16.7048C26.0785 12.303 28.6663 7.55034 31.4227 2.90284C31.8139 2.24276 32.2527 1.77214 33.0192 1.55333C33.9225 1.29419 34.7929 0.911583 35.6791 0.583984Z" fill="#2958FF"/>
<path d="M75.3573 13.1038C75.3573 16.623 75.3573 20.1397 75.3573 23.7602C74.4121 23.7602 73.5329 23.7602 72.5358 23.7602C72.5358 18.5935 72.5358 13.4055 72.5358 8.17281C74.2612 7.90646 75.626 8.01017 76.7739 9.70728C78.7255 12.5924 80.986 15.2676 83.1192 18.0301C83.3219 18.2941 83.5528 18.5369 83.9913 19.0437C83.9913 15.2182 83.9913 11.6967 83.9913 8.13274C84.96 8.13274 85.7732 8.13274 86.6571 8.13274C86.6571 13.3254 86.6571 18.5228 86.6571 23.7508C85.0967 24.0431 83.9088 23.838 82.8646 22.3224C80.8469 19.3902 78.5558 16.6465 76.3755 13.8251C76.1422 13.5234 75.897 13.2311 75.6566 12.9341C75.5576 12.9907 75.4563 13.0473 75.3573 13.1038Z" fill="white"/>
<path d="M140.208 18.8503C140.208 15.3005 140.208 11.7484 140.208 8.13735C141.139 8.13735 141.99 8.13735 142.949 8.13735C142.949 13.3064 142.949 18.4708 142.949 23.647C141.085 24.2268 140.314 23.9887 139.171 22.5061C136.844 19.4938 134.508 16.4885 132.175 13.4809C132.019 13.2782 131.84 13.0943 131.494 12.6936C131.494 16.538 131.494 20.1208 131.494 23.779C130.501 23.779 129.622 23.779 128.67 23.779C128.67 18.6052 128.67 13.4785 128.67 8.34948C130.098 7.70128 131.512 8.00535 132.42 9.17682C134.942 12.4272 137.459 15.6824 139.979 18.9352C140.057 18.9069 140.132 18.8786 140.208 18.8503Z" fill="white"/>
<path d="M108.347 8.12402C108.347 8.949 108.347 9.67498 108.347 10.5212C105.188 10.5212 102.103 10.5212 98.9563 10.5212C98.9563 11.8741 98.9563 13.1045 98.9563 14.4387C101.655 14.4387 104.307 14.4387 106.935 14.4387C107.456 16.883 107.404 16.949 105.118 16.9466C103.048 16.9442 100.979 16.9466 98.895 16.9466C98.895 18.9006 98.8149 20.7038 98.9233 22.4975C98.994 23.6478 98.5579 23.9731 97.5232 23.8717C97.106 23.8316 96.6793 23.8646 96.2056 23.8646C96.2056 18.5824 96.2056 13.3803 96.2056 8.12402C100.229 8.12402 104.22 8.12402 108.347 8.12402Z" fill="white"/>
<path d="M182.623 8.07445C183.797 8.07445 184.702 8.00374 185.589 8.10509C186.025 8.15459 186.557 8.41151 186.824 8.75093C188.346 10.6908 189.803 12.6826 191.34 14.7309C192.662 12.9937 194.081 11.3154 195.279 9.49342C196.054 8.31252 196.957 7.8741 198.296 8.06503C198.779 8.13338 199.279 8.07681 200 8.07681C198.27 10.243 196.825 12.3478 195.074 14.1581C193.124 16.1734 192.252 18.3867 192.726 21.1374C192.733 21.1751 192.728 21.2152 192.731 21.2553C192.792 24.1498 192.792 24.1498 189.699 23.7114C189.699 21.8634 189.737 19.9895 189.676 18.1204C189.657 17.5806 189.48 16.9536 189.16 16.527C187.321 14.0874 185.414 11.6973 183.533 9.28835C183.274 8.95836 183.029 8.61658 182.623 8.07445Z" fill="white"/>
<path d="M168.752 10.5674C166.824 10.5674 164.964 10.5674 162.991 10.5674C162.991 9.70711 162.991 8.95991 162.991 8.13965C167.783 8.13965 172.556 8.13965 177.417 8.13965C177.417 8.86563 177.417 9.58453 177.417 10.4449C175.557 10.4449 173.697 10.4449 171.632 10.4449C171.632 13.2215 171.621 15.8638 171.637 18.5061C171.647 20.0335 171.741 21.5632 171.705 23.0883C171.698 23.3452 171.246 23.7624 170.951 23.8096C170.27 23.918 169.561 23.8449 168.752 23.8449C168.752 19.4183 168.752 15.0506 168.752 10.5674Z" fill="white"/>
<path d="M152.253 23.831C152.253 18.5276 152.253 13.375 152.253 8.14697C153.254 8.14697 154.176 8.14697 155.232 8.14697C155.255 8.52175 155.3 8.89653 155.3 9.27131C155.298 13.738 155.263 18.2047 155.307 22.6713C155.317 23.6142 155.067 23.9654 154.119 23.8428C153.549 23.7697 152.962 23.831 152.253 23.831Z" fill="white"/>
<path d="M119.635 8.16113C119.635 13.3727 119.635 18.5252 119.635 23.7674C118.683 23.7674 117.766 23.7674 116.743 23.7674C116.743 18.6077 116.743 13.4292 116.743 8.16113C117.667 8.16113 118.584 8.16113 119.635 8.16113Z" fill="white"/>
<path d="M60.576 8.11377C61.5541 8.11377 62.4027 8.11377 63.3243 8.11377C63.3243 13.3064 63.3243 18.4708 63.3243 23.647C63.2772 23.6847 63.2206 23.7695 63.157 23.7742C60.4864 24.0265 60.5005 24.0241 60.51 21.3912C60.5241 17.2711 60.517 13.1532 60.5217 9.03304C60.5217 8.76669 60.5524 8.49797 60.576 8.11377Z" fill="white"/>
</svg>
