<svg width="148" height="18" viewBox="0 0 148 18" fill="none" xmlns="http://www.w3.org/2000/svg">
<path d="M18.3175 8.65661C17.857 9.34151 17.3874 9.98494 16.981 10.6653C16.7692 11.0186 16.6142 10.9402 16.3547 10.7546C15.4652 10.1201 14.5857 9.46677 13.662 8.88641C12.0182 7.85456 10.3042 6.9678 8.3225 6.78847C6.8671 6.6569 5.54417 6.94347 4.51232 8.07265C3.00645 9.7218 3.047 12.8128 4.59162 14.3331C5.27742 15.0081 6.13354 15.3488 7.06445 15.3848C8.02601 15.4227 9.01911 15.4452 9.94732 15.2424C10.6647 15.0865 11.3288 14.6107 11.9678 14.2007C12.2949 13.9907 12.5094 13.9375 12.8149 14.289C12.4805 14.6116 12.1588 14.9576 11.801 15.2604C10.4313 16.4221 8.92719 17.3133 7.10591 17.5629C3.79318 18.018 1.00494 16.0517 0.221814 12.8525C-0.640613 9.32889 1.09956 6.45323 3.92115 4.95547C6.14706 3.77403 8.50994 3.59199 10.9143 4.24715C13.7278 5.01315 16.1249 6.53254 18.2373 8.52143C18.2679 8.55117 18.2832 8.59713 18.3175 8.65661Z" fill="#2F3448"/>
<path d="M20.9859 10.8681C21.231 11.0438 21.4383 11.1844 21.6384 11.3358C23.5444 12.7813 25.5305 14.0871 27.843 14.8026C28.8126 15.1027 29.8048 15.2433 30.8205 15.0721C32.758 14.7449 34.1107 13.2553 34.2675 11.2952C34.3513 10.2445 34.2711 9.22433 33.7232 8.29432C33.0229 7.10476 31.9082 6.61182 30.5898 6.47665C28.7784 6.2901 27.1094 6.63255 25.6225 7.741C25.4729 7.85274 25.1935 7.79056 24.9736 7.80949C24.9556 7.75181 24.9367 7.69414 24.9186 7.63646C25.1187 7.42649 25.3098 7.2075 25.5197 7.00744C27.0202 5.57457 28.7441 4.55263 30.8349 4.3012C33.9962 3.9209 36.7971 5.99632 37.5225 9.10448C38.4615 13.1282 35.8211 16.2418 33.0157 17.3205C30.1518 18.4218 27.3726 18.1226 24.6429 16.8681C22.8432 16.0408 21.2256 14.9387 19.7531 13.6158C19.4945 13.3833 19.4287 13.1994 19.6414 12.8948C20.0955 12.246 20.5191 11.5755 20.9859 10.8681Z" fill="#2F3448"/>
<path d="M26.3037 0C23.2929 6.18568 19.4403 11.8171 15.9474 17.7541C15.8645 17.5153 15.7707 17.2936 15.7113 17.0638C15.2472 15.2768 14.3063 13.8087 12.7996 12.7273C11.646 11.8991 10.3312 11.6189 8.9317 11.5675C7.60246 11.5188 6.35343 11.8189 5.11972 12.256C5.00166 12.2975 4.8791 12.3254 4.65381 12.3903C4.75204 12.1866 4.78087 12.0704 4.85026 11.9884C5.96682 10.6817 7.33661 9.8769 9.0867 9.70568C11.6848 9.45155 13.844 10.3888 15.7797 12.0136C15.7915 12.0235 15.8023 12.0334 15.814 12.0433C15.9969 12.2037 16.1799 12.3642 16.3637 12.5255C16.543 12.3128 16.7377 12.1109 16.8999 11.8847C19.2259 8.63959 21.1336 5.13581 23.1658 1.70953C23.4542 1.2229 23.7777 0.875944 24.3427 0.714633C25.0087 0.523583 25.6503 0.241516 26.3037 0Z" fill="#6F4EF3"/>
<path d="M55.5557 9.22956C55.5557 11.824 55.5557 14.4166 55.5557 17.0858C54.8589 17.0858 54.2107 17.0858 53.4756 17.0858C53.4756 13.2767 53.4756 9.45198 53.4756 5.59425C54.7477 5.39789 55.7538 5.47435 56.6001 6.72551C58.0389 8.85247 59.7054 10.8248 61.278 12.8614C61.4274 13.056 61.5977 13.235 61.9209 13.6086C61.9209 10.7883 61.9209 8.19214 61.9209 5.56471C62.6351 5.56471 63.2347 5.56471 63.8863 5.56471C63.8863 9.3929 63.8863 13.2246 63.8863 17.0788C62.7359 17.2943 61.8601 17.1431 61.0903 16.0258C59.6028 13.864 57.9138 11.8413 56.3064 9.7613C56.1344 9.53887 55.9536 9.32339 55.7764 9.10444C55.7034 9.14614 55.6287 9.18786 55.5557 9.22956Z" fill="#2F3448"/>
<path d="M103.365 13.4663C103.365 10.8493 103.365 8.23055 103.365 5.56837C104.052 5.56837 104.679 5.56837 105.386 5.56837C105.386 9.37918 105.386 13.1865 105.386 17.0025C104.012 17.43 103.444 17.2545 102.601 16.1615C100.886 13.9407 99.1636 11.7251 97.4433 9.50777C97.3286 9.35833 97.1965 9.22279 96.9411 8.92738C96.9411 11.7616 96.9411 14.4029 96.9411 17.0998C96.2095 17.0998 95.5614 17.0998 94.8593 17.0998C94.8593 13.2856 94.8593 9.50603 94.8593 5.72476C95.9124 5.24689 96.955 5.47105 97.624 6.3347C99.4834 8.73101 101.339 11.1308 103.197 13.5288C103.254 13.508 103.31 13.4871 103.365 13.4663Z" fill="#2F3448"/>
<path d="M79.8767 5.55811C79.8767 6.16631 79.8767 6.70152 79.8767 7.32536C77.5482 7.32536 75.2735 7.32536 72.9536 7.32536C72.9536 8.32281 72.9536 9.22989 72.9536 10.2134C74.9433 10.2134 76.8982 10.2134 78.8358 10.2134C79.2198 12.0155 79.1816 12.0641 77.496 12.0624C75.9703 12.0606 74.4446 12.0624 72.9085 12.0624C72.9085 13.5029 72.8494 14.8323 72.9293 16.1547C72.9814 17.0027 72.66 17.2425 71.8971 17.1678C71.5895 17.1382 71.275 17.1626 70.9257 17.1626C70.9257 13.2683 70.9257 9.43321 70.9257 5.55811C73.892 5.55811 76.834 5.55811 79.8767 5.55811Z" fill="#2F3448"/>
<path d="M134.636 5.52184C135.501 5.52184 136.168 5.46971 136.822 5.54443C137.143 5.58092 137.536 5.77033 137.732 6.02057C138.855 7.45071 139.929 8.91907 141.062 10.4291C142.037 9.14845 143.083 7.9112 143.965 6.56795C144.537 5.69735 145.203 5.37414 146.19 5.51489C146.546 5.56529 146.914 5.52358 147.446 5.52358C146.171 7.12054 145.105 8.67232 143.814 10.0069C142.377 11.4926 141.734 13.1243 142.083 15.1523C142.089 15.1801 142.085 15.2096 142.087 15.2391C142.132 17.3731 142.132 17.3731 139.852 17.0499C139.852 15.6875 139.88 14.306 139.835 12.928C139.821 12.53 139.691 12.0678 139.454 11.7533C138.099 9.95475 136.693 8.19271 135.306 6.41677C135.115 6.17349 134.935 5.92152 134.636 5.52184Z" fill="#2F3448"/>
<path d="M124.409 7.35991C122.988 7.35991 121.617 7.35991 120.162 7.35991C120.162 6.72565 120.162 6.17479 120.162 5.57007C123.695 5.57007 127.214 5.57007 130.797 5.57007C130.797 6.10528 130.797 6.63528 130.797 7.26955C129.426 7.26955 128.055 7.26955 126.533 7.26955C126.533 9.31658 126.524 11.2646 126.536 13.2125C126.543 14.3386 126.613 15.4664 126.587 16.5907C126.581 16.7801 126.248 17.0876 126.03 17.1224C125.528 17.2023 125.005 17.1485 124.409 17.1485C124.409 13.885 124.409 10.665 124.409 7.35991Z" fill="#2F3448"/>
<path d="M112.245 17.1382C112.245 13.2283 112.245 9.42969 112.245 5.57544C112.984 5.57544 113.663 5.57544 114.442 5.57544C114.459 5.85174 114.492 6.12804 114.492 6.40433C114.49 9.6973 114.464 12.9903 114.497 16.2832C114.504 16.9783 114.32 17.2373 113.621 17.1469C113.201 17.093 112.768 17.1382 112.245 17.1382Z" fill="#2F3448"/>
<path d="M88.1986 5.58569C88.1986 9.42778 88.1986 13.2264 88.1986 17.0911C87.4966 17.0911 86.8206 17.0911 86.0665 17.0911C86.0665 13.2873 86.0665 9.46949 86.0665 5.58569C86.7477 5.58569 87.4236 5.58569 88.1986 5.58569Z" fill="#2F3448"/>
<path d="M44.6585 5.55078C45.3796 5.55078 46.0052 5.55078 46.6846 5.55078C46.6846 9.37897 46.6846 13.1863 46.6846 17.0023C46.6499 17.0301 46.6082 17.0927 46.5613 17.0962C44.5924 17.2821 44.6029 17.2804 44.6098 15.3393C44.6202 12.3018 44.615 9.26602 44.6185 6.22849C44.6185 6.03213 44.6411 5.83403 44.6585 5.55078Z" fill="#2F3448"/>
</svg>
