<svg width="84" height="41" viewBox="0 0 84 41" fill="none" xmlns="http://www.w3.org/2000/svg">
<path d="M40.7964 19.2806C39.7708 20.806 38.7251 22.2391 37.8199 23.7544C37.3482 24.5412 37.003 24.3666 36.4249 23.9531C34.444 22.5401 32.485 21.085 30.4278 19.7924C26.7668 17.4943 22.9493 15.5193 18.5357 15.1199C15.2943 14.8269 12.3479 15.4651 10.0498 17.98C6.69593 21.653 6.78625 28.5373 10.2264 31.9233C11.7538 33.4266 13.6605 34.1853 15.7339 34.2656C17.8754 34.3499 20.0872 34.4 22.1545 33.9484C23.7522 33.6012 25.2314 32.5415 26.6544 31.6282C27.383 31.1606 27.8607 31.0422 28.5411 31.8249C27.7965 32.5435 27.0799 33.3142 26.2831 33.9886C23.2323 36.5757 19.8825 38.5607 15.8262 39.1167C8.44812 40.1303 2.23818 35.7508 0.494021 28.6256C-1.42676 20.7779 2.44892 14.3733 8.73312 11.0375C13.6906 8.40621 18.9532 8.00078 24.3081 9.45993C30.5743 11.166 35.9131 14.5499 40.6177 18.9796C40.686 19.0458 40.7201 19.1482 40.7964 19.2806Z" fill="white"/>
<path d="M46.7394 24.2041C47.2853 24.5955 47.7469 24.9086 48.1925 25.2458C52.4375 28.4651 56.8611 31.3734 62.0113 32.967C64.171 33.6354 66.3808 33.9485 68.6427 33.5672C72.958 32.8386 75.9706 29.5209 76.3199 25.1554C76.5065 22.8152 76.3279 20.5431 75.1076 18.4718C73.5481 15.8225 71.0653 14.7246 68.1289 14.4235C64.0947 14.0081 60.3776 14.7708 57.0659 17.2395C56.7327 17.4884 56.1105 17.3499 55.6207 17.392C55.5806 17.2636 55.5385 17.1351 55.4983 17.0067C55.9439 16.539 56.3694 16.0513 56.837 15.6057C60.1789 12.4144 64.0184 10.1384 68.6749 9.57841C75.7157 8.73142 81.9538 13.3538 83.5695 20.2762C85.6609 29.2379 79.7801 36.1724 73.532 38.5748C67.1535 41.0275 60.9636 40.3612 54.8841 37.5673C50.876 35.7248 47.2733 33.2701 43.9937 30.3237C43.4176 29.8059 43.2711 29.3964 43.7448 28.718C44.7564 27.2729 45.6997 25.7796 46.7394 24.2041Z" fill="white"/>
<path d="M58.5831 0C51.8774 13.7767 43.2971 26.319 35.5176 39.5417C35.3329 39.0098 35.1242 38.5161 34.9917 38.0042C33.9581 34.0242 31.8627 30.7546 28.5068 28.3461C25.9378 26.5016 23.0094 25.8774 19.8924 25.763C16.9319 25.6546 14.1501 26.323 11.4024 27.2964C11.1395 27.3887 10.8665 27.451 10.3647 27.5955C10.5835 27.1419 10.6477 26.883 10.8023 26.7003C13.2891 23.79 16.3399 21.9977 20.2376 21.6164C26.0241 21.0504 30.833 23.1377 35.1443 26.7565C35.1704 26.7786 35.1945 26.8007 35.2205 26.8227C35.628 27.18 36.0354 27.5373 36.4449 27.8965C36.8443 27.4229 37.2778 26.9733 37.6391 26.4695C42.8194 19.242 47.0684 11.4384 51.5944 3.80745C52.2366 2.72362 52.9572 1.95089 54.2156 1.59162C55.6989 1.16612 57.1279 0.5379 58.5831 0Z" fill="#2958FF"/>
</svg>
