<svg width="200" height="25" viewBox="0 0 200 25" fill="none" xmlns="http://www.w3.org/2000/svg">
<path d="M24.8463 11.7422C24.2217 12.6712 23.5848 13.544 23.0335 14.4669C22.7463 14.946 22.536 14.8397 22.184 14.5879C20.9775 13.7273 19.7844 12.8411 18.5315 12.0539C16.3019 10.6542 13.9769 9.45142 11.2889 9.20817C9.31472 9.0297 7.52026 9.41842 6.12064 10.9501C4.07804 13.187 4.13304 17.3798 6.22821 19.442C7.15844 20.3575 8.3197 20.8196 9.58243 20.8685C10.8867 20.9198 12.2338 20.9504 13.4928 20.6753C14.4658 20.4639 15.3667 19.8185 16.2334 19.2623C16.6771 18.9775 16.9681 18.9053 17.3824 19.3821C16.9289 19.8197 16.4926 20.2891 16.0073 20.6998C14.1492 22.2754 12.1091 23.4844 9.63865 23.823C5.14518 24.4403 1.36313 21.773 0.300875 17.4336C-0.868945 12.6541 1.49147 8.75344 5.31875 6.72184C8.33804 5.1193 11.5431 4.87238 14.8044 5.76105C18.6207 6.80007 21.8723 8.86101 24.7375 11.5588C24.7791 11.5992 24.7999 11.6615 24.8463 11.7422Z" fill="white"/>
<path d="M28.4658 14.7418C28.7982 14.9801 29.0794 15.1708 29.3508 15.3762C31.9361 17.3369 34.6302 19.1081 37.7669 20.0787C39.0822 20.4858 40.428 20.6764 41.8056 20.4442C44.4337 20.0005 46.2685 17.9799 46.4812 15.3212C46.5949 13.8959 46.4861 12.5122 45.7429 11.2507C44.7931 9.63711 43.281 8.96847 41.4927 8.78511C39.0357 8.53208 36.7719 8.99658 34.7549 10.5001C34.552 10.6517 34.1731 10.5673 33.8748 10.593C33.8504 10.5148 33.8247 10.4366 33.8002 10.3583C34.0716 10.0735 34.3308 9.77646 34.6156 9.50509C36.6508 7.56151 38.9893 6.17532 41.8252 5.83428C46.1133 5.31843 49.9125 8.13358 50.8965 12.3496C52.1702 17.8075 48.5886 22.0309 44.7834 23.494C40.8986 24.9878 37.1288 24.582 33.4262 22.8804C30.9851 21.7583 28.7909 20.2633 26.7935 18.4688C26.4427 18.1535 26.3535 17.9041 26.642 17.4909C27.258 16.6108 27.8326 15.7014 28.4658 14.7418Z" fill="white"/>
<path d="M35.679 0C31.595 8.39043 26.3694 16.0291 21.6314 24.0822C21.5189 23.7582 21.3918 23.4575 21.3111 23.1458C20.6816 20.7218 19.4054 18.7306 17.3616 17.2637C15.797 16.1403 14.0135 15.7602 12.1151 15.6905C10.3121 15.6245 8.61792 16.0315 6.94447 16.6244C6.78434 16.6806 6.6181 16.7185 6.3125 16.8065C6.44574 16.5303 6.48486 16.3726 6.57898 16.2614C8.09351 14.4889 9.95153 13.3973 12.3254 13.1651C15.8495 12.8203 18.7784 14.0916 21.404 16.2956C21.4199 16.309 21.4346 16.3225 21.4505 16.3359C21.6986 16.5535 21.9468 16.7711 22.1961 16.9899C22.4394 16.7014 22.7034 16.4276 22.9235 16.1208C26.0784 11.719 28.6662 6.96636 31.4227 2.31886C31.8138 1.65877 32.2527 1.18816 33.0191 0.969349C33.9225 0.710203 34.7928 0.327599 35.679 0Z" fill="#2958FF"/>
<path d="M75.3572 12.5208C75.3572 16.04 75.3572 19.5567 75.3572 23.1772C74.412 23.1772 73.5328 23.1772 72.5358 23.1772C72.5358 18.0105 72.5358 12.8225 72.5358 7.5898C74.2612 7.32345 75.6259 7.42717 76.7738 9.12427C78.7255 12.0093 80.9859 14.6846 83.1191 17.4471C83.3218 17.7111 83.5528 17.9539 83.9912 18.4607C83.9912 14.6351 83.9912 11.1137 83.9912 7.54974C84.96 7.54974 85.7732 7.54974 86.6571 7.54974C86.6571 12.7424 86.6571 17.9398 86.6571 23.1678C85.0967 23.4601 83.9087 23.255 82.8645 21.7394C80.8469 18.8072 78.5558 16.0635 76.3755 13.2421C76.1421 12.9404 75.897 12.6481 75.6566 12.3511C75.5576 12.4077 75.4562 12.4643 75.3572 12.5208Z" fill="white"/>
<path d="M140.208 18.2668C140.208 14.717 140.208 11.1649 140.208 7.55385C141.139 7.55385 141.99 7.55385 142.949 7.55385C142.949 12.7229 142.949 17.8873 142.949 23.0635C141.085 23.6433 140.314 23.4052 139.171 21.9226C136.844 18.9103 134.508 15.905 132.175 12.8974C132.019 12.6947 131.84 12.5108 131.494 12.1101C131.494 15.9545 131.494 19.5373 131.494 23.1955C130.501 23.1955 129.622 23.1955 128.67 23.1955C128.67 18.0217 128.67 12.895 128.67 7.76598C130.098 7.11778 131.512 7.42185 132.42 8.59332C134.942 11.8437 137.459 15.0989 139.979 18.3517C140.057 18.3234 140.132 18.2951 140.208 18.2668Z" fill="white"/>
<path d="M108.347 7.54004C108.347 8.36502 108.347 9.091 108.347 9.93719C105.188 9.93719 102.103 9.93719 98.9563 9.93719C98.9563 11.2902 98.9563 12.5206 98.9563 13.8547C101.655 13.8547 104.307 13.8547 106.935 13.8547C107.456 16.299 107.404 16.365 105.118 16.3626C103.048 16.3603 100.979 16.3626 98.895 16.3626C98.895 18.3166 98.8149 20.1198 98.9233 21.9135C98.994 23.0638 98.5579 23.3891 97.5232 23.2877C97.106 23.2477 96.6793 23.2807 96.2056 23.2807C96.2056 17.9984 96.2056 12.7963 96.2056 7.54004C100.229 7.54004 104.22 7.54004 108.347 7.54004Z" fill="white"/>
<path d="M182.623 7.49095C183.797 7.49095 184.702 7.42024 185.589 7.5216C186.025 7.5711 186.557 7.82802 186.824 8.16744C188.346 10.1073 189.803 12.0991 191.34 14.1474C192.662 12.4102 194.081 10.732 195.279 8.90992C196.054 7.72902 196.957 7.29061 198.296 7.48153C198.779 7.54989 199.279 7.49331 200 7.49331C198.27 9.65948 196.825 11.7644 195.074 13.5746C193.124 15.5899 192.252 17.8032 192.726 20.5539C192.733 20.5916 192.728 20.6317 192.731 20.6718C192.792 23.5663 192.792 23.5663 189.699 23.1279C189.699 21.2799 189.737 19.406 189.676 17.5369C189.657 16.9971 189.48 16.3701 189.16 15.9435C187.321 13.5039 185.414 11.1138 183.533 8.70486C183.274 8.37487 183.029 8.03308 182.623 7.49095Z" fill="white"/>
<path d="M168.752 9.98444C166.824 9.98444 164.964 9.98444 162.991 9.98444C162.991 9.1241 162.991 8.37691 162.991 7.55664C167.783 7.55664 172.556 7.55664 177.417 7.55664C177.417 8.28262 177.417 9.00153 177.417 9.86186C175.557 9.86186 173.697 9.86186 171.632 9.86186C171.632 12.6385 171.621 15.2808 171.637 17.9231C171.646 19.4505 171.741 20.9802 171.705 22.5053C171.698 22.7622 171.246 23.1794 170.951 23.2265C170.27 23.335 169.56 23.2619 168.752 23.2619C168.752 18.8353 168.752 14.4676 168.752 9.98444Z" fill="white"/>
<path d="M152.252 23.2475C152.252 17.9441 152.252 12.7915 152.252 7.56348C153.254 7.56348 154.176 7.56348 155.232 7.56348C155.255 7.93825 155.3 8.31303 155.3 8.68781C155.298 13.1545 155.262 17.6212 155.307 22.0878C155.317 23.0307 155.067 23.3819 154.119 23.2593C153.549 23.1862 152.962 23.2475 152.252 23.2475Z" fill="white"/>
<path d="M119.635 7.57715C119.635 12.7887 119.635 17.9413 119.635 23.1834C118.683 23.1834 117.766 23.1834 116.743 23.1834C116.743 18.0238 116.743 12.8452 116.743 7.57715C117.667 7.57715 118.584 7.57715 119.635 7.57715Z" fill="white"/>
<path d="M60.576 7.53027C61.5541 7.53027 62.4027 7.53027 63.3243 7.53027C63.3243 12.7229 63.3243 17.8873 63.3243 23.0635C63.2772 23.1012 63.2206 23.186 63.157 23.1908C60.4864 23.443 60.5005 23.4406 60.51 20.8077C60.5241 16.6876 60.517 12.5697 60.5217 8.44954C60.5217 8.18319 60.5524 7.91448 60.576 7.53027Z" fill="white"/>
</svg>
