<svg width="203" height="202" viewBox="0 0 203 202" fill="none" xmlns="http://www.w3.org/2000/svg">
<path d="M120.528 173.69H67.1029C57.94 173.69 50.4436 166.194 50.4436 157.031V109.828C50.4436 100.665 57.94 93.1689 67.1029 93.1689H120.528C129.691 93.1689 137.187 100.665 137.187 109.828V157.031C137.187 166.194 129.691 173.69 120.528 173.69Z" fill="white"/>
<path d="M120.527 93.1694C129.69 93.1694 137.186 100.666 137.186 109.829V157.031C137.186 166.194 129.69 173.691 120.527 173.691H67.1019C57.939 173.691 50.4426 166.194 50.4426 157.031V109.829C50.4426 100.666 57.939 93.1694 67.1019 93.1694H120.527ZM120.527 90.5361H67.1019C64.507 90.5361 61.9844 91.0492 59.6039 92.0604C57.3093 93.0354 55.2471 94.428 53.4745 96.2013C51.702 97.9746 50.3086 100.037 49.3336 102.331C48.3224 104.711 47.8093 107.234 47.8093 109.829V157.031C47.8093 159.626 48.3224 162.149 49.3336 164.529C50.3086 166.824 51.7012 168.886 53.4745 170.659C55.2471 172.431 57.31 173.824 59.6039 174.799C61.9844 175.811 64.507 176.324 67.1019 176.324H120.527C123.122 176.324 125.645 175.811 128.025 174.799C130.32 173.824 132.382 172.432 134.154 170.659C135.927 168.886 137.32 166.823 138.295 164.529C139.307 162.149 139.82 159.626 139.82 157.031V109.829C139.82 107.234 139.307 104.711 138.295 102.331C137.32 100.036 135.928 97.9739 134.154 96.2013C132.381 94.4288 130.319 93.0354 128.025 92.0604C125.645 91.0485 123.122 90.5361 120.527 90.5361Z" fill="#371A45"/>
<path d="M135.992 144.504C127.674 145.479 119.383 145.719 119.383 145.719C119.383 145.719 115.161 124.665 113.99 108.156C113.128 95.9232 113.939 86.1885 119.383 89.3634C121.887 90.8245 124.772 93.5758 127.78 97.066C139.061 110.161 152.023 133.675 152.735 138.554C153.192 141.691 144.58 143.491 135.992 144.504Z" fill="white"/>
<path d="M118.27 147.121L118.043 145.988C118.018 145.859 115.436 132.922 113.765 119.527C112.779 111.63 112.297 105.109 112.332 100.147C112.379 93.3703 113.364 89.5266 115.429 88.0512C116.335 87.4034 117.878 86.9008 120.075 88.1821C127.317 92.4073 136.508 105.867 141.343 113.514C144.567 118.615 147.654 123.977 150.035 128.611C151.713 131.876 153.778 136.217 154.091 138.355C154.182 138.976 154.121 139.917 153.316 140.875C152.152 142.261 149.734 143.346 145.707 144.288C142.754 144.979 138.96 145.573 134.429 146.054C126.759 146.869 119.497 147.086 119.424 147.087L118.27 147.121ZM117.498 90.1254C117.234 90.1254 117.096 90.2247 117.02 90.2781C116.127 90.9161 113.449 94.8841 116.479 119.174C117.851 130.175 119.843 140.87 120.505 144.308C122.84 144.214 128.382 143.944 134.156 143.33C147.559 141.905 150.554 139.907 151.22 139.115C151.404 138.896 151.389 138.794 151.382 138.751C150.993 136.091 145.937 125.903 139.029 114.976C131.029 102.323 123.619 93.4177 118.695 90.546C118.136 90.221 117.757 90.1254 117.498 90.1254Z" fill="#371A45"/>
<path d="M77.0588 88.5885L75.375 101.324L74.4173 108.565L72.3747 124.024C72.3747 124.024 68.6415 126.563 62.4316 128.575C60.1113 129.328 57.439 130.002 54.4898 130.443C49.6687 131.169 44.0945 131.261 38.0554 130.026C22.5178 126.843 13.1932 115.302 9.15608 109.499C1.35495 98.2999 0.153443 95.2717 2.32322 90.5567C3.97915 86.9431 6.81627 86.2833 6.81627 86.2833C6.81627 86.2833 6.67633 83.3958 8.96198 82.3688C15.8121 79.2925 24.6365 87.5081 24.6365 87.5081C24.6365 87.5081 24.9652 78.6733 29.6938 80.7129C32.9515 82.1191 33.6903 91.7379 33.6903 91.7379C33.6903 91.7379 38.0629 97.3564 45.0094 98.102C48.6395 98.4917 53.6629 97.4384 58.6518 95.9089C58.7097 95.8916 58.7684 95.8751 58.8263 95.854C61.4851 95.0332 64.1266 94.0814 66.5454 93.1402C67.6303 92.7197 68.6701 92.2984 69.6451 91.8951C74.0035 90.088 77.0588 88.5885 77.0588 88.5885Z" fill="white"/>
<g opacity="0.35">
<g opacity="0.35">
<g opacity="0.35">
<g opacity="0.35">
<path opacity="0.35" d="M9.15147 109.497C13.1923 115.299 22.5155 126.842 38.0515 130.024C47.7832 132.014 56.3111 130.552 62.43 128.571C68.6399 126.561 72.3723 124.021 72.3723 124.021L72.6462 111.821C72.6462 111.821 68.4149 107.744 64.4741 109.406C59.7388 111.404 61.2563 118.194 54.4934 120.082C35.6929 125.332 20.4202 115.74 15.5058 111.529C8.68802 105.688 6.90946 102.009 5.95021 100.491C3.96476 97.3498 2.43146 94.8813 1.56701 92.6709C0.686762 96.4108 2.56689 100.042 9.15147 109.497Z" fill="#371A45"/>
</g>
</g>
</g>
</g>
<path d="M47.4295 132.338C44.1854 132.338 40.9548 132.013 37.7799 131.362C30.7958 129.932 24.2797 126.711 18.4136 121.79C14.6383 118.622 11.1451 114.748 8.0319 110.278C4.23252 104.821 1.81748 101.073 0.716035 98.0619C-0.339514 95.1766 -0.234935 92.8353 1.07566 89.9794C2.36594 87.1671 4.31679 85.8738 5.49573 85.3193C5.68833 83.8733 6.43842 81.9977 8.39905 81.1175C13.9695 78.6151 20.3976 82.4875 23.5792 84.8709C23.6101 84.7092 23.6447 84.5437 23.6816 84.3759C24.209 82.0105 25.1193 80.405 26.387 79.6052C27.1657 79.1139 28.465 78.6889 30.2368 79.454C32.0342 80.2304 33.3455 82.5168 34.2468 86.4434C34.708 88.4551 34.93 90.3435 35.0135 91.1802C35.981 92.2756 39.7623 96.1585 45.1552 96.7363C54.9997 97.7911 76.2416 87.4598 76.4552 87.3552C76.9082 87.1333 77.4469 87.1784 77.8561 87.4733C78.2654 87.7675 78.4798 88.264 78.4144 88.7636L73.7332 124.198C73.6821 124.585 73.4692 124.931 73.1464 125.15C72.9899 125.256 69.2357 127.787 62.9934 129.826C59.337 131.021 55.5752 131.799 51.8135 132.14C50.3509 132.272 48.8883 132.338 47.4295 132.338ZM7.13134 87.6087C6.95453 87.6569 4.86525 88.2829 3.56293 91.1207C1.8092 94.9427 2.2403 97.1704 10.2777 108.714C17.8343 119.566 27.5336 126.47 38.3283 128.68C48.1638 130.694 56.7068 129 62.1418 127.225C66.7492 125.719 69.9263 123.923 71.1015 123.206L75.3719 90.8852C73.1412 91.9039 69.4922 93.5042 65.3972 95.039C56.2817 98.4546 49.3721 99.9413 44.8633 99.4583C37.4248 98.6615 32.8023 92.8233 32.609 92.575C32.4442 92.3629 32.3449 92.1071 32.3246 91.8392C32.3231 91.8166 32.1372 89.4806 31.5715 87.0264C30.6182 82.8892 29.4777 82.1076 29.1512 81.9669C28.3341 81.614 27.9813 81.836 27.8481 81.9195C26.6977 82.6432 26.0748 85.6511 25.9996 87.5553C25.9785 88.0895 25.6475 88.5635 25.1532 88.7674C24.6581 88.9713 24.0908 88.8689 23.6989 88.504C23.6176 88.4288 15.4569 80.9474 9.52005 83.6145C8.15228 84.2292 8.1771 86.083 8.18086 86.2161C8.22074 86.8918 7.79265 87.4688 7.13134 87.6087Z" fill="#371A45"/>
<path d="M25.7582 87.5056C25.7898 87.8901 25.7326 88.2399 25.6559 88.5431C25.6175 88.6996 25.5701 88.835 25.522 88.9742C25.4731 89.1043 25.4197 89.2368 25.367 89.3549C25.1511 89.8409 24.9178 90.2434 24.6959 90.6339C24.4732 91.0221 24.2588 91.3915 24.0594 91.7617L23.9135 92.04C23.8676 92.1333 23.8187 92.2259 23.7743 92.3199L23.6449 92.6028L23.5215 92.8887L23.4094 93.1791L23.3056 93.474C23.2702 93.5726 23.2439 93.6734 23.2123 93.7734C23.1792 93.8735 23.1543 93.9758 23.1272 94.0774C23.0234 94.4867 22.9339 94.908 22.882 95.3421C22.8256 95.7754 22.7894 96.2201 22.7789 96.6723C22.7676 96.8995 22.7721 97.1267 22.7699 97.3584C22.7661 97.4743 22.7759 97.5886 22.7766 97.7052C22.7789 97.8218 22.7827 97.9385 22.7819 98.0566V98.0649C22.7819 98.1559 22.7082 98.2296 22.6164 98.2296C22.5524 98.2296 22.4975 98.1935 22.4704 98.1401C22.2508 97.7143 22.0521 97.2719 21.8987 96.8099C21.7369 96.3495 21.621 95.8695 21.536 95.3782C21.369 94.3956 21.3728 93.3559 21.5563 92.3402L21.6323 91.961C21.6617 91.8361 21.694 91.712 21.7249 91.5864C21.758 91.4622 21.7948 91.3403 21.8294 91.2162C21.8656 91.0936 21.9084 90.9739 21.9483 90.8528C22.1131 90.3713 22.317 89.9139 22.5269 89.485C22.736 89.057 22.9587 88.6529 23.1393 88.3023C23.3296 87.9472 23.4372 87.6591 23.5004 87.5034L23.6328 87.1776C23.863 86.6126 24.5078 86.341 25.0728 86.5712C25.4723 86.736 25.7244 87.1053 25.7582 87.5056Z" fill="#371A45"/>
<path d="M36.5492 130.964C36.2038 130.964 35.8705 130.773 35.7065 130.442C35.4748 129.977 35.6644 129.413 36.1293 129.181C39.9235 127.293 42.5161 121.402 43.625 112.145C44.485 104.97 44.1276 98.2976 44.1238 98.2314C44.0952 97.713 44.4917 97.2691 45.0101 97.2398C45.5262 97.2105 45.9724 97.6077 46.0017 98.1261C46.0055 98.1938 46.3719 105.009 45.4954 112.343C44.977 116.684 44.1306 120.366 42.9795 123.289C41.4899 127.072 39.4668 129.621 36.9675 130.865C36.8328 130.932 36.6899 130.964 36.5492 130.964Z" fill="#371A45"/>
<g opacity="0.35">
<g opacity="0.35">
<g opacity="0.35">
<g opacity="0.35">
<path opacity="0.35" d="M157.924 191.499V191.308C156.419 191.373 157.924 191.499 157.924 191.499Z" fill="#371A45"/>
</g>
</g>
</g>
</g>
<path d="M138.943 168.394H48.5933C48.5933 168.394 49.144 152.801 54.4887 130.441C56.6306 121.473 59.546 111.416 63.5049 100.839C64.4558 98.3002 65.4693 95.7309 66.5436 93.1368C69.5477 85.9 73.0515 78.4886 77.1375 71.0771H110.4C113.777 77.205 116.757 83.3299 119.385 89.3623C121.085 93.2632 122.639 97.1228 124.056 100.914C130.238 117.441 133.869 132.695 135.994 144.503C138.614 159.07 138.943 168.394 138.943 168.394Z" fill="white"/>
<path d="M126.538 112.544C128.284 114.493 129.082 116.762 129.82 119.041C130.19 120.181 130.555 121.323 130.903 122.47C131.078 123.044 131.257 123.616 131.413 124.195C131.573 124.772 131.729 125.351 131.885 125.93L132.342 127.668C132.493 128.248 132.645 128.828 132.786 129.411L133.618 132.909C133.753 133.493 133.901 134.073 134.034 134.658L134.43 136.411L134.837 138.161C134.974 138.744 135.116 139.327 135.243 139.912L136.027 143.42C136.162 144.004 136.278 144.592 136.402 145.179L136.769 146.938L136.953 147.818L137.045 148.258L137.13 148.699L137.474 150.463C137.589 151.051 137.707 151.639 137.831 152.225C137.95 152.813 138.069 153.4 138.194 153.987C138.718 156.329 139.1 158.701 139.259 161.104C139.279 161.404 139.302 161.704 139.317 162.006L139.355 162.909C139.375 163.513 139.391 164.115 139.382 164.722C139.378 165.328 139.365 165.934 139.326 166.543C139.29 167.152 139.24 167.76 139.148 168.373C139.131 168.492 139.02 168.573 138.902 168.556C138.822 168.544 138.758 168.489 138.731 168.418L138.731 168.415C138.299 167.268 137.946 166.115 137.613 164.962C137.449 164.386 137.291 163.808 137.138 163.231L136.918 162.364C136.849 162.074 136.778 161.785 136.705 161.496C136.425 160.338 136.179 159.177 135.957 158.011C135.85 157.427 135.753 156.841 135.664 156.255C135.569 155.669 135.48 155.082 135.389 154.495C135.301 153.907 135.207 153.321 135.113 152.735C135.012 152.15 134.9 151.567 134.786 150.984L134.445 149.234L134.36 148.797L134.269 148.361L134.087 147.489L133.723 145.744C133.6 145.163 133.484 144.58 133.351 144.001L132.573 140.522C132.449 139.941 132.303 139.365 132.165 138.787L131.74 137.056L131.304 135.328C131.233 135.04 131.153 134.753 131.076 134.467L130.842 133.607L129.903 130.168C129.578 129.026 129.245 127.885 128.928 126.74C128.77 126.167 128.612 125.595 128.459 125.021L128.344 124.59L128.223 124.162L127.985 123.303C127.667 122.159 127.365 121.009 127.068 119.858L126.85 118.993C126.777 118.705 126.696 118.419 126.619 118.131C126.467 117.557 126.339 116.974 126.242 116.382C126.147 115.789 126.08 115.188 126.054 114.572C126.041 114.264 126.039 113.953 126.051 113.637C126.063 113.32 126.083 113.001 126.139 112.671L126.141 112.658C126.162 112.533 126.28 112.449 126.405 112.47C126.459 112.48 126.505 112.506 126.538 112.544Z" fill="#371A45"/>
<path d="M48.3823 168.388C48.2431 168.078 48.1475 167.77 48.058 167.461C47.9685 167.151 47.9015 166.845 47.8421 166.536C47.7217 165.919 47.657 165.306 47.6209 164.694C47.6043 164.388 47.593 164.083 47.5938 163.778C47.5945 163.473 47.6066 163.17 47.6209 162.867L47.672 161.957C47.6878 161.654 47.7066 161.351 47.7315 161.049C47.8255 159.839 47.9173 158.628 48.0587 157.424C48.1227 156.82 48.1942 156.218 48.2649 155.616C48.2995 155.315 48.3461 155.015 48.3868 154.715L48.5139 153.814L48.7795 152.015C48.8728 151.416 48.9811 150.82 49.0827 150.223C49.2903 149.029 49.486 147.834 49.7229 146.646C49.9532 145.456 50.1638 144.264 50.3993 143.076C50.6386 141.89 50.8718 140.702 51.102 139.513C51.1607 139.216 51.2134 138.918 51.2773 138.622L51.4669 137.735L51.8453 135.959L52.2238 134.184C52.2561 134.035 52.2855 133.887 52.3193 133.74L52.4231 133.298L52.6308 132.414L53.4606 128.879C53.5276 128.584 53.6028 128.29 53.6773 127.997C53.7495 127.703 53.8233 127.409 53.8925 127.115C54.0324 126.526 54.1708 125.937 54.304 125.346C54.4402 124.757 54.5734 124.165 54.714 123.576C54.8495 122.986 55.0195 122.405 55.1895 121.823C55.3633 121.243 55.5476 120.666 55.741 120.091C55.9351 119.517 56.1412 118.946 56.3497 118.377L56.6717 117.525C56.7258 117.384 56.786 117.244 56.8447 117.103C56.9041 116.963 56.9613 116.822 57.023 116.682C57.266 116.123 57.512 115.567 57.7739 115.015C58.0327 114.462 58.3028 113.914 58.5864 113.371C58.87 112.827 59.1642 112.288 59.4907 111.76C59.5532 111.658 59.6863 111.627 59.7879 111.69C59.8571 111.733 59.894 111.809 59.8902 111.885V111.888C59.7548 114.371 59.2898 116.734 58.8309 119.095C58.7128 119.684 58.5924 120.273 58.46 120.858C58.3268 121.443 58.1839 122.024 58.0319 122.603C57.7144 123.757 57.3954 124.91 57.0629 126.061C56.8966 126.637 56.7349 127.213 56.5746 127.79C56.4933 128.078 56.4174 128.368 56.3399 128.657C56.2639 128.946 56.1856 129.235 56.1209 129.528L55.3001 133.026L55.0947 133.9L54.9924 134.337C54.9586 134.483 54.9292 134.63 54.8976 134.776L54.5229 136.532L54.1483 138.289L53.9609 139.168C53.8985 139.461 53.8458 139.756 53.7879 140.049C52.8264 144.743 52.1801 149.493 51.5519 154.234L51.3081 156.011C51.2322 156.604 51.1562 157.197 51.0734 157.789L50.5889 161.342C50.5009 161.934 50.4302 162.526 50.3504 163.118C50.309 163.414 50.2654 163.71 50.2105 164.005C50.1563 164.3 50.1029 164.595 50.0367 164.889C49.905 165.478 49.7418 166.065 49.5484 166.65C49.4521 166.943 49.337 167.236 49.2189 167.528C49.0977 167.82 48.9661 168.113 48.8036 168.404L48.8021 168.407C48.7389 168.52 48.5967 168.561 48.4838 168.498C48.4357 168.471 48.4018 168.432 48.3823 168.388Z" fill="#371A45"/>
<path d="M74.6144 148.723C69.4616 150.809 61.4866 150.373 56.0501 149.714C52.7894 149.32 50.5 146.311 50.9808 143.061C51.4194 140.096 54.0293 137.94 57.0229 138.08C62.1081 138.318 69.7362 138.43 74.567 137.358" fill="white"/>
<g opacity="0.35">
<g opacity="0.35">
<g opacity="0.35">
<g opacity="0.35">
<path opacity="0.35" d="M74.6166 148.721C69.4623 150.811 61.4874 150.37 56.0509 149.716C52.7902 149.321 50.5015 146.31 50.9823 143.063C51.0778 142.4 51.2862 141.778 51.5819 141.21C52.4403 142.849 54.0662 144.058 56.0509 144.298C61.4776 144.957 69.439 145.393 74.5941 143.317L74.6166 148.721Z" fill="#371A45"/>
</g>
</g>
</g>
</g>
<path d="M64.3685 151.626C61.3869 151.626 58.4227 151.38 55.8842 151.073C53.9402 150.838 52.215 149.85 51.0263 148.293C49.8353 146.733 49.338 144.804 49.6254 142.861C49.8872 141.091 50.7916 139.489 52.1714 138.351C53.5527 137.211 55.2981 136.629 57.0857 136.714C64.5769 137.064 70.6792 136.819 74.2687 136.023C74.9894 135.863 76.78 135.857 77.8371 139.256C78.9107 142.708 78.7918 148.508 75.1271 149.992C72.1049 151.214 68.2228 151.626 64.3685 151.626ZM56.7442 139.442C54.5368 139.442 52.6604 141.05 52.3339 143.261C52.1556 144.467 52.464 145.664 53.2028 146.633C53.9394 147.598 55.0085 148.21 56.2138 148.355C63.9878 149.296 70.3407 148.976 74.1002 147.454C75.2166 147.002 75.5371 145.193 75.6237 144.436C75.9246 141.787 75.1188 139.341 74.614 138.749C69.7147 139.779 62.3319 139.7 56.9586 139.448C56.8864 139.444 56.8149 139.442 56.7442 139.442Z" fill="#371A45"/>
<path d="M114.03 148.723C119.183 150.809 127.158 150.373 132.594 149.714C135.855 149.32 138.144 146.311 137.663 143.061C137.225 140.096 134.615 137.94 131.621 138.08C126.536 138.318 118.908 138.43 114.077 137.358" fill="white"/>
<g opacity="0.35">
<g opacity="0.35">
<g opacity="0.35">
<g opacity="0.35">
<path opacity="0.35" d="M132.594 149.716C127.158 150.369 119.183 150.81 114.028 148.721L114.051 143.266C119.205 145.342 127.167 144.906 132.594 144.247C134.57 144.011 136.187 142.812 137.05 141.182C137.353 141.754 137.567 142.385 137.667 143.062C138.143 146.309 135.855 149.32 132.594 149.716Z" fill="#371A45"/>
</g>
</g>
</g>
</g>
<path d="M124.273 151.623C120.419 151.623 116.538 151.211 113.515 149.988C109.85 148.504 109.731 142.704 110.805 139.252C111.861 135.854 113.653 135.859 114.373 136.019C117.964 136.815 124.066 137.061 131.556 136.71C133.345 136.626 135.089 137.208 136.471 138.347C137.85 139.485 138.755 141.087 139.017 142.857C139.304 144.8 138.806 146.729 137.616 148.289C136.427 149.846 134.702 150.834 132.758 151.069C130.219 151.377 127.254 151.623 124.273 151.623ZM114.029 138.745C113.524 139.337 112.718 141.784 113.019 144.432C113.105 145.189 113.425 146.998 114.543 147.45C118.302 148.972 124.655 149.293 132.429 148.352C133.633 148.206 134.703 147.594 135.44 146.629C136.179 145.66 136.487 144.463 136.309 143.257C135.972 140.975 133.984 139.337 131.685 139.444C126.311 139.696 118.929 139.775 114.029 138.745Z" fill="#371A45"/>
<path d="M116.02 133.599V151.81C116.02 155.189 113.254 157.955 109.875 157.955H76.3362C72.9619 157.955 70.1963 155.189 70.1963 151.81V133.599C70.1963 130.22 72.9619 127.459 76.3362 127.459H109.875C111.865 127.459 113.64 128.417 114.766 129.893C115.552 130.924 116.02 132.209 116.02 133.599Z" fill="white"/>
<g opacity="0.35">
<g opacity="0.35">
<g opacity="0.35">
<g opacity="0.35">
<path opacity="0.35" d="M116.021 133.602V151.813C116.021 155.192 113.256 157.956 109.878 157.956H76.3392C72.9604 157.956 70.1963 155.192 70.1963 151.813V145.001C75.2333 150.137 85.1395 153.361 94.2249 153.409C97.144 153.425 99.4989 151.116 99.7073 148.203C99.7095 148.174 99.7118 148.145 99.7141 148.116C99.9375 145.561 102.042 143.492 104.6 143.308C107.513 143.098 109.972 145.249 110.261 148.046C114.658 142.617 113.37 133.181 114.769 129.896C115.554 130.927 116.021 132.21 116.021 133.602Z" fill="#371A45"/>
</g>
</g>
</g>
</g>
<path d="M109.878 159.322H76.3383C72.1974 159.322 68.8284 155.952 68.8284 151.812V133.598C68.8284 129.457 72.1974 126.088 76.3383 126.088H109.878C114.019 126.088 117.388 129.457 117.388 133.598V151.812C117.388 155.952 114.019 159.322 109.878 159.322ZM76.3383 128.826C73.7066 128.826 71.5654 130.967 71.5654 133.599V151.812C71.5654 154.444 73.7066 156.585 76.3383 156.585H109.878C112.51 156.585 114.651 154.444 114.651 151.812V133.599C114.651 130.967 112.51 128.826 109.878 128.826H76.3383Z" fill="#371A45"/>
<path d="M104.99 148.005C107.916 148.005 110.287 145.634 110.287 142.709C110.287 139.783 107.916 137.412 104.99 137.412C102.065 137.412 99.6938 139.783 99.6938 142.709C99.6938 145.634 102.065 148.005 104.99 148.005Z" fill="#22A7F0"/>
<g opacity="0.7">
<g opacity="0.7">
<g opacity="0.7">
<g opacity="0.7">
<path opacity="0.7" d="M110.286 142.707C110.286 143.07 110.252 143.422 110.183 143.766C109.694 141.344 107.554 139.522 104.991 139.522C102.424 139.522 100.284 141.344 99.7954 143.766C99.727 143.422 99.6924 143.071 99.6924 142.707C99.6924 139.781 102.065 137.412 104.991 137.412C107.914 137.412 110.286 139.781 110.286 142.707Z" fill="white"/>
</g>
</g>
</g>
</g>
<g opacity="0.35">
<g opacity="0.35">
<g opacity="0.35">
<g opacity="0.35">
<path opacity="0.35" d="M110.285 142.706C110.285 145.631 107.915 148.001 104.99 148.001C102.066 148.001 99.6953 145.631 99.6953 142.706C99.6953 142.03 99.8224 141.384 100.059 140.79C100.822 142.766 102.743 144.164 104.99 144.164C107.238 144.164 109.159 142.766 109.923 140.79C110.158 141.385 110.285 142.03 110.285 142.706Z" fill="#371A45"/>
</g>
</g>
</g>
</g>
<path d="M104.991 149.026C101.505 149.026 98.6687 146.19 98.6687 142.704C98.6687 139.217 101.505 136.381 104.991 136.381C108.478 136.381 111.314 139.217 111.314 142.704C111.314 146.19 108.478 149.026 104.991 149.026ZM104.991 138.434C102.637 138.434 100.722 140.35 100.722 142.704C100.722 145.058 102.637 146.973 104.991 146.973C107.346 146.973 109.261 145.058 109.261 142.704C109.261 140.349 107.346 138.434 104.991 138.434Z" fill="#371A45"/>
<path d="M89.981 158.983C89.4137 158.983 88.9548 158.523 88.9548 157.956V145.482L82.2476 140.433V127.46C82.2476 126.893 82.7072 126.434 83.2738 126.434C83.8403 126.434 84.3 126.893 84.3 127.46V139.408L91.0072 144.458V157.956C91.0079 158.523 90.5483 158.983 89.981 158.983Z" fill="#371A45"/>
<path d="M93.7657 167.763C99.6988 167.763 105.404 165.562 109.86 161.644C116.032 156.218 126.423 149.747 137.892 153.898C142.494 155.562 145.63 158.616 147.77 161.995C153.28 149.227 164.839 148.462 169.842 155.698C169.842 155.698 161.432 195.82 158.691 196.713C154.765 197.992 145.33 196.647 145.33 196.647C145.33 196.647 112.508 192.203 93.7657 192.203C75.0232 192.203 42.2011 196.647 42.2011 196.647C42.2011 196.647 32.7666 197.991 28.8401 196.713C26.0992 195.82 17.6895 155.698 17.6895 155.698C22.6918 148.461 34.2517 149.227 39.7619 161.995C41.9009 158.615 45.0374 155.562 49.6396 153.898C61.1084 149.747 71.4991 156.218 77.6714 161.644C82.1268 165.562 87.8319 167.763 93.7657 167.763Z" fill="white"/>
<g opacity="0.35">
<g opacity="0.35">
<g opacity="0.35">
<g opacity="0.35">
<path opacity="0.35" d="M169.843 155.696C169.843 155.696 161.432 195.819 158.691 196.712C154.766 197.992 145.33 196.647 145.33 196.647C145.33 196.647 112.509 192.202 93.7649 192.202C75.0246 192.202 42.2003 196.647 42.2003 196.647C42.2003 196.647 32.7665 197.992 28.8423 196.712C26.1015 195.819 17.6909 155.696 17.6909 155.696C18.5155 154.505 19.5146 153.53 20.6371 152.791C23.3336 164.555 27.1585 179.915 28.8423 180.462C32.7673 181.738 42.2003 180.394 42.2003 180.394C42.2003 180.394 75.0246 171.504 93.7649 171.504C112.509 171.504 145.33 180.394 145.33 180.394C145.33 180.394 154.766 181.738 158.691 180.462C160.375 179.915 164.2 164.555 166.896 152.791C168.019 153.53 169.018 154.505 169.843 155.696Z" fill="#371A45"/>
</g>
</g>
</g>
</g>
<path d="M33.8997 198.632C31.8413 198.632 29.8303 198.478 28.4159 198.017C27.4513 197.703 26.6403 196.634 25.1183 191.893C24.2275 189.117 23.1584 185.252 21.9419 180.406C19.751 171.68 17.6159 161.893 16.7996 158.091C16.3722 156.1 17.0245 154.041 18.5029 152.718C21.3407 150.178 25.1446 149.2 28.938 150.035C31.329 150.561 33.6552 151.81 35.6655 153.645C37.3305 155.165 38.778 157.064 39.9848 159.31C42.4337 156.184 45.5168 153.937 49.1747 152.614C53.3194 151.114 57.656 150.816 62.0648 151.728C65.6241 152.466 69.2437 153.994 72.8219 156.272C73.4599 156.678 73.6472 157.524 73.2417 158.162C72.8362 158.8 71.9898 158.987 71.3518 158.581C63.987 153.893 56.8389 152.752 50.1062 155.188C46.309 156.562 43.2176 159.099 40.9192 162.731C40.6476 163.16 40.1601 163.403 39.6552 163.363C39.1497 163.324 38.7073 163.008 38.5056 162.541C36.2035 157.206 32.5019 153.623 28.3497 152.709C25.426 152.066 22.5024 152.813 20.3288 154.76C19.581 155.428 19.2545 156.485 19.4764 157.518C20.2468 161.107 22.2661 170.367 24.3697 178.827C25.5261 183.478 26.5508 187.261 27.416 190.071C28.6273 194.007 29.26 195.161 29.485 195.483C32.5771 196.35 39.5319 195.65 42.0086 195.297C42.0116 195.296 42.0146 195.296 42.0176 195.295C42.3464 195.251 75.1467 190.839 93.7659 190.839C112.386 190.839 145.185 195.251 145.514 195.295C145.517 195.296 145.52 195.296 145.524 195.297C148.001 195.65 154.955 196.35 158.048 195.483C158.269 195.167 158.884 194.046 160.055 190.271C160.9 187.549 161.9 183.881 163.028 179.368C165.04 171.322 166.968 162.567 167.939 158.065C168.257 156.589 167.704 155.077 166.53 154.212C164.291 152.56 161.514 152.068 158.715 152.824C154.703 153.909 151.263 157.36 149.027 162.542C148.826 163.008 148.384 163.324 147.877 163.364C147.371 163.404 146.885 163.16 146.613 162.731C144.315 159.101 141.224 156.563 137.427 155.189C130.635 152.731 123.426 153.912 115.998 158.7C115.362 159.109 114.516 158.926 114.106 158.29C113.696 157.655 113.879 156.808 114.515 156.398C118.115 154.078 121.758 152.516 125.342 151.755C129.794 150.81 134.174 151.1 138.358 152.615C142.016 153.938 145.1 156.186 147.549 159.311C150.12 154.532 153.772 151.324 158.001 150.181C161.571 149.216 165.272 149.882 168.155 152.008C170.194 153.511 171.16 156.115 170.616 158.641C169.588 163.411 167.55 172.652 165.454 180.948C164.266 185.653 163.222 189.401 162.352 192.087C160.867 196.672 160.069 197.709 159.116 198.019C154.954 199.375 145.619 198.075 145.144 198.008C144.629 197.939 112.147 193.577 93.7666 193.577C75.3829 193.577 42.9039 197.939 42.3893 198.008C42.0741 198.051 37.8985 198.632 33.8997 198.632Z" fill="#371A45"/>
<path d="M156.254 196.715H158.691C161.553 196.715 164.148 195.036 165.313 192.423C168.962 184.251 175.615 166.297 169.384 155.34C169.202 155.02 169.008 154.713 168.803 154.418C168.803 154.418 162.82 148.976 158.522 156.674C154.507 163.866 146.081 194.615 156.254 196.715Z" fill="#AFAFB2"/>
<g opacity="0.7">
<g opacity="0.7">
<g opacity="0.7">
<g opacity="0.7">
<path opacity="0.7" d="M156.319 161.799C156.426 161.627 156.534 161.464 156.639 161.313C161.923 153.615 169.28 159.057 169.28 159.057C169.532 159.352 169.772 159.659 169.994 159.979C170.732 161.034 171.321 162.153 171.783 163.324C171.485 160.446 170.741 157.726 169.382 155.34C169.201 155.02 169.006 154.713 168.801 154.418C168.801 154.418 162.818 148.976 158.52 156.674C157.869 157.839 157.103 159.619 156.319 161.799Z" fill="white"/>
</g>
</g>
</g>
</g>
<path d="M171.753 164.142C171.692 164.142 171.629 164.137 171.566 164.126L156.612 161.63C155.998 161.528 155.582 160.946 155.685 160.331C155.787 159.716 156.369 159.301 156.983 159.403L171.937 161.899C172.552 162.002 172.967 162.583 172.865 163.199C172.774 163.751 172.295 164.142 171.753 164.142Z" fill="#371A45"/>
<path d="M171.657 172.223C171.607 172.223 171.556 172.22 171.505 172.212L154.012 169.86C153.394 169.777 152.961 169.209 153.044 168.592C153.127 167.974 153.695 167.541 154.313 167.623L171.806 169.975C172.424 170.058 172.857 170.626 172.774 171.244C172.697 171.811 172.213 172.223 171.657 172.223Z" fill="#371A45"/>
<path d="M170.116 180.139C170.07 180.139 170.024 180.136 169.977 180.131L152.22 177.957C151.601 177.881 151.161 177.318 151.236 176.7C151.312 176.081 151.874 175.641 152.494 175.717L170.251 177.89C170.87 177.966 171.31 178.529 171.235 179.147C171.165 179.719 170.678 180.139 170.116 180.139Z" fill="#371A45"/>
<path d="M167.298 188.765C167.264 188.765 167.23 188.763 167.195 188.76L151.319 187.328C150.698 187.272 150.241 186.723 150.297 186.102C150.352 185.482 150.901 185.023 151.522 185.08L167.398 186.512C168.019 186.568 168.477 187.117 168.421 187.738C168.368 188.324 167.876 188.765 167.298 188.765Z" fill="#371A45"/>
<g opacity="0.35">
<g opacity="0.35">
<g opacity="0.35">
<g opacity="0.35">
<path opacity="0.35" d="M156.253 196.715H158.691C161.553 196.715 164.148 195.037 165.313 192.423C166.257 190.305 167.404 187.535 168.477 184.396C167.014 186.825 164.04 188.365 160.776 188.365H157.87C153.735 187.649 152.179 183.594 152.118 178.278C150.72 187.249 151.104 195.652 156.253 196.715Z" fill="#371A45"/>
</g>
</g>
</g>
</g>
<path d="M158.691 197.841H156.254C156.177 197.841 156.101 197.833 156.026 197.818C154.056 197.411 152.567 196.133 151.6 194.02C149.321 189.038 150.428 180.358 151.759 173.954C153.386 166.128 155.897 159.059 157.537 156.122C159.045 153.421 160.945 151.866 163.182 151.501C166.614 150.941 169.444 153.473 169.563 153.58C169.625 153.637 169.681 153.701 169.729 153.769C169.954 154.091 170.169 154.432 170.366 154.78C173.215 159.788 173.819 166.638 172.163 175.139C170.816 182.05 168.256 188.601 166.345 192.88C165.001 195.894 161.997 197.841 158.691 197.841ZM156.376 195.584H158.691C161.107 195.584 163.302 194.162 164.283 191.961C166.146 187.79 168.641 181.41 169.947 174.708C171.497 166.752 170.977 160.423 168.404 155.896C168.264 155.649 168.114 155.408 167.958 155.178C167.535 154.833 165.615 153.384 163.533 153.731C162.015 153.984 160.66 155.159 159.509 157.222C157.99 159.941 155.533 166.891 153.97 174.413C152.186 182.999 152.073 189.628 153.653 193.082C154.293 194.483 155.185 195.303 156.376 195.584Z" fill="#371A45"/>
<path d="M31.279 196.715H28.8414C25.9794 196.715 23.3846 195.036 22.2192 192.423C18.5703 184.251 11.9172 166.297 18.1489 155.34C18.3303 155.02 18.5244 154.713 18.7298 154.418C18.7298 154.418 24.7125 148.976 29.0106 156.674C33.0252 163.866 41.4523 194.615 31.279 196.715Z" fill="#AFAFB2"/>
<g opacity="0.7">
<g opacity="0.7">
<g opacity="0.7">
<g opacity="0.7">
<path opacity="0.7" d="M31.2114 161.799C31.1038 161.627 30.9962 161.464 30.8916 161.313C25.6071 153.615 18.2499 159.057 18.2499 159.057C17.9978 159.352 17.7578 159.659 17.5367 159.979C16.7986 161.034 16.2087 162.153 15.7476 163.324C16.0455 160.446 16.7896 157.726 18.1483 155.34C18.3296 155.02 18.5237 154.713 18.7291 154.418C18.7291 154.418 24.7118 148.976 29.01 156.674C29.6623 157.839 30.4274 159.619 31.2114 161.799Z" fill="white"/>
</g>
</g>
</g>
</g>
<path d="M15.7793 164.143C15.2376 164.143 14.7599 163.752 14.6674 163.201C14.565 162.586 14.9796 162.005 15.595 161.901L30.5488 159.405C31.1634 159.303 31.745 159.717 31.8473 160.333C31.9496 160.947 31.5351 161.529 30.9197 161.632L15.9659 164.128C15.9035 164.138 15.841 164.143 15.7793 164.143Z" fill="#371A45"/>
<path d="M15.874 172.222C15.3172 172.222 14.8327 171.81 14.7567 171.244C14.674 170.626 15.1073 170.058 15.725 169.975L33.2179 167.624C33.8363 167.54 34.4036 167.974 34.4871 168.592C34.5699 169.21 34.1365 169.778 33.5189 169.86L16.0259 172.212C15.9748 172.218 15.9236 172.222 15.874 172.222Z" fill="#371A45"/>
<path d="M17.4178 180.139C16.8558 180.139 16.369 179.72 16.2991 179.147C16.2231 178.529 16.6632 177.966 17.2824 177.89L35.0401 175.716C35.6586 175.641 36.2213 176.081 36.2973 176.7C36.3733 177.318 35.9332 177.881 35.314 177.957L17.5562 180.13C17.5096 180.136 17.4637 180.139 17.4178 180.139Z" fill="#371A45"/>
<path d="M20.2335 188.766C19.6557 188.766 19.1637 188.325 19.111 187.739C19.0554 187.118 19.5128 186.57 20.1335 186.513L36.0096 185.081C36.631 185.025 37.1788 185.483 37.2352 186.103C37.2909 186.724 36.8334 187.272 36.2127 187.329L20.3366 188.761C20.302 188.764 20.2674 188.766 20.2335 188.766Z" fill="#371A45"/>
<g opacity="0.35">
<g opacity="0.35">
<g opacity="0.35">
<g opacity="0.35">
<path opacity="0.35" d="M31.2786 196.715H28.841C25.9791 196.715 23.3842 195.037 22.2188 192.423C21.2754 190.305 20.128 187.535 19.0552 184.396C20.5185 186.825 23.4918 188.365 26.7562 188.365H29.6618C33.7967 187.649 35.3526 183.594 35.4143 178.278C36.8129 187.249 36.4285 195.652 31.2786 196.715Z" fill="#371A45"/>
</g>
</g>
</g>
</g>
<path d="M31.2772 197.842H28.8396C25.5345 197.842 22.5304 195.895 21.1867 192.881C19.2765 188.603 16.7155 182.052 15.3687 175.141C13.7128 166.64 14.317 159.79 17.1654 154.781C17.3632 154.433 17.5776 154.093 17.8018 153.771C17.85 153.702 17.9057 153.639 17.9681 153.582C18.087 153.474 20.9166 150.943 24.3488 151.503C26.5863 151.867 28.486 153.423 29.9937 156.124C31.6338 159.061 34.1452 166.13 35.7718 173.956C37.1027 180.36 38.2101 189.04 35.9313 194.022C34.9645 196.135 33.4756 197.413 31.5052 197.82C31.4299 197.835 31.354 197.842 31.2772 197.842ZM19.5729 155.179C19.4171 155.409 19.2682 155.65 19.1282 155.896C16.5537 160.423 16.0338 166.752 17.5844 174.709C18.8905 181.411 21.3845 187.79 23.2481 191.962C24.2299 194.163 26.4245 195.585 28.8396 195.585H31.1546C32.3456 195.304 33.2378 194.484 33.8788 193.082C35.458 189.629 35.3459 182.999 33.5621 174.414C31.9987 166.891 29.5415 159.942 28.0233 157.223C26.8714 155.159 25.5172 153.985 23.999 153.731C21.9202 153.386 20.001 154.83 19.5729 155.179Z" fill="#371A45"/>
<path d="M58.796 195.682C58.6358 195.682 58.4733 195.644 58.3213 195.565C57.8187 195.302 57.6246 194.681 57.8879 194.179C62.1741 185.989 62.2373 176.779 58.076 166.805C54.9372 159.282 50.4427 154.135 50.3975 154.084C50.0229 153.659 50.0635 153.01 50.4886 152.635C50.9136 152.26 51.5622 152.3 51.9368 152.725C52.1287 152.942 56.6721 158.137 59.9464 165.957C61.8784 170.571 62.9558 175.137 63.1499 179.528C63.3936 185.05 62.235 190.299 59.7064 195.13C59.5236 195.481 59.1662 195.682 58.796 195.682Z" fill="#371A45"/>
<path d="M129.156 195.684C128.786 195.684 128.429 195.484 128.246 195.134C125.717 190.302 124.559 185.053 124.802 179.531C124.996 175.14 126.074 170.574 128.006 165.96C131.28 158.14 135.824 152.945 136.015 152.728C136.391 152.303 137.039 152.262 137.464 152.638C137.889 153.013 137.93 153.661 137.555 154.086C137.51 154.137 133.015 159.285 129.876 166.808C125.715 176.782 125.778 185.992 130.064 194.181C130.327 194.684 130.133 195.304 129.631 195.567C129.48 195.647 129.316 195.684 129.156 195.684Z" fill="#371A45"/>
<g opacity="0.35">
<g opacity="0.35">
<g opacity="0.35">
<g opacity="0.35">
<path opacity="0.35" d="M127.78 97.0678C126.596 98.4228 125.35 99.7093 124.053 100.918C120.974 103.785 117.6 106.225 113.99 108.158C107.892 111.429 101.128 113.264 94.0037 113.298C87.0437 113.328 80.4193 111.638 74.4148 108.565C70.483 106.55 66.8183 103.946 63.5027 100.842C61.8535 99.2955 60.2894 97.6291 58.8215 95.8535C61.4803 95.0327 64.1218 94.081 66.5407 93.1398C69.5448 85.9029 73.0485 78.4915 77.1345 71.0801H110.397C113.774 77.208 116.754 83.3329 119.382 89.3652C121.887 90.827 124.772 93.5784 127.78 97.0678Z" fill="#371A45"/>
</g>
</g>
</g>
</g>
<path d="M144.56 64.0221C143.981 64.0846 143.461 63.6655 143.399 63.0862L140.152 32.8763C140.09 32.297 140.509 31.7771 141.088 31.7147C147.165 31.0616 152.62 35.4584 153.273 41.5351L154.38 51.8371C155.034 57.9138 150.637 63.3691 144.56 64.0221Z" fill="white"/>
<path d="M144.446 64.2899C144.147 64.2899 143.859 64.1891 143.624 63.9988C143.35 63.7783 143.179 63.4646 143.142 63.1155L139.895 32.9056C139.858 32.5565 139.958 32.2134 140.179 31.9403C140.399 31.6672 140.713 31.4957 141.062 31.4581C147.273 30.7907 152.866 35.2996 153.534 41.5095L154.64 51.8114C154.964 54.8193 154.097 57.7731 152.198 60.1287C150.299 62.4843 147.597 63.9597 144.589 64.2832L144.561 64.0243L144.589 64.2832C144.541 64.2869 144.494 64.2899 144.446 64.2899ZM142.28 31.9117C141.896 31.9117 141.508 31.932 141.118 31.9742C140.906 31.9967 140.717 32.1006 140.584 32.2653C140.45 32.4309 140.389 32.6378 140.412 32.8492L143.658 63.0591C143.681 63.2705 143.785 63.4601 143.95 63.5933C144.116 63.7264 144.323 63.7874 144.534 63.7648C147.404 63.4563 149.982 62.0487 151.794 59.8014C153.605 57.5541 154.433 54.7358 154.124 51.8656L153.018 41.5636C152.422 36.0301 147.725 31.9117 142.28 31.9117Z" fill="#371A45"/>
<g opacity="0.35">
<g opacity="0.35">
<g opacity="0.35">
<g opacity="0.35">
<path opacity="0.35" d="M153.863 47.0068L154.384 51.8384C155.036 57.9129 150.64 63.3697 144.562 64.025C143.983 64.0882 143.463 63.6654 143.4 63.0868L142.534 55.0562C142.736 55.4046 143.13 55.6182 143.555 55.5761L144.272 55.4971C149.074 54.9818 152.829 51.4638 153.863 47.0068Z" fill="#371A45"/>
</g>
</g>
</g>
</g>
<path d="M144.444 65.4736C143.875 65.4736 143.327 65.281 142.878 64.9191C142.357 64.5 142.031 63.9026 141.96 63.2383L138.714 33.0284C138.642 32.3641 138.834 31.711 139.253 31.1904C139.672 30.6698 140.269 30.344 140.934 30.2725C147.794 29.5352 153.976 34.5173 154.713 41.378L155.82 51.6799C156.177 55.0031 155.219 58.2668 153.121 60.8699C151.024 63.4723 148.038 65.1026 144.714 65.4593C144.624 65.469 144.534 65.4736 144.444 65.4736ZM144.407 62.5808H144.406C144.407 62.5808 144.407 62.5808 144.407 62.5808ZM141.635 33.1172L144.796 62.5311C147.193 62.176 149.338 60.9512 150.868 59.053C152.48 57.0525 153.217 54.5442 152.942 51.9892L151.835 41.6872C151.282 36.5449 146.75 32.7749 141.635 33.1172Z" fill="#371A45"/>
<path d="M41.3721 42.43C41.9515 42.3675 42.4713 42.7866 42.5338 43.3659L45.7802 73.5758C45.8426 74.1551 45.4236 74.675 44.8443 74.7375C38.7675 75.3905 33.3122 70.9938 32.6592 64.917L31.5525 54.6151C30.8987 48.5391 35.2954 43.083 41.3721 42.43Z" fill="white"/>
<path d="M43.6531 75.0603C37.9458 75.061 33.0232 70.744 32.4002 64.9434L31.2935 54.6414C30.6262 48.4315 35.135 42.837 41.3449 42.1697L41.3728 42.4285L41.3449 42.1697C42.0649 42.0922 42.715 42.6159 42.7925 43.3366L46.0389 73.5465C46.1163 74.2673 45.5927 74.9166 44.872 74.994C44.4627 75.0392 44.0556 75.0603 43.6531 75.0603ZM41.4856 42.6828C41.457 42.6828 41.4292 42.6843 41.3998 42.6873C35.4751 43.3238 31.1731 48.6617 31.8104 54.5865L32.9171 64.8885C33.5536 70.8132 38.8908 75.1152 44.8163 74.4787C45.2519 74.432 45.5686 74.0393 45.522 73.6037L42.2756 43.3938C42.2312 42.9853 41.8859 42.6828 41.4856 42.6828Z" fill="#371A45"/>
<g opacity="0.35">
<g opacity="0.35">
<g opacity="0.35">
<g opacity="0.35">
<path opacity="0.35" d="M44.8825 65.1953L45.7823 73.5765C45.8455 74.1558 45.4227 74.6757 44.8441 74.7381C41.6542 75.0797 38.6327 74.0317 36.3892 72.0771C34.3631 70.3121 32.9713 67.8037 32.6605 64.9192L32.1941 60.5781C34.3285 64.2014 38.4567 66.4412 42.9121 65.9635L44.0143 65.8446C44.4168 65.8009 44.735 65.5414 44.8825 65.1953Z" fill="#371A45"/>
</g>
</g>
</g>
</g>
<path d="M43.6532 76.248C37.347 76.2488 31.909 71.4796 31.2206 65.0704L30.1139 54.7684C29.3765 47.9077 34.3586 41.7264 41.2193 40.9891C42.5901 40.8416 43.827 41.8377 43.9744 43.2093L47.2208 73.4199C47.3683 74.7922 46.3722 76.0276 44.9999 76.1751C44.5477 76.224 44.0971 76.248 43.6532 76.248ZM41.1381 43.9172C36.0672 44.6696 32.4394 49.3161 32.9916 54.4592L34.0983 64.7611C34.6513 69.9042 39.1835 73.6735 44.2987 73.3312L41.1381 43.9172Z" fill="#371A45"/>
<path d="M92.9726 105C121.568 105 144.749 81.8187 144.749 53.2231C144.749 24.6276 121.568 1.44629 92.9726 1.44629C64.3771 1.44629 41.1958 24.6276 41.1958 53.2231C41.1958 81.8187 64.3771 105 92.9726 105Z" fill="white"/>
<path d="M92.9209 105.265C86.5725 105.265 80.3709 104.126 74.4582 101.873C68.1708 99.4774 62.4747 95.9278 57.5265 91.325C52.5783 86.7221 48.6284 81.2954 45.7853 75.1976C42.8421 68.8838 41.2215 62.1232 40.968 55.103C40.7145 48.0828 41.8437 41.2229 44.3242 34.7135C46.7197 28.4269 50.2693 22.7301 54.8722 17.7819C59.4751 12.8337 64.9018 8.88381 70.9996 6.04067C77.3133 3.09748 84.074 1.47691 91.0942 1.22337C98.1143 0.969824 104.974 2.0991 111.484 4.5796C117.771 6.97509 123.467 10.5247 128.415 15.1276C133.364 19.7312 137.313 25.1572 140.156 31.255C143.1 37.5687 144.72 44.3293 144.974 51.3495C145.227 58.3697 144.098 65.2297 141.618 71.739C139.222 78.0264 135.672 83.7225 131.069 88.6707C126.465 93.6189 121.039 97.5687 114.941 100.412C108.628 103.355 101.867 104.976 94.8469 105.229C94.2044 105.253 93.5619 105.265 92.9209 105.265ZM92.9961 1.70939C92.3701 1.70939 91.7457 1.72067 91.1145 1.74324C62.726 2.76719 40.4639 26.6957 41.4879 55.0842C41.9837 68.8357 47.8054 81.5715 57.8801 90.9443C67.4884 99.8837 79.8698 104.744 92.9246 104.745C93.5581 104.745 94.1916 104.733 94.8281 104.71C108.58 104.214 121.315 98.3926 130.688 88.3178C140.061 78.2431 144.95 65.1213 144.454 51.3698C143.454 23.6118 120.551 1.70939 92.9961 1.70939Z" fill="#371A45"/>
<g opacity="0.35">
<g opacity="0.35">
<g opacity="0.35">
<g opacity="0.35">
<path opacity="0.35" d="M143.963 44.2109C144.377 46.5387 144.631 48.9237 144.719 51.356C145.746 79.9326 123.417 103.934 94.84 104.967C66.2635 105.994 42.2619 83.665 41.229 55.0892C41.1989 54.2676 41.1883 53.4445 41.1981 52.6328C45.5949 77.6951 67.9073 96.3083 94.0538 95.3656C121.808 94.3627 143.666 71.6958 143.963 44.2109Z" fill="#371A45"/>
</g>
</g>
</g>
</g>
<path d="M92.9205 106.45C86.4269 106.45 80.0838 105.286 74.0357 102.981C67.6053 100.531 61.7784 96.9008 56.7181 92.1926C51.6577 87.4844 47.6176 81.9343 44.7098 75.6973C41.6989 69.2391 40.0414 62.3235 39.7826 55.1438C39.5238 47.9641 40.6787 40.9469 43.2164 34.2886C45.6668 27.8583 49.2969 22.0313 54.0051 16.971C58.7133 11.9107 64.2634 7.87055 70.5004 4.96271C76.9586 1.9518 83.8742 0.294369 91.0539 0.03556C98.2343 -0.223249 105.251 0.931612 111.909 3.46929C118.339 5.9197 124.166 9.5498 129.227 14.258C134.287 18.9662 138.327 24.5163 141.235 30.7533C144.246 37.2115 145.903 44.1271 146.162 51.3068C146.421 58.4865 145.266 65.5037 142.728 72.162C140.278 78.5923 136.648 84.4193 131.94 89.4796C127.231 94.5399 121.681 98.58 115.444 101.488C108.986 104.499 102.071 106.156 94.8909 106.415C94.2333 106.438 93.5758 106.45 92.9205 106.45ZM92.9957 2.8945C92.384 2.8945 91.7739 2.90578 91.1577 2.9276C63.4238 3.92823 41.6748 27.3053 42.6754 55.0392C43.1599 68.474 48.8477 80.9156 58.69 90.0732C68.0771 98.8065 80.1726 103.555 92.9272 103.555C93.5457 103.555 94.1656 103.544 94.787 103.521C108.222 103.037 120.663 97.3492 129.821 87.5069C138.978 77.6647 143.755 64.8454 143.269 51.4106C142.291 24.2929 119.916 2.8945 92.9957 2.8945Z" fill="#371A45"/>
<path d="M144.599 52.6917C145.117 62.81 142.313 72.3732 137.094 80.4331C133.181 86.476 116.391 97.5612 95.0224 98.8477C75.2092 100.041 56.6329 90.3958 52.1233 84.7847C46.1075 77.2996 42.342 68.0735 41.8236 57.9551C40.4521 31.1782 62.8894 18.8991 91.2719 17.4455C119.653 15.992 143.227 25.9147 144.599 52.6917Z" fill="#371A45"/>
<path d="M91.5837 99.946C81.7316 99.946 73.1631 97.4903 67.4753 95.2965C60.2731 92.5188 53.942 88.6374 51.3472 85.4083C44.9785 77.4845 41.3417 68.0087 40.8293 58.0062C40.4892 51.3689 41.5839 45.3463 44.081 40.1055C46.4321 35.1731 50.0381 30.8997 54.8005 27.4028C63.5007 21.0138 76.0943 17.2272 91.2195 16.453C106.346 15.6789 119.26 18.1586 128.567 23.6252C133.661 26.6173 137.686 30.5002 140.528 35.167C143.548 40.125 145.252 46.0047 145.591 52.6419C146.104 62.6444 143.453 72.4415 137.928 80.9747C135.632 84.5198 129.93 88.8654 123.049 92.3141C117.003 95.3439 107.244 99.1094 95.0814 99.8414C93.9002 99.9129 92.7325 99.946 91.5837 99.946ZM96.5597 18.3031C94.8466 18.3031 93.1012 18.3482 91.3211 18.4393C76.5848 19.1939 64.3636 22.848 55.9771 29.006C46.6134 35.8818 42.185 45.6052 42.8155 57.9046C43.306 67.4865 46.7924 76.5667 52.897 84.1624C54.7132 86.4225 59.8081 90.2083 68.1908 93.4412C74.3578 95.8193 84.0075 98.5158 94.9617 97.8559C106.788 97.1435 116.279 93.4818 122.158 90.5356C130.036 86.5872 134.678 82.3349 136.259 79.8936C141.556 71.714 144.096 62.3254 143.606 52.7435C142.976 40.444 137.577 31.224 127.56 25.3406C119.672 20.7076 109.03 18.3031 96.5597 18.3031Z" fill="#371A45"/>
<g opacity="0.5">
<g opacity="0.5">
<g opacity="0.5">
<g opacity="0.5">
<path opacity="0.5" d="M134.288 50.7574C134.934 45.7384 132.51 41.29 128.873 40.8218C125.236 40.3535 121.764 44.0426 121.118 49.0617C120.471 54.0807 122.896 58.529 126.533 58.9973C130.169 59.4655 133.641 55.7764 134.288 50.7574Z" fill="white"/>
</g>
</g>
</g>
</g>
<g opacity="0.5">
<g opacity="0.5">
<g opacity="0.5">
<g opacity="0.5">
<path opacity="0.5" d="M124 69.4143C124.612 67.1738 123.55 64.9316 121.627 64.4062C119.704 63.8808 117.649 65.2711 117.037 67.5116C116.425 69.7521 117.487 71.9943 119.41 72.5197C121.332 73.0451 123.387 71.6548 124 69.4143Z" fill="white"/>
</g>
</g>
</g>
</g>
<g opacity="0.35">
<g opacity="0.35">
<g opacity="0.35">
<g opacity="0.35">
<path opacity="0.35" d="M133.324 28.2227C139.913 33.8954 144.045 41.9358 144.598 52.6899C145.116 62.8105 142.31 72.3729 137.095 80.4328C133.181 86.4757 116.389 97.5601 95.0206 98.8496C87.4761 99.3063 80.1128 98.1883 73.6335 96.3172C99.8658 94.173 120.314 80.5758 125.167 73.0809C131.792 62.8511 135.35 50.7127 134.69 37.8731C134.517 34.4416 134.049 31.2283 133.324 28.2227Z" fill="#111A28"/>
</g>
</g>
</g>
</g>
<path d="M44.5246 36.318C44.2327 36.318 43.9392 36.2269 43.688 36.0381C43.0966 35.5927 42.9604 34.7674 43.3629 34.1587C45.5116 30.6287 48.2555 27.4026 51.5177 24.5708C54.6941 21.8141 58.3881 19.4074 62.4967 17.4174C66.5196 15.4696 70.966 13.9092 75.7118 12.7791C80.4147 11.6596 85.4352 10.9569 90.6354 10.6906C95.7499 10.4288 100.761 10.6056 105.53 11.215C110.343 11.8304 114.919 12.889 119.13 14.3598C123.439 15.8653 127.381 17.8094 130.848 20.1379C134.412 22.5319 137.494 25.3472 140.012 28.5063C140.451 28.9931 140.496 29.7386 140.084 30.2803C139.62 30.8928 138.746 31.0116 138.134 30.5467L137.988 30.4383L137.878 30.2984C128.557 18.5497 111.389 12.4165 90.7776 13.4721C70.0519 14.5336 53.6295 22.6139 45.7208 35.6408L45.6847 35.7003L45.6373 35.7627C45.3649 36.1269 44.9474 36.318 44.5246 36.318Z" fill="#371A45"/>
<g opacity="0.5">
<g opacity="0.5">
<g opacity="0.5">
<g opacity="0.5">
<path opacity="0.5" d="M54.1789 73.2973C54.1789 73.2973 44.533 47.3065 58.2303 36.0506C71.9276 24.7947 92.4118 23.7888 92.0003 25.1265C92.0003 25.1265 69.6066 31.7772 61.652 50.1572C55.518 64.3307 54.1789 73.2973 54.1789 73.2973Z" fill="white"/>
</g>
</g>
</g>
</g>
<path d="M148.855 162.303C148.825 162.532 148.782 162.776 148.736 163.011C148.691 163.249 148.639 163.485 148.588 163.722C148.484 164.195 148.369 164.666 148.247 165.134C148.008 166.073 147.728 167.004 147.465 167.941C147.204 168.877 146.946 169.816 146.698 170.763L146.519 171.474C146.455 171.712 146.4 171.951 146.343 172.19L146.257 172.55L146.213 172.73L146.174 172.911C146.123 173.152 146.067 173.395 146.007 173.639L146.005 173.647C145.983 173.735 145.894 173.789 145.806 173.767C145.742 173.751 145.696 173.7 145.684 173.639C145.587 173.142 145.501 172.637 145.459 172.133L145.419 171.753C145.408 171.626 145.404 171.5 145.395 171.374C145.383 171.121 145.368 170.867 145.361 170.613C145.34 169.6 145.379 168.588 145.458 167.583C145.544 166.578 145.66 165.576 145.856 164.592C145.953 164.099 146.066 163.61 146.2 163.126C146.267 162.885 146.339 162.643 146.418 162.404C146.498 162.163 146.583 161.93 146.685 161.684C146.926 161.105 147.591 160.831 148.17 161.072C148.656 161.274 148.927 161.774 148.86 162.272L148.855 162.303Z" fill="#371A45"/>
<path d="M40.9447 161.684C41.0471 161.931 41.1313 162.163 41.2111 162.404C41.2908 162.644 41.3623 162.885 41.4293 163.127C41.5639 163.611 41.6768 164.1 41.7731 164.592C41.9694 165.577 42.0853 166.579 42.1718 167.583C42.2516 168.589 42.2899 169.601 42.2681 170.613C42.2614 170.867 42.2463 171.121 42.2343 171.374C42.226 171.5 42.2215 171.627 42.2102 171.753L42.1711 172.133C42.1289 172.637 42.0417 173.143 41.9454 173.639C41.9281 173.728 41.8415 173.786 41.7528 173.769C41.6881 173.756 41.6399 173.707 41.6249 173.648L41.6226 173.639C41.5617 173.395 41.5067 173.152 41.4556 172.911L41.4165 172.731L41.3721 172.55L41.2863 172.19C41.2291 171.951 41.1742 171.713 41.1103 171.475L40.9312 170.763C40.6837 169.817 40.4249 168.878 40.1645 167.941C39.9005 167.004 39.6206 166.074 39.3821 165.135C39.261 164.665 39.1459 164.195 39.0413 163.723C38.9909 163.486 38.939 163.249 38.8938 163.012C38.8479 162.776 38.805 162.532 38.7742 162.304L38.7697 162.273C38.6854 161.651 39.1218 161.079 39.7432 160.995C40.2654 160.925 40.7521 161.221 40.9447 161.684Z" fill="#371A45"/>
<path d="M139.896 199.689H48.0664C45.0932 199.689 42.6826 197.278 42.6826 194.305C42.6826 192.592 44.0715 191.203 45.7846 191.203H142.178C143.891 191.203 145.28 192.592 145.28 194.305C145.279 197.278 142.869 199.689 139.896 199.689Z" fill="#1698F9"/>
<g opacity="0.3">
<g opacity="0.3">
<g opacity="0.3">
<g opacity="0.3">
<path opacity="0.3" d="M145.281 194.306C145.281 194.894 145.185 195.459 145.011 195.99C144.528 194.905 143.443 194.152 142.181 194.152H45.7882C44.9328 194.152 44.1564 194.498 43.5951 195.063C43.3281 195.33 43.1091 195.641 42.9556 195.99C42.7811 195.46 42.6855 194.896 42.6855 194.307C42.6855 193.451 43.0309 192.675 43.5959 192.113C44.1572 191.549 44.9336 191.203 45.789 191.203H142.181C143.895 191.202 145.281 192.592 145.281 194.306Z" fill="white"/>
</g>
</g>
</g>
</g>
<g opacity="0.35">
<g opacity="0.35">
<g opacity="0.35">
<g opacity="0.35">
<path opacity="0.35" d="M145.28 194.312C145.28 195.797 144.678 197.145 143.702 198.117C142.73 199.092 141.382 199.694 139.897 199.694H48.0689C45.0956 199.694 42.6829 197.285 42.6829 194.312C42.6829 193.74 42.8371 193.203 43.1102 192.741C43.9242 194.668 45.8405 196.023 48.0682 196.023H139.897C141.382 196.023 142.731 195.421 143.702 194.445C144.188 193.959 144.581 193.381 144.851 192.741C145.125 193.204 145.28 193.741 145.28 194.312Z" fill="#371A45"/>
</g>
</g>
</g>
</g>
<path d="M139.897 201.058H48.0668C44.3434 201.058 41.3145 198.029 41.3145 194.305C41.3145 191.841 43.3202 189.835 45.7849 189.835H142.178C144.643 189.835 146.649 191.841 146.649 194.305C146.649 198.029 143.619 201.058 139.897 201.058ZM45.7849 192.572C44.8294 192.572 44.0515 193.349 44.0515 194.305C44.0515 196.52 45.8526 198.321 48.0668 198.321H139.897C142.111 198.321 143.912 196.52 143.912 194.305C143.912 193.35 143.135 192.572 142.178 192.572H45.7849Z" fill="#371A45"/>
<path d="M150.641 130.592L141.658 191.203H46.307L45.9819 189.01L37.3216 130.592C37.038 128.673 38.5261 126.951 40.4627 126.951H147.5C149.44 126.951 150.925 128.673 150.641 130.592Z" fill="#FF66AC"/>
<path d="M150.641 130.592L141.658 191.203H46.307L45.9819 189.01L37.3216 130.592C37.038 128.673 38.5261 126.951 40.4627 126.951H147.5C149.44 126.951 150.925 128.673 150.641 130.592Z" fill="#1698F9"/>
<g opacity="0.5">
<g opacity="0.5">
<g opacity="0.5">
<g opacity="0.5">
<path opacity="0.5" d="M40.7069 134.354C40.4233 132.434 41.9115 130.713 43.848 130.713H150.623L150.641 130.592C150.925 128.673 149.441 126.951 147.5 126.951H40.4632C38.5266 126.951 37.0385 128.673 37.3221 130.592L45.9824 189.01L46.3074 191.203H49.1355L40.7069 134.354Z" fill="white"/>
</g>
</g>
</g>
</g>
<g opacity="0.35">
<g opacity="0.35">
<g opacity="0.35">
<g opacity="0.35">
<path opacity="0.35" d="M144.49 126.951H136.974C139.824 137.392 138.252 160.97 119.866 173.292C96.785 188.76 55.189 188.661 46.3579 189.01L46.6829 191.203H138.65L147.631 130.592C147.916 128.673 146.43 126.951 144.49 126.951Z" fill="#371A45"/>
</g>
</g>
</g>
</g>
<path d="M142.838 192.572H45.1256L35.9688 130.789C35.7746 129.481 36.1591 128.157 37.0228 127.155C37.8865 126.154 39.1407 125.58 40.4626 125.58H147.501C148.824 125.58 150.077 126.154 150.941 127.155C151.805 128.157 152.189 129.481 151.995 130.789L142.838 192.572ZM47.4873 189.835H140.476L149.287 130.388C149.365 129.861 149.216 129.348 148.868 128.944C148.52 128.54 148.035 128.318 147.501 128.318H40.4626C39.9291 128.318 39.4439 128.541 39.0955 128.944C38.7472 129.348 38.5982 129.861 38.6765 130.388L47.4873 189.835Z" fill="#371A45"/>
<g opacity="0.3">
<g opacity="0.3">
<g opacity="0.3">
<g opacity="0.3">
<path opacity="0.3" d="M53.8967 177.045C50.2794 169.071 47.6454 155.461 48.239 147.45C48.8326 139.44 53.4784 141.891 54.9184 152.152C58.7508 179.459 55.512 180.605 53.8967 177.045Z" fill="white"/>
</g>
</g>
</g>
</g>
<path d="M106.44 152.201C106.556 151.177 106.692 150.143 106.491 149.102C106.401 148.989 106.319 148.874 106.23 148.761C105.934 148.654 105.645 148.515 105.337 148.437C103.167 147.877 100.967 147.655 98.7328 147.847C95.8189 148.099 93.1443 148.998 90.8444 150.85C90.0115 151.518 89.2524 152.273 88.4752 153.005C88.2668 153.203 88.1066 153.286 87.8139 153.152C87.1255 152.839 86.3837 152.699 85.6306 152.662C83.6105 152.57 81.8079 153.223 80.1264 154.278C78.3042 155.427 76.8356 156.961 75.4678 158.603C74.8855 159.299 75.112 160.075 75.9787 160.367C76.5256 160.546 77.0726 160.721 77.6195 160.9C78.9301 161.324 80.2377 161.745 81.5446 162.168C81.5415 162.209 81.5453 162.23 81.5393 162.25C81.5288 162.275 81.5175 162.305 81.4994 162.329C80.954 163.031 81.0864 163.679 81.6612 164.289C81.7229 164.356 81.7763 164.437 81.8305 164.51C82.1314 164.905 82.4391 165.306 82.7581 165.718C82.3225 166.054 81.8944 166.34 81.516 166.686C81.3249 166.859 81.1563 167.112 81.0841 167.363C80.9615 167.767 81.1706 168.18 81.5303 168.392C81.9117 168.621 82.3044 168.612 82.6595 168.356C83.1102 168.035 83.5405 167.688 83.9987 167.338C84.4313 167.908 84.8414 168.448 85.2529 168.98C85.7246 169.587 86.0496 169.691 86.7809 169.489C86.9141 169.447 87.0458 169.419 87.203 169.38C87.2135 169.537 87.2256 169.662 87.2323 169.78C87.3256 171.67 87.4114 173.563 87.5152 175.447C87.5626 176.341 88.2683 176.763 89.0756 176.38C89.8046 176.036 90.5329 175.672 91.2476 175.285C92.8945 174.389 94.3932 173.292 95.5887 171.833C97.0851 169.997 97.9135 167.947 97.526 165.525C97.5095 165.429 97.5892 165.266 97.672 165.217C98.4063 164.744 99.1601 164.301 99.8952 163.824C101.556 162.741 102.892 161.334 103.936 159.653C105.354 157.37 106.138 154.863 106.44 152.201ZM82.6257 160.379C81.1127 159.887 79.5441 159.375 77.9325 158.851C79.5975 157.081 81.3595 155.536 83.7324 154.883C84.7579 154.601 85.9428 154.625 86.6425 154.91C85.3138 156.723 83.9822 158.536 82.6257 160.379ZM95.3517 168.156C94.9673 169.383 94.233 170.382 93.3286 171.273C92.2046 172.367 90.8963 173.184 89.4819 173.929C89.3968 172.191 89.3096 170.491 89.2238 168.826C91.3627 167.994 93.4543 167.182 95.5563 166.365C95.6376 166.945 95.5375 167.558 95.3517 168.156ZM103.249 156.52C102.561 158.144 101.658 159.623 100.37 160.848C99.376 161.788 98.249 162.542 97.0618 163.212C93.8432 165.029 90.3937 166.282 86.8667 167.341C86.6944 167.39 86.5891 167.381 86.4755 167.223C86.2295 166.874 85.9533 166.537 85.693 166.191C85.6757 166.172 85.6697 166.139 85.6449 166.078C85.7352 166.005 85.8315 165.934 85.9285 165.859C87.941 164.314 89.9634 162.774 91.9767 161.226C92.5582 160.784 92.5838 160.025 92.0451 159.587C91.669 159.279 91.1732 159.284 90.739 159.61C89.5278 160.534 88.3195 161.458 87.1112 162.386C86.2099 163.075 85.3161 163.761 84.3802 164.479C84.0589 164.059 83.749 163.676 83.4691 163.273C83.4217 163.201 83.4698 163.019 83.5345 162.929C84.6074 161.328 85.6712 159.719 86.7877 158.146C87.8921 156.584 89.1478 155.141 90.5291 153.817C91.8239 152.565 93.2278 151.461 94.9244 150.803C96.0123 150.379 97.1348 150.091 98.2942 149.967C98.3995 149.952 98.5522 150.057 98.6267 150.154C99.8056 151.678 100.97 153.205 102.139 154.734C102.489 155.19 102.835 155.654 103.196 156.104C103.306 156.24 103.319 156.355 103.249 156.52ZM103.949 154.388C102.784 152.863 101.647 151.378 100.508 149.887C100.509 149.853 100.519 149.813 100.524 149.776C101.851 149.935 103.18 150.098 104.523 150.259C104.497 151.705 104.284 153.03 103.949 154.388Z" fill="#371A45"/>
<path d="M103.198 156.101C102.836 155.651 102.491 155.187 102.14 154.732C100.973 153.202 99.8073 151.676 98.6284 150.152C98.5539 150.055 98.4012 149.949 98.2958 149.964C97.1364 150.088 96.0139 150.377 94.926 150.8C93.2287 151.458 91.8256 152.563 90.5308 153.814C89.1495 155.138 87.8938 156.581 86.7894 158.143C85.6729 159.717 84.609 161.326 83.5362 162.927C83.4715 163.016 83.4233 163.198 83.4707 163.27C83.7499 163.674 84.0598 164.057 84.3818 164.476C85.3178 163.759 86.2116 163.072 87.1129 162.383C88.3211 161.456 89.5294 160.531 90.7407 159.608C91.1748 159.281 91.6699 159.278 92.0468 159.585C92.5855 160.023 92.5607 160.782 91.9783 161.223C89.965 162.772 87.9427 164.312 85.9302 165.857C85.8331 165.931 85.7361 166.003 85.6465 166.075C85.6714 166.138 85.6774 166.169 85.6947 166.189C85.955 166.534 86.2311 166.871 86.4771 167.221C86.5907 167.379 86.6961 167.388 86.8684 167.338C90.3954 166.279 93.8449 165.026 97.0635 163.209C98.2499 162.54 99.3777 161.785 100.372 160.846C101.659 159.621 102.562 158.142 103.251 156.517C103.319 156.353 103.305 156.237 103.198 156.101ZM99.6651 158.431C98.1265 159.59 95.9492 159.306 94.7936 157.789C93.6305 156.274 93.9239 154.098 95.4482 152.923C96.9446 151.77 99.1227 152.068 100.29 153.584C101.444 155.091 101.162 157.299 99.6651 158.431Z" fill="white"/>
<path d="M103.949 154.389C102.784 152.865 101.646 151.379 100.508 149.888C100.512 149.853 100.519 149.816 100.524 149.777C101.851 149.938 103.181 150.099 104.525 150.26C104.499 151.705 104.284 153.031 103.949 154.389Z" fill="#DB2C2C"/>
<path d="M86.6431 154.913C85.313 156.723 83.9813 158.538 82.6263 160.383C81.1111 159.887 79.5424 159.377 77.9316 158.853C79.5981 157.082 81.3594 155.536 83.7323 154.885C84.757 154.603 85.9412 154.627 86.6431 154.913Z" fill="#DB2C2C"/>
<path d="M93.3284 171.276C92.2052 172.371 90.8983 173.189 89.4824 173.932C89.3966 172.196 89.3101 170.495 89.2251 168.829C91.364 167.998 93.4548 167.186 95.5599 166.367C95.6404 166.948 95.5388 167.56 95.3545 168.16C94.9693 169.386 94.235 170.385 93.3284 171.276Z" fill="#DB2C2C"/>
<path d="M100.291 153.586C99.1245 152.07 96.9457 151.773 95.4493 152.925C93.925 154.1 93.6316 156.276 94.7947 157.791C95.9503 159.308 98.1276 159.592 99.6662 158.433C101.163 157.301 101.445 155.093 100.291 153.586ZM98.6294 157.153C97.85 157.743 96.7049 157.588 96.097 156.809C95.4688 156.006 95.6403 154.827 96.4717 154.21C97.2504 153.626 98.4173 153.795 99.0034 154.577C99.6165 155.391 99.4472 156.534 98.6294 157.153Z" fill="#371A45"/>
<path d="M98.627 157.152C97.8475 157.742 96.7024 157.587 96.0938 156.807C95.4686 156.006 95.6379 154.826 96.4692 154.209C97.2494 153.627 98.4148 153.794 99.0009 154.575C99.6133 155.39 99.447 156.535 98.627 157.152Z" fill="#22A7F0"/>
<path d="M150.169 133.79C150.169 133.79 142.78 130.284 135.84 133.429C129.195 136.442 124.493 157.888 133.103 163.321C138.417 166.674 142.034 163.712 145.041 164.582C149.5 165.871 158.649 143.788 150.169 133.79Z" fill="white"/>
<g opacity="0.35">
<g opacity="0.35">
<g opacity="0.35">
<g opacity="0.35">
<path opacity="0.35" d="M153.504 147.746C152.628 156.735 147.882 165.402 145.042 164.581C142.034 163.712 138.418 166.675 133.104 163.321C128.991 160.724 127.916 154.477 128.642 148.324C129.131 151.913 130.516 154.989 133.104 156.622C138.418 159.971 141.956 158.414 145.042 157.881C148.857 157.221 151.968 153.053 153.504 147.746Z" fill="#371A45"/>
</g>
</g>
</g>
</g>
<path d="M138.548 166.328C136.755 166.328 134.68 165.936 132.368 164.478C130.299 163.171 128.804 161.058 127.926 158.196C127.188 155.795 126.913 152.868 127.128 149.733C127.383 146.02 128.297 142.211 129.698 139.007C130.77 136.56 132.606 133.389 135.27 132.181C142.703 128.812 150.426 132.398 150.751 132.552L151.018 132.679L151.208 132.904C155.089 137.479 155.313 143.801 154.817 148.298C154.259 153.365 152.47 158.74 150.149 162.326C147.825 165.917 145.878 166.249 144.655 165.896C143.861 165.666 142.858 165.827 141.697 166.012C140.779 166.16 139.724 166.328 138.548 166.328ZM142.162 133.482C140.081 133.482 138.153 133.88 136.402 134.675C134.961 135.328 133.431 137.307 132.207 140.105C130.946 142.985 130.091 146.563 129.86 149.921C129.452 155.851 130.899 160.313 133.829 162.163C136.784 164.027 139.063 163.662 141.266 163.309C142.69 163.081 144.035 162.866 145.417 163.266C145.576 163.293 146.715 162.854 148.321 160.071C152.067 153.582 154.443 141.327 149.318 134.912C148.737 134.67 147.242 134.102 145.286 133.762C144.211 133.575 143.168 133.482 142.162 133.482Z" fill="#371A45"/>
<path d="M170.831 55.7232C168.195 52.9989 166.397 49.423 165.917 45.3685C164.751 35.527 171.784 26.6041 181.626 25.4388C191.467 24.2734 200.39 31.3063 201.555 41.1478C202.721 50.9893 195.688 59.9122 185.846 61.0776C183.109 61.4019 180.444 61.0897 177.996 60.2613L170.299 63.8922L170.831 55.7232Z" fill="#FF0068"/>
<g opacity="0.5">
<g opacity="0.5">
<g opacity="0.5">
<g opacity="0.5">
<g opacity="0.5">
<path opacity="0.5" d="M182.034 28.8653C172.841 29.954 166.1 37.8123 166.201 46.8646C166.06 46.2477 165.948 45.6187 165.872 44.9769C164.706 35.1354 171.739 26.2125 181.581 25.0471C191.422 23.8818 200.345 30.9147 201.51 40.7562C201.587 41.4018 201.626 42.042 201.634 42.6778C199.622 33.8467 191.23 27.7759 182.034 28.8653Z" fill="white"/>
</g>
</g>
</g>
</g>
</g>
<path d="M170.3 65.2128C170.04 65.2128 169.781 65.1361 169.559 64.9848C169.174 64.7223 168.956 64.2761 168.986 63.8104L169.482 56.2109C166.768 53.2324 165.087 49.5511 164.61 45.5268C164.005 40.4176 165.426 35.3791 168.611 31.3382C171.795 27.2981 176.363 24.7393 181.472 24.1344C186.581 23.5295 191.62 24.95 195.66 28.1347C199.7 31.3194 202.259 35.8869 202.864 40.9961C203.468 46.1053 202.048 51.1438 198.863 55.184C195.679 59.2241 191.111 61.7828 186.002 62.3877C183.312 62.706 180.652 62.4667 178.087 61.6768L170.862 65.0857C170.683 65.1714 170.491 65.2128 170.3 65.2128ZM183.75 26.6337C183.1 26.6337 182.444 26.6721 181.783 26.7503C177.372 27.2725 173.429 29.4814 170.679 32.9693C167.93 36.4572 166.703 40.8073 167.226 45.2176C167.657 48.8604 169.232 52.1783 171.779 54.8115C172.037 55.0786 172.171 55.442 172.147 55.8129L171.759 61.7527L177.435 59.0751C177.743 58.9299 178.096 58.9096 178.419 59.0187C180.768 59.8139 183.215 60.0682 185.693 59.7748C194.798 58.6967 201.328 50.4118 200.25 41.3076C199.25 32.8632 192.052 26.6337 183.75 26.6337Z" fill="#371A45"/>
<g opacity="0.3">
<g opacity="0.3">
<g opacity="0.3">
<g opacity="0.3">
<path opacity="0.3" d="M170.697 55.5759C176.401 58.5589 183.407 58.8569 189.602 55.7549C196.473 52.3152 200.595 45.5741 201.018 38.417C201.264 39.2987 201.446 40.2091 201.557 41.1465C202.722 50.988 195.689 59.9109 185.848 61.0763C183.111 61.4006 180.445 61.0883 177.997 60.26L170.301 63.8909L170.833 55.7218C170.787 55.6744 170.743 55.6248 170.697 55.5759Z" fill="#371A45"/>
</g>
</g>
</g>
</g>
<path d="M178.064 38.2232C179.617 36.6704 182.135 36.9488 183.688 38.5016L183.929 38.7431L184.171 38.5016C185.724 36.9488 188.242 36.6704 189.795 38.2232C191.347 39.7761 191.347 42.2942 189.795 43.8471L189.553 44.0886L184.671 48.9706C184.262 49.3799 183.598 49.3799 183.188 48.9706L178.306 44.0886L178.065 43.8471C176.511 42.2935 176.511 39.7761 178.064 38.2232Z" fill="white"/>
</svg>
