<svg width="1440" height="637" viewBox="0 0 1440 637" fill="none" xmlns="http://www.w3.org/2000/svg">
<g opacity="0.4">
<mask id="mask0_225_543" style="mask-type:alpha" maskUnits="userSpaceOnUse" x="0" y="0" width="1440" height="637">
<rect width="1440" height="637" fill="url(#paint0_radial_225_543)"/>
</mask>
<g mask="url(#mask0_225_543)">
<circle r="6.43639" transform="matrix(4.37114e-08 -1 -1 -4.37114e-08 661.197 323.161)" fill="#1BEAFF"/>
<circle r="6.43639" transform="matrix(-4.37114e-08 1 1 4.37114e-08 786.247 525.925)" fill="#1BEAFF"/>
<circle cx="195.937" cy="280.865" r="6.43639" transform="rotate(90 195.937 280.865)" fill="#E77E42"/>
<circle cx="1328.74" cy="73.0613" r="4.59742" transform="rotate(90 1328.74 73.0613)" fill="white"/>
<circle r="4.59742" transform="matrix(4.37114e-08 -1 -1 -4.37114e-08 558.214 36.282)" fill="white"/>
<circle r="4.59742" transform="matrix(4.37114e-08 -1 -1 -4.37114e-08 970.143 273.509)" fill="white"/>
<circle r="4.59742" transform="matrix(-4.37114e-08 1 1 4.37114e-08 477.3 575.577)" fill="white"/>
<circle cx="1350.98" cy="354.742" r="4.59742" transform="rotate(90 1350.98 354.742)" fill="white"/>
<circle cx="160.616" cy="527.134" r="4.59742" transform="rotate(-90 160.616 527.134)" fill="white"/>
<circle cx="1165.07" cy="262.475" r="4.59742" transform="rotate(90 1165.07 262.475)" fill="white"/>
<circle cx="1369.2" cy="474.434" r="4.59742" transform="rotate(-90 1369.2 474.434)" fill="white"/>
<circle cx="1194.5" cy="135.586" r="6.43639" transform="rotate(90 1194.5 135.586)" fill="#E77E42"/>
<circle r="6.43639" transform="matrix(4.37114e-08 -1 -1 -4.37114e-08 295.242 3.18031)" fill="#1BEAFF"/>
<circle cx="1043.7" cy="133.747" r="4.59742" transform="rotate(90 1043.7 133.747)" fill="#1BEAFF"/>
<circle r="1.83897" transform="matrix(4.37114e-08 -1 -1 -4.37114e-08 739.353 318.564)" fill="white"/>
<circle r="1.83897" transform="matrix(-4.37114e-08 1 1 4.37114e-08 708.09 530.523)" fill="white"/>
<circle r="1.83897" transform="matrix(4.37114e-08 -1 -1 -4.37114e-08 445.118 245.005)" fill="white"/>
<circle r="1.83897" transform="matrix(-4.37114e-08 1 1 4.37114e-08 1002.33 604.081)" fill="white"/>
<circle r="1.83897" transform="matrix(4.37114e-08 -1 -1 -4.37114e-08 844.174 256.038)" fill="white"/>
<circle r="1.83897" transform="matrix(-4.37114e-08 1 1 4.37114e-08 798.304 606.236)" fill="white"/>
<circle cx="1438.16" cy="108.921" r="1.83897" transform="rotate(90 1438.16 108.921)" fill="white"/>
<circle r="1.83897" transform="matrix(4.37114e-08 -1 -1 -4.37114e-08 702.573 379.249)" fill="white"/>
<circle r="1.83897" transform="matrix(-4.37114e-08 1 1 4.37114e-08 744.87 469.837)" fill="white"/>
<circle cx="1167.83" cy="228.454" r="1.83897" transform="rotate(90 1167.83 228.454)" fill="white"/>
<circle cx="279.61" cy="620.632" r="1.83897" transform="rotate(-90 279.61 620.632)" fill="white"/>
<circle cx="121.459" cy="259.716" r="1.83897" transform="rotate(90 121.459 259.716)" fill="white"/>
<circle cx="1325.98" cy="589.37" r="1.83897" transform="rotate(-90 1325.98 589.37)" fill="white"/>
<circle r="1.83897" transform="matrix(4.37114e-08 -1 -1 -4.37114e-08 526.032 353.504)" fill="white"/>
<circle r="1.83897" transform="matrix(-4.37114e-08 1 1 4.37114e-08 921.411 495.582)" fill="white"/>
<circle r="1.83897" transform="matrix(4.37114e-08 -1 -1 -4.37114e-08 794.522 373.733)" fill="white"/>
<circle r="1.83897" transform="matrix(-4.37114e-08 1 1 4.37114e-08 652.921 475.354)" fill="white"/>
<circle r="1.83897" transform="matrix(4.37114e-08 -1 -1 -4.37114e-08 759.581 412.35)" fill="white"/>
<circle r="1.83897" transform="matrix(-4.37114e-08 1 1 4.37114e-08 687.862 436.735)" fill="white"/>
<circle r="1.83897" transform="matrix(4.37114e-08 -1 -1 -4.37114e-08 925.089 364.538)" fill="white"/>
<circle r="1.83897" transform="matrix(-4.37114e-08 1 1 4.37114e-08 522.354 484.548)" fill="white"/>
<circle r="1.83897" transform="matrix(4.37114e-08 -1 -1 -4.37114e-08 314.551 206.387)" fill="white"/>
<circle r="1.83897" transform="matrix(4.37114e-08 -1 -1 -4.37114e-08 367.881 187.996)" fill="white"/>
<circle cx="1031.75" cy="29.8458" r="1.83897" transform="rotate(90 1031.75 29.8458)" fill="white"/>
<circle r="1.83897" transform="matrix(4.37114e-08 -1 -1 -4.37114e-08 296.161 134.667)" fill="white"/>
<circle cx="1051.98" cy="57.4303" r="1.83897" transform="rotate(90 1051.98 57.4303)" fill="white"/>
<circle r="1.83897" transform="matrix(4.37114e-08 -1 -1 -4.37114e-08 316.39 107.082)" fill="white"/>
<circle r="1.83897" transform="matrix(4.37114e-08 -1 -1 -4.37114e-08 470.863 362.699)" fill="white"/>
<circle r="1.83897" transform="matrix(-4.37114e-08 1 1 4.37114e-08 976.58 486.387)" fill="white"/>
<circle r="1.83897" transform="matrix(4.37114e-08 -1 -1 -4.37114e-08 446.957 406.834)" fill="white"/>
<circle r="1.83897" transform="matrix(-4.37114e-08 1 1 4.37114e-08 1000.49 442.252)" fill="white"/>
<circle r="1.83897" transform="matrix(4.37114e-08 -1 -1 -4.37114e-08 496.609 217.42)" fill="white"/>
<circle r="1.83897" transform="matrix(-4.37114e-08 1 1 4.37114e-08 950.834 631.666)" fill="white"/>
<circle r="1.83897" transform="matrix(4.37114e-08 -1 -1 -4.37114e-08 695.218 263.394)" fill="white"/>
<circle r="1.83897" transform="matrix(-4.37114e-08 1 1 4.37114e-08 1336.66 432.882)" fill="white"/>
<circle cx="1257.94" cy="90.5318" r="1.83897" transform="rotate(90 1257.94 90.5318)" fill="white"/>
<circle r="1.83897" transform="matrix(4.37114e-08 -1 -1 -4.37114e-08 522.354 73.9809)" fill="white"/>
<circle cx="1234.04" cy="274.428" r="1.83897" transform="rotate(90 1234.04 274.428)" fill="white"/>
<circle cx="213.408" cy="574.658" r="1.83897" transform="rotate(-90 213.408 574.658)" fill="white"/>
<circle r="1.83897" transform="matrix(4.37114e-08 -1 -1 -4.37114e-08 318.229 289.14)" fill="white"/>
<circle r="1.83897" transform="matrix(-4.37114e-08 1 1 4.37114e-08 1129.21 559.946)" fill="white"/>
<circle cx="1114.5" cy="105.243" r="1.83897" transform="rotate(90 1114.5 105.243)" fill="white"/>
<circle r="1.83897" transform="matrix(4.37114e-08 -1 -1 -4.37114e-08 378.915 59.2689)" fill="white"/>
<circle r="1.83897" transform="matrix(4.37114e-08 -1 -1 -4.37114e-08 494.77 281.785)" fill="white"/>
<circle r="1.83897" transform="matrix(-4.37114e-08 1 1 4.37114e-08 952.673 567.302)" fill="white"/>
<circle r="1.83897" transform="matrix(4.37114e-08 -1 -1 -4.37114e-08 318.229 408.673)" fill="white"/>
<circle r="1.83897" transform="matrix(-4.37114e-08 1 1 4.37114e-08 1129.21 440.413)" fill="white"/>
<circle cx="1134.73" cy="406.834" r="1.83897" transform="rotate(90 1134.73 406.834)" fill="white"/>
<circle cx="312.712" cy="442.252" r="1.83897" transform="rotate(-90 312.712 442.252)" fill="white"/>
<circle cx="1059.33" cy="390.283" r="1.83897" transform="rotate(90 1059.33 390.283)" fill="white"/>
<circle cx="388.11" cy="458.803" r="1.83897" transform="rotate(-90 388.11 458.803)" fill="white"/>
<circle r="1.83897" transform="matrix(4.37114e-08 -1 -1 -4.37114e-08 869.92 324.08)" fill="white"/>
<circle r="1.83897" transform="matrix(-4.37114e-08 1 1 4.37114e-08 577.523 525.005)" fill="white"/>
<circle cx="1302.08" cy="136.505" r="1.83897" transform="rotate(90 1302.08 136.505)" fill="white"/>
<circle r="1.83897" transform="matrix(4.37114e-08 -1 -1 -4.37114e-08 965.546 39.0404)" fill="white"/>
<circle cx="229.958" cy="125.472" r="1.83897" transform="rotate(90 229.958 125.472)" fill="white"/>
<circle cx="1107.15" cy="171.446" r="1.83897" transform="rotate(90 1107.15 171.446)" fill="white"/>
<circle cx="31.3497" cy="256.038" r="1.83897" transform="rotate(90 31.3497 256.038)" fill="white"/>
<circle cx="1416.09" cy="593.047" r="1.83897" transform="rotate(-90 1416.09 593.047)" fill="white"/>
<circle r="1.83897" transform="matrix(4.37114e-08 -1 -1 -4.37114e-08 748.548 37.2011)" fill="white"/>
<circle cx="12.96" cy="127.311" r="1.83897" transform="rotate(90 12.96 127.311)" fill="white"/>
<circle r="1.83897" transform="matrix(4.37114e-08 -1 -1 -4.37114e-08 744.87 210.065)" fill="white"/>
<circle r="1.83897" transform="matrix(-4.37114e-08 1 1 4.37114e-08 1277.92 493.557)" fill="white"/>
<circle r="1.83897" transform="matrix(4.37114e-08 -1 -1 -4.37114e-08 855.208 390.284)" fill="white"/>
<circle r="1.83897" transform="matrix(-4.37114e-08 1 1 4.37114e-08 592.235 458.803)" fill="white"/>
<circle r="1.83897" transform="matrix(4.37114e-08 -1 -1 -4.37114e-08 888.309 408.673)" fill="white"/>
<circle r="1.83897" transform="matrix(-4.37114e-08 1 1 4.37114e-08 559.134 440.413)" fill="white"/>
<circle cx="99.3915" cy="186.158" r="1.83897" transform="rotate(90 99.3915 186.158)" fill="white"/>
<circle r="1.83897" transform="matrix(4.37114e-08 -1 -1 -4.37114e-08 831.301 149.378)" fill="white"/>
<circle cx="95.7136" cy="15.1334" r="1.83897" transform="rotate(90 95.7136 15.1334)" fill="white"/>
<circle r="1.83897" transform="matrix(4.37114e-08 -1 -1 -4.37114e-08 575.684 294.657)" fill="white"/>
<circle r="1.83897" transform="matrix(-4.37114e-08 1 1 4.37114e-08 871.759 554.429)" fill="white"/>
<circle r="1.83897" transform="matrix(4.37114e-08 -1 -1 -4.37114e-08 364.203 281.785)" fill="white"/>
<circle r="1.83897" transform="matrix(-4.37114e-08 1 1 4.37114e-08 1083.24 567.302)" fill="white"/>
<circle r="1.83897" transform="matrix(4.37114e-08 -1 -1 -4.37114e-08 665.4 101.583)" fill="white"/>
<circle r="1.83897" transform="matrix(4.37114e-08 -1 -1 -4.37114e-08 884.631 263.394)" fill="white"/>
<circle r="1.83897" transform="matrix(-4.37114e-08 1 1 4.37114e-08 562.812 585.691)" fill="white"/>
<circle r="1.83897" transform="matrix(4.37114e-08 -1 -1 -4.37114e-08 934.284 314.886)" fill="white"/>
<circle r="1.83897" transform="matrix(-4.37114e-08 1 1 4.37114e-08 1.83897 522.449)" fill="white"/>
<circle r="1.83897" transform="matrix(4.37114e-08 -1 -1 -4.37114e-08 1035.43 224.776)" fill="white"/>
<circle r="1.83897" transform="matrix(-4.37114e-08 1 1 4.37114e-08 412.016 624.31)" fill="white"/>
<circle cx="1375.64" cy="142.023" r="1.83897" transform="rotate(90 1375.64 142.023)" fill="white"/>
<circle r="1.83897" transform="matrix(4.37114e-08 -1 -1 -4.37114e-08 691.539 2.26113)" fill="white"/>
<circle cx="1257.94" cy="215.581" r="1.83897" transform="rotate(90 1257.94 215.581)" fill="white"/>
<circle cx="189.501" cy="633.504" r="1.83897" transform="rotate(-90 189.501 633.504)" fill="white"/>
<circle cx="185.823" cy="204.547" r="1.83897" transform="rotate(90 185.823 204.547)" fill="white"/>
<circle cx="1074.96" cy="266.153" r="4.59742" transform="rotate(90 1074.96 266.153)" fill="white"/>
<circle cx="1254.26" cy="20.6505" r="1.83897" transform="rotate(90 1254.26 20.6505)" fill="white"/>
<circle r="1.83897" transform="matrix(4.37114e-08 -1 -1 -4.37114e-08 518.676 143.861)" fill="white"/>
<circle r="1.83897" transform="matrix(4.37114e-08 -1 -1 -4.37114e-08 947.156 136.506)" fill="white"/>
<circle cx="211.569" cy="28.006" r="1.83897" transform="rotate(90 211.569 28.006)" fill="white"/>
<circle cx="1177.03" cy="85.0143" r="1.83897" transform="rotate(90 1177.03 85.0143)" fill="white"/>
<circle r="1.83897" transform="matrix(4.37114e-08 -1 -1 -4.37114e-08 441.44 79.4975)" fill="white"/>
<circle r="1.83897" transform="matrix(4.37114e-08 -1 -1 -4.37114e-08 840.496 90.5316)" fill="white"/>
<circle cx="104.908" cy="73.9806" r="1.83897" transform="rotate(90 104.908 73.9806)" fill="white"/>
<circle cx="1410.58" cy="357.182" r="1.83897" transform="rotate(90 1410.58 357.182)" fill="white"/>
<circle cx="36.8666" cy="491.904" r="1.83897" transform="rotate(-90 36.8666 491.904)" fill="white"/>
<circle cx="1280.01" cy="386.606" r="1.83897" transform="rotate(90 1280.01 386.606)" fill="white"/>
<circle cx="167.433" cy="462.481" r="1.83897" transform="rotate(-90 167.433 462.481)" fill="white"/>
<circle cx="207.891" cy="375.571" r="1.83897" transform="rotate(90 207.891 375.571)" fill="white"/>
<circle cx="1239.55" cy="473.514" r="1.83897" transform="rotate(-90 1239.55 473.514)" fill="white"/>
<circle cx="1314.95" cy="13.2945" r="1.83897" transform="rotate(90 1314.95 13.2945)" fill="white"/>
<circle r="1.83897" transform="matrix(4.37114e-08 -1 -1 -4.37114e-08 579.362 151.217)" fill="white"/>
<circle r="1.83897" transform="matrix(4.37114e-08 -1 -1 -4.37114e-08 1000.49 110.76)" fill="white"/>
<circle cx="264.899" cy="53.7525" r="1.83897" transform="rotate(90 264.899 53.7525)" fill="white"/>
<circle r="1.83897" transform="matrix(4.37114e-08 -1 -1 -4.37114e-08 976.58 186.158)" fill="white"/>
<circle cx="248.348" cy="5.93907" r="1.83897" transform="rotate(90 248.348 5.93907)" fill="white"/>
<circle r="1.83897" transform="matrix(4.37114e-08 -1 -1 -4.37114e-08 1024.39 294.657)" fill="white"/>
<circle r="1.83897" transform="matrix(-4.37114e-08 1 1 4.37114e-08 423.05 554.429)" fill="white"/>
<circle r="1.83897" transform="matrix(4.37114e-08 -1 -1 -4.37114e-08 1188.06 390.284)" fill="white"/>
<circle r="1.83897" transform="matrix(-4.37114e-08 1 1 4.37114e-08 259.382 458.803)" fill="white"/>
<circle cx="606.947" cy="393.962" r="1.83897" transform="rotate(90 606.947 393.962)" fill="white"/>
<circle cx="840.496" cy="455.125" r="1.83897" transform="rotate(-90 840.496 455.125)" fill="white"/>
<circle r="1.83897" transform="matrix(4.37114e-08 -1 -1 -4.37114e-08 1096.11 347.987)" fill="white"/>
<circle r="1.83897" transform="matrix(-4.37114e-08 1 1 4.37114e-08 351.33 501.099)" fill="white"/>
<circle r="1.83897" transform="matrix(4.37114e-08 -1 -1 -4.37114e-08 1000.49 371.893)" fill="white"/>
<circle r="1.83897" transform="matrix(-4.37114e-08 1 1 4.37114e-08 446.957 477.192)" fill="white"/>
<circle cx="1110.82" cy="70.3028" r="1.83897" transform="rotate(90 1110.82 70.3028)" fill="white"/>
<circle r="1.83897" transform="matrix(4.37114e-08 -1 -1 -4.37114e-08 375.237 94.2094)" fill="white"/>
<circle r="1.83897" transform="matrix(4.37114e-08 -1 -1 -4.37114e-08 739.353 90.5316)" fill="white"/>
<circle cx="3.76516" cy="73.9806" r="1.83897" transform="rotate(90 3.76516 73.9806)" fill="white"/>
<circle cx="1333.34" cy="268.911" r="1.83897" transform="rotate(90 1333.34 268.911)" fill="white"/>
<circle cx="114.103" cy="580.175" r="1.83897" transform="rotate(-90 114.103 580.175)" fill="white"/>
<circle cx="16.638" cy="331.437" r="1.83897" transform="rotate(90 16.638 331.437)" fill="white"/>
<circle cx="1430.81" cy="517.65" r="1.83897" transform="rotate(-90 1430.81 517.65)" fill="white"/>
<circle cx="1138.41" cy="303.852" r="1.83897" transform="rotate(90 1138.41 303.852)" fill="white"/>
<circle cx="309.034" cy="545.234" r="1.83897" transform="rotate(-90 309.034 545.234)" fill="white"/>
<circle cx="58.9342" cy="316.724" r="1.83897" transform="rotate(90 58.9342 316.724)" fill="white"/>
<circle cx="1388.51" cy="532.361" r="1.83897" transform="rotate(-90 1388.51 532.361)" fill="white"/>
<circle cx="1388.51" cy="18.8116" r="1.83897" transform="rotate(90 1388.51 18.8116)" fill="white"/>
<circle r="1.83897" transform="matrix(4.37114e-08 -1 -1 -4.37114e-08 557.295 233.971)" fill="white"/>
<circle r="1.83897" transform="matrix(-4.37114e-08 1 1 4.37114e-08 890.148 615.115)" fill="white"/>
<circle cx="1171.51" cy="0.421977" r="1.83897" transform="rotate(90 1171.51 0.421977)" fill="white"/>
<circle r="1.83897" transform="matrix(4.37114e-08 -1 -1 -4.37114e-08 435.923 164.09)" fill="white"/>
<circle r="1.83897" transform="matrix(4.37114e-08 -1 -1 -4.37114e-08 699.107 182.482)" fill="white"/>
<circle r="1.83897" transform="matrix(-4.37114e-08 1 1 4.37114e-08 683.698 616.83)" fill="white"/>
<circle cx="1434.48" cy="245.005" r="1.83897" transform="rotate(90 1434.48 245.005)" fill="white"/>
<circle cx="12.96" cy="604.081" r="1.83897" transform="rotate(-90 12.96 604.081)" fill="white"/>
<circle cx="1202.77" cy="333.275" r="1.83897" transform="rotate(90 1202.77 333.275)" fill="white"/>
<circle cx="244.67" cy="515.811" r="1.83897" transform="rotate(-90 244.67 515.811)" fill="white"/>
<circle cx="130.654" cy="322.242" r="1.83897" transform="rotate(90 130.654 322.242)" fill="white"/>
<circle cx="1316.79" cy="526.845" r="1.83897" transform="rotate(-90 1316.79 526.845)" fill="white"/>
</g>
</g>
<defs>
<radialGradient id="paint0_radial_225_543" cx="0" cy="0" r="1" gradientUnits="userSpaceOnUse" gradientTransform="translate(736 20.2222) rotate(86.567) scale(617.887 1396.84)">
<stop stop-color="#2958FF"/>
<stop offset="1" stop-color="#0A1017" stop-opacity="0"/>
</radialGradient>
</defs>
</svg>
