<svg width="1440" height="764" viewBox="0 0 1440 764" fill="none" xmlns="http://www.w3.org/2000/svg">
<mask id="mask0_354_2" style="mask-type:alpha" maskUnits="userSpaceOnUse" x="0" y="0" width="1392" height="1659">
<rect width="1391.75" height="1658.97" rx="61" fill="#C4C4C4"/>
</mask>
<g mask="url(#mask0_354_2)">
<circle cx="165.155" cy="191.133" r="442.505" stroke="white" stroke-opacity="0.2" stroke-width="2"/>
<circle cx="165.155" cy="191.134" r="761.68" stroke="white" stroke-opacity="0.15" stroke-width="2"/>
<circle cx="165.155" cy="191.134" r="1095.7" stroke="white" stroke-opacity="0.1" stroke-width="2"/>
</g>
<circle cx="1245.15" cy="328.454" r="12.9897" fill="#1BEAFF"/>
<circle cx="714.433" cy="298.763" r="9.27835" fill="white"/>
<circle cx="1007.63" cy="269.072" r="9.27835" fill="white"/>
<circle cx="1118.97" cy="629.072" r="9.27835" fill="white"/>
<circle cx="840.619" cy="569.691" r="12.9897" fill="#E77E42"/>
<circle cx="157.732" cy="673.608" r="12.9897" fill="#1BEAFF"/>
<circle cx="441.65" cy="304.329" r="3.71134" fill="white"/>
<circle cx="786.804" cy="77.9379" r="3.71134" fill="white"/>
<circle cx="285.773" cy="545.567" r="3.71134" fill="white"/>
<circle cx="912.99" cy="745.979" r="3.71134" fill="white"/>
<circle cx="293.196" cy="241.237" r="3.71134" fill="white"/>
<circle cx="285.773" cy="760.825" r="3.71134" fill="white"/>
<circle cx="853.608" cy="204.123" r="3.71134" fill="white"/>
<circle cx="1002.06" cy="441.649" r="3.71134" fill="white"/>
<circle cx="586.392" cy="449.072" r="3.71134" fill="white"/>
<circle cx="738.557" cy="604.949" r="3.71134" fill="white"/>
<circle cx="1310.1" cy="133.608" r="3.71134" fill="white"/>
<circle cx="1391.75" cy="397.114" r="3.71134" fill="white"/>
<circle cx="1131.96" cy="289.485" r="3.71134" fill="white"/>
<circle cx="1202.47" cy="682.886" r="3.71134" fill="white"/>
<circle cx="582.681" cy="178.144" r="3.71134" fill="white"/>
<circle cx="545.567" cy="616.082" r="3.71134" fill="white"/>
<circle cx="1083.71" cy="85.3608" r="3.71134" fill="white"/>
<circle cx="1261.86" cy="552.99" r="3.71134" fill="white"/>
</svg>
