<svg width="414" height="587" viewBox="0 0 414 587" fill="none" xmlns="http://www.w3.org/2000/svg">
<g opacity="0.4">
<mask id="mask0_451_41" style="mask-type:alpha" maskUnits="userSpaceOnUse" x="0" y="0" width="401" height="477">
<rect width="400.129" height="476.953" rx="61" fill="#C4C4C4"/>
</mask>
<g mask="url(#mask0_451_41)">
<circle cx="47.4821" cy="54.9472" r="126.508" stroke="white" stroke-opacity="0.2" stroke-width="2"/>
<circle cx="47.4821" cy="54.9493" r="218.271" stroke="white" stroke-opacity="0.15" stroke-width="2"/>
<circle cx="47.4821" cy="54.9489" r="314.301" stroke="white" stroke-opacity="0.1" stroke-width="2"/>
</g>
<circle r="3.73454" transform="matrix(-1 0 0 1 54.9511 539.371)" fill="#E77E42"/>
<circle cx="357.982" cy="94.4289" r="3.73454" fill="#1BEAFF"/>
<circle r="3.73454" transform="matrix(-1 0 0 1 82.6934 316.367)" fill="#E77E42"/>
<circle cx="205.399" cy="85.8921" r="2.66753" fill="white"/>
<circle r="2.66753" transform="matrix(-1 0 0 1 328.105 293.959)" fill="white"/>
<circle cx="289.694" cy="77.358" r="2.66753" fill="white"/>
<circle r="2.66753" transform="matrix(-1 0 0 1 131.776 272.62)" fill="white"/>
<circle cx="321.703" cy="180.857" r="2.66753" fill="white"/>
<circle r="2.66753" transform="matrix(-1 0 0 1 31.4768 366.516)" fill="white"/>
<circle cx="241.678" cy="163.784" r="3.73454" fill="#E77E42"/>
<circle cx="45.3479" cy="193.66" r="3.73454" fill="#1BEAFF"/>
<circle cx="240.611" cy="251.279" r="2.66753" fill="#1BEAFF"/>
<circle cx="126.974" cy="87.4938" r="1.06701" fill="white"/>
<circle r="1.06701" transform="matrix(-1 0 0 1 317.969 367.048)" fill="white"/>
<circle cx="226.206" cy="22.4059" r="1.06701" fill="white"/>
<circle r="1.06701" transform="matrix(-1 0 0 1 395.861 449.209)" fill="white"/>
<circle r="1.06701" transform="matrix(-1 0 0 1 386.258 395.86)" fill="white"/>
<circle cx="173.922" cy="258.215" r="1.06701" fill="white"/>
<circle cx="189.928" cy="246.477" r="1.06701" fill="white"/>
<circle cx="82.1599" cy="156.849" r="1.06701" fill="white"/>
<circle r="1.06701" transform="matrix(-1 0 0 1 379.856 583.654)" fill="white"/>
<circle r="1.06701" transform="matrix(-1 0 0 1 86.428 567.648)" fill="white"/>
<circle r="1.06701" transform="matrix(-1 0 0 1 179.258 296.627)" fill="white"/>
<circle cx="262.484" cy="214.468" r="1.06701" fill="white"/>
<circle r="1.06701" transform="matrix(-1 0 0 1 145.113 426.803)" fill="white"/>
<circle r="1.06701" transform="matrix(-1 0 0 1 178.191 422.536)" fill="white"/>
<circle r="1.06701" transform="matrix(-1 0 0 1 284.891 424.669)" fill="white"/>
<circle r="1.06701" transform="matrix(-1 0 0 1 402.263 360.648)" fill="white"/>
<circle r="1.06701" transform="matrix(-1 0 0 1 412.933 341.442)" fill="white"/>
<circle r="1.06701" transform="matrix(-1 0 0 1 144.046 372.385)" fill="white"/>
<circle r="1.06701" transform="matrix(-1 0 0 1 249.68 374.519)" fill="white"/>
<circle cx="84.2938" cy="69.3541" r="1.06701" fill="white"/>
<circle cx="82.1599" cy="218.737" r="1.06701" fill="white"/>
<circle r="1.06701" transform="matrix(-1 0 0 1 266.753 444.941)" fill="white"/>
<circle r="1.06701" transform="matrix(-1 0 0 1 352.113 314.766)" fill="white"/>
<circle cx="245.412" cy="58.6842" r="1.06701" fill="white"/>
<circle cx="288.093" cy="126.973" r="1.06701" fill="white"/>
<circle r="1.06701" transform="matrix(-1 0 0 1 149.382 561.247)" fill="white"/>
<circle r="1.06701" transform="matrix(-1 0 0 1 133.376 322.236)" fill="white"/>
<circle cx="323.837" cy="233.14" r="2.66753" fill="white"/>
<circle cx="168.588" cy="129.107" r="1.06701" fill="white"/>
<circle r="1.06701" transform="matrix(-1 0 0 1 246.479 555.91)" fill="white"/>
<circle r="1.06701" transform="matrix(-1 0 0 1 242.212 307.298)" fill="white"/>
<circle cx="212.335" cy="173.922" r="1.06701" fill="white"/>
<circle r="1.06701" transform="matrix(-1 0 0 1 215.536 369.184)" fill="white"/>
<circle cx="376.654" cy="38.4098" r="1.06701" fill="white"/>
<circle cx="400.129" cy="114.169" r="1.06701" fill="white"/>
<circle r="1.06701" transform="matrix(-1 0 0 1 250.747 520.7)" fill="white"/>
<circle cx="325.438" cy="83.2252" r="1.06701" fill="white"/>
<circle r="1.06701" transform="matrix(-1 0 0 1 59.7524 260.348)" fill="white"/>
<circle cx="345.712" cy="196.33" r="1.06701" fill="white"/>
<circle cx="167.521" cy="51.2145" r="1.06701" fill="white"/>
<circle cx="156.85" cy="177.122" r="1.06701" fill="white"/>
<circle cx="311.567" cy="24.5406" r="1.06701" fill="white"/>
<circle cx="362.783" cy="158.984" r="1.06701" fill="white"/>
<circle r="1.06701" transform="matrix(-1 0 0 1 58.6857 354.247)" fill="white"/>
</g>
</svg>
